<?xml version="1.0" encoding="UTF-8"?>
<svg id="_1" data-name="1" xmlns="http://www.w3.org/2000/svg" viewBox="0 0 11661.966525474 1674.8082809034">
  <defs>
    <style>
      .cls-1 {
        fill: #fff;
      }
    </style>
  </defs>
  <g>
    <path class="cls-1" d="M6747.0466791406,403.1611638216c-32.4368832381,1.7018914776-66.3757229791,8.709881201-98.6124268233,20.5233984759-15.417479624,5.7064570338-42.5485090354,19.6224689935-57.0650591769,29.233279677-59.267521349,39.4448729616-94.2075024791,95.5087907495-101.2154922026,162.2851169358-1.5017120836,14.3163707475-.6007826012,46.1527158038,1.6019239902,59.1675538617,12.2138760628,72.5827507075,56.9648472703,125.7434562348,141.6615065533,168.1917533636,17.5199743087,8.8100931077,37.7429814841,17.4197624021,76.0867455693,32.7372745387,61.5701954278,24.5279640322,81.5930232091,33.5382365338,103.9185250692,46.7532539857,34.4391660163,20.5233984759,53.8614556158,44.250400513,59.8683039502,73.48368019,2.5028534727,12.0136966688,1.5017120836,35.9408780999-2.0022827781,47.6544278874-5.0057069453,16.5188329196-12.8146586639,29.7340947908-24.6281759388,41.7477914596-15.9180503185,16.0182622251-36.0410900065,26.4300349037-62.5713368168,32.1367363568-13.5154087524,3.0034241672-47.2538246802,3.2038479805-64.0730489004.5005706945-38.8443347797-6.4072071223-75.4859629681-20.8235453572-108.4236613201-42.7489328487-18.5211156978-12.4140554567-28.6327414951-20.4231865693-43.6498623311-35.140160524l-11.9134847622-11.6133378809-52.1595641382,54.5622057043c-28.7327089824,29.9340297655-52.2595316256,54.7626295175-52.4597110195,55.263200212-.4003587879,1.0011413891,19.8226483874,18.4209037912,35.340339918,30.5348123666,6.107060241,4.8052831321,18.7212950917,13.7158325657,28.0319588939,19.9226158748,63.5724782059,42.3480852222,127.3451358057,65.7751847973,200.7288485084,73.8840389779,14.8169414421,1.6019239902,59.5679126496,1.6019239902,72.5827507075,0,62.3711574229-7.8087072993,114.730900955-29.033100283,158.3805188669-64.0730489004,50.2572488474-40.5462262573,81.6932351158-96.3099971639,88.9014042332-158.1803394729,1.9020708715-16.418621013,1.9020708715-41.1470088585-.1002119066-58.26637996-8.0091311126-70.4802560228-42.2481177349-124.2417441512-106.221199148-167.2908238812-31.0353830611-20.9237572638-65.9751197719-37.8431933907-132.9516253523-64.4734076883-69.7795059343-27.7315675934-96.5099321386-41.0467969518-117.4339338217-58.4665593539-12.5142673634-10.4117726786-22.3255018601-24.9283228201-25.7292848152-38.1435846913-2.4026415661-9.2104518956-2.2024621721-26.1298880224.4003587879-36.3414813071,8.2093105065-31.4357418491,35.8409106125-54.1618469164,78.389419648-64.6738315016,17.9203330966-4.4049243442,27.1310294115-5.4060657333,47.8546072814-5.4060657333,20.323219082,0,31.9363125436,1.401500177,51.6589934437,6.2070277284,30.5348123666,7.508560418,63.172119418,23.5268226431,86.1983713666,42.3483296415l7.2081691174,5.8066689405,41.647579553-59.5679126496c22.926040042-32.7372745387,41.4471557397-59.9682714375,41.0467969518-60.5690540387-.3003913006-.5005706945-6.107060241-4.7053156448-12.8146586639-9.3106638022-56.9648472703-39.1447260803-118.0344720035-61.2698041272-185.4113363718-67.1766849743-22.1253224661-1.9020708715-43.3494710306-2.4026415661-62.0707661223-1.5017120836v.0002444193Z"/>
    <path class="cls-1" d="M7443.8410859328,402.7608050337c-77.9888164408,3.1036360738-149.1700669713,31.1355949678-197.6252124346,77.8888489534-24.8281109135,23.927181431-41.0467969518,47.5542159808-52.5599229261,76.6875281704-18.6213276044,47.1538571929-20.123039688,102.9173836802-3.9043536497,151.0721378428,3.7041742557,11.2127346737,13.5154087524,31.0353830611,20.6236103825,41.9477264343,17.0194036142,25.7292848152,41.0467969518,48.9557161578,71.2814624372,68.6783970579,30.6350242732,19.9226158748,57.7660536847,32.7372745387,129.1472391899,61.0696247332,56.7649122957,22.5256812541,79.2905935497,33.2378452332,101.6158509905,48.0547866753,26.3298229971,17.5199743087,42.2483621541,37.6430139967,49.2563518776,62.0707661223,2.0022827781,7.0079897235,2.3024296594,10.2115932847,2.2027065914,25.0285347267-.1002119066,14.2164032602-.4003587879,18.3206918845-2.2027065914,24.9283228201-11.1127671864,40.4460143507-43.3492266113,68.2780382699-89.3020074404,77.188098865-19.6224689935,3.704418675-49.8566456402,2.9032122606-74.5850334857-2.0022827781-24.1276052443-4.8052831321-41.5473676464-10.9123433731-66.1755435852-23.0262519486-28.0319588939-13.8155556337-52.6601348328-31.3355299424-74.484821579-53.0604936207l-11.5131259743-11.4129140677-52.7601023201,55.1629883054-52.6601348328,55.0627763988,5.2058863393,4.7055600641c71.3811855052,64.2734727137,155.5772740936,105.1198458523,241.9760692735,117.1335425211,91.7046490065,12.8144142447,175.600101875-6.8075659102,241.7756454602-56.4642765758,53.4608524086-40.246079376,86.4985182479-96.2097852573,95.7092145627-162.1849050292,1.6019239902-11.7135497875,1.6019239902-47.1538571929,0-60.5690540387-9.5108431962-76.1869574759-48.0547866753-131.8502720566-122.5396082544-176.6012432641-27.9317469873-16.7190123136-57.7660536847-30.5348123666-122.9399670423-56.664700389-75.0856041802-30.1344535787-97.0105028331-41.8477589469-117.1335425211-61.9705542157-10.4117726786-10.5119845852-14.8166970228-17.1196155208-18.8212625791-28.3323501945-2.3024296594-6.4072071223-2.6030653793-8.8100931077-2.6030653793-20.323219082,0-14.2161588409,1.9020708715-23.6270345497,7.0079897235-33.8386278344,16.1184741317-31.9363125436,53.7614881284-51.6589934437,106.9217048172-55.8637383939,51.5587815371-4.1047774629,112.6284062703,15.3175121366,152.0732792319,48.3551779759,3.9043536497,3.2036035612,7.3081366048,5.5062776399,7.7089842313,5.105918852,3.804141743-4.1047774629,82.9945233861-118.8354339987,82.5941645982-119.4362165998-.9009294824-1.401500177-34.0388072284-23.1264638552-43.04907973-28.2321382879-44.1504330257-25.0285347267-90.6032957108-40.3460468633-141.6615065533-46.7532539857-13.3149849392-1.7018914776-59.0673419551-4.6053481574-61.0696247332-3.9043536497-.3001468813.1002119066-3.6042067684.3003913006-7.508560418.5005706945l-.0009776771-.0007332579Z"/>
    <path class="cls-1" d="M3441.0776024877,415.2750723971s-344.692998588,836.0530273601-344.692998588,836.2534511734c0,.3001468813,167.6911826691.5005706945,167.6911826691.5005706945l61.1697449826-159.6820515565,342.4904753111-.5005706945s61.1697144302,159.2816927686,61.6702851247,159.7822634632c.2002404988.2004238132,172.6968896144-.1002119066,172.6968896144-.1002119066l-344.793088285-836.9542012619-116.2325213814.7007500885h.0000305524ZM3603.662957962,947.2815087808c-.2002404988.200179394-214.7448279553-.1002119066-214.7448279553-.1002119066l108.0231497701-260.9975112465s106.921918684,260.8975437592,106.7216781853,261.0977231531Z"/>
    <path class="cls-1" d="M9644.3503479455,415.2750723971s-344.6927847211,836.0530273601-344.6927847211,836.2534511734c0,.3001468813,167.6911826691.5005706945,167.6911826691.5005706945l61.1698366398-159.6820515565,342.4905669683-.5005706945s61.1698366398,159.2816927686,61.6704073344,159.7822634632c.2004238132.2004238132,172.6968896144-.1002119066,172.6968896144-.1002119066l-344.7929966277-836.9542012619-116.2326130387.7007500885h-.0004888386ZM9806.9361006012,947.2815087808c-.2004238132.200179394-214.7448279553-.1002119066-214.7448279553-.1002119066l108.0230581129-260.9975112465s106.9217048172,260.8975437592,106.7217698425,261.0977231531Z"/>
    <path class="cls-1" d="M5790.9566525795,415.2750723971c-.3003913006.7007500885,0,836.2534511734,0,836.2534511734l531.1055069012.5005706945v-144.164360026h-369.4211725665v-232.2648022641l273.8121699104-.5005706945.5005706945-143.6637893314h-274.312740605v-173.197460309h357.4074758977v-144.164360026s-518.7914189318.3003913006-519.0918102324,1.201320783Z"/>
    <path class="cls-1" d="M11130.8615074114,415.2750723971c-.3001468813.7007500885,0,836.2534511734,0,836.2534511734l531.1050180627.5005706945v-144.164360026h-369.4211725665v-232.2648022641l273.8121699104-.5005706945.5005706945-143.6637893314h-274.312740605v-173.197460309h357.4074758977v-144.164360026s-518.7916633511.3003913006-519.0918102324,1.201320783h.0004888386Z"/>
    <path class="cls-1" d="M7817.7673947501,558.23811164h221.2522469843v693.790982625l161.6843343347-.5005706945.5005706945-693.2904119304h221.2522469843l-.5005706945-143.6637893314-604.1888283033-.5005706945v144.164360026Z"/>
    <path class="cls-1" d="M8581.6382746099,1252.029094265h161.1837636401v-371.4234553447l99.2132094245.5005706945,197.9258481544,370.4223139556s180.4058738457.3001468813,180.4058738457.1002119066-224.1554592449-387.4417175698-224.0552473383-387.6418969637c.2004238132-.1002119066,7.3081366048-2.5028534727,15.8178384119-5.3060982459,51.0582108425-17.0194036142,93.5065079714-49.156139971,119.6363959938-90.7035076174,39.2449379869-62.5713368168,43.1492916366-153.3748119215,9.6110551028-223.2545297624-11.5131259743-23.927181431-24.5279640322-41.9477264343-43.7500742378-60.5690540387-18.9214744857-18.3209363038-35.2403724307-29.7338503715-59.6681245562-41.5473676464-33.2380896525-16.0182622251-69.8794734216-25.0285347267-112.427982457-27.5313881994-9.9112019841-.6007826012-343.8920671453-1.0011413891-343.8920671453-1.0011413891v837.9553426509h-.0004888386ZM8911.8149980281,559.2392530291c19.7226809001,2.2024621721,39.5450848682,9.4106312895,53.7614881284,19.5222570869,7.7089842313,5.5062776399,19.9226158748,18.5211156978,24.4277521256,25.8294967218,3.9043536497,6.7075984229,7.4083485114,15.1173327427,9.8109900775,23.8272139437,2.5028534727,9.1104844082,2.5028534727,33.6384484404-.1002119066,43.4494385179-9.6110551028,36.8420520016-39.5450848682,59.6681245562-84.4962354697,64.4734076883-6.6076309356.7007500885-172.3967427331,1.1013532957-172.3967427331,1.1013532957v-179.2043086434s162.985622605.4003587879,168.9924709395,1.0011413891h.0004888386Z"/>
    <path class="cls-1" d="M10244.5341218539,833.0514229395v419.0778832321l148.9696431581-.4003587879c156.8790512026-.4003587879,159.181480862-.5005706945,195.9235653763-5.2061307586,117.4336894024-15.1173327427,203.2317019811-61.4699835211,270.8087457432-146.1666428041,49.2563518776-61.8703423091,78.6898109486-134.6535168298,89.3020074404-220.7516762898,2.1024946848-16.9191917076,1.8018589649-78.8899903425-.5005706945-97.1107147397-10.5119845852-84.1960885884-41.3469438331-157.8799481724-92.205219701-220.7516762898-12.3138435501-15.1173327427-44.5507918136-47.0536452863-59.8680595309-59.3677332557-59.2677657683-47.2538246802-130.9490981548-74.5850334857-219.0495403929-83.6955178939-34.9397367108-3.7041742557-42.1481502475-3.8043861623-187.4138635692-4.3049568569l-145.9662189909-.5005706945v419.1778507194l-.0004888386.0002444193ZM10539.3702609348,559.2392530291c73.3834682833,4.8055275514,128.2463097075,28.1321708006,172.8973134277,73.6841040032,18.4209037912,18.8215069984,32.1367363568,37.943160878,44.9511506015,62.9716956047,16.418621013,31.9363125436,25.6293173279,62.3711574229,30.5348123666,100.1141389069,2.1024946848,15.8180828312,2.4026415661,55.2629557928.5005706945,70.0798972348-6.3069952157,51.758960931-21.524539865,94.3074699665-47.2540690995,132.1506633571-25.22895854,37.1424433022-55.0627763988,63.3720543927-93.5065079714,82.1938058103-27.2312413181,13.3149849392-52.4597110195,20.4231865693-90.6032957108,25.5291054213-5.4060657333.8007175758-34.2392310416,1.3012882704-79.7911642442,1.6019239902l-71.3811855052.4003587879v-549.7268345056h58.8669181418c32.3366713315,0,65.9751197719.5005706945,74.7854572989,1.0011413891Z"/>
    <path class="cls-1" d="M4634.3466337886,1004.2065157077c-39.2103526582,44.2222922953-99.5582072445,116.1568430605-240.5687030336,116.1568430605-40.5413378716,0-77.7748273573-9.1476361395-114.4603288072-24.622309876-42.9707433493-18.1261341341-167.3824811128-91.5347776038-167.3824811128-262.5317310949,0-168.9242779591,128.6130608438-247.9381888788,164.0044843922-262.5317310949,36.8090553982-15.1784375638,71.1151351141-22.8747119922,111.6564729857-22.8747119922s120.4224484125,4.5264007286,206.5146196,84.4348862293l104.0136041709-109.8630464861c-79.3399662452-74.1636546393-178.8291250418-119.7373411582-305.6147851054-119.7373411582-266.5707597703,0-441.6480487959,192.7737340577-441.6480487959,430.5719445022,0,237.7979660252,179.499567139,430.5719445022,441.6480487959,430.5719445022,141.3009881087,0,272.5209028307-59.276076024,353.3620923209-159.9386918052l-111.5250976203-99.6360547866h.0001222096Z"/>
    <path class="cls-1" d="M5513.0416605604,1004.2065157077c-39.2102304485,44.2222922953-99.5583294541,116.1568430605-240.5687030336,116.1568430605-40.5413378716,0-77.7749495669-9.1476361395-114.4603288072-24.622309876-42.9706211397-18.1261341341-167.3824811128-91.5347776038-167.3824811128-262.5317310949,0-168.9242779591,128.6131830534-247.9381888788,164.0046066019-262.5317310949,36.8090553982-15.1784375638,71.1150129045-22.8747119922,111.6563507761-22.8747119922s120.4224484125,4.5264007286,206.5147418097,84.4348862293l104.0136041709-109.8630464861c-79.3399662452-74.1636546393-178.8291250418-119.7373411582-305.6147851054-119.7373411582-266.5707597703,0-441.6480487959,192.7737340577-441.6480487959,430.5719445022,0,237.7979660252,179.499567139,430.5719445022,441.6480487959,430.5719445022,141.3009881087,0,272.5209028307-59.276076024,353.3620923209-159.9386918052l-111.5250976203-99.6360547866Z"/>
  </g>
  <g>
    <path class="cls-1" d="M1359.9727263225,4.9125365159c-3.4380270448,2.6741037292-10.1507335464,7.8585909546-14.9530993347,11.5695929616-38.4197257235,29.688012933-78.7496589243,61.6681080852-111.5482823772,88.4637243392-10.2598539986,8.4589002099-19.6464779069,16.0446202931-20.792575746,16.9723773005-1.1460978391.8731801268-3.438160281,2.7832543677-5.020739929,4.1475931113-1.6372064922,1.3643387435-10.2052271544,8.5134770906-19.0461155653,15.8808979784-18.7187542086,15.608038557-24.3943500872,20.3559273918-38.7472203165,32.6349760836-5.7848495671,4.9661963574-11.569565898,9.8778158341-12.8247841893,10.9147099483-1.3097118993,1.0368941142-3.8747753261,3.2744129845-5.7848495671,4.9661963574-1.910074241,1.6372064922-10.0961067022,8.7863448393-18.2275123192,15.7717525444-8.076912009,7.0399845858-16.5903058269,14.4074138009-18.8278746608,16.4266418031s-7.7494174161,6.930847479-12.2790486918,10.8601330677c-4.4750044316,3.9838624693-11.2422045412,9.9869529409-15.0077261789,13.3705196867s-11.8424336467,10.6418421996-18.0092714147,16.1537740544c-15.3897143799,13.7525411967-15.6080885206,13.9708320647-19.9193456557,18.0092880692-2.0738215374,1.9646344671-8.2406593055,7.5857367377-13.6433874354,12.4973562144-5.4027281299,4.9116194767-11.8970604909,10.9147099483-14.4619906815,13.3159594606-2.5649301906,2.4558097384-6.2759582203,5.8939367103-8.1860324612,7.6948571899-54.0278142441,49.8256442522-135.8881388564,130.6490914048-190.7345563466,188.2787466082-5.6755958786,6.0030904716-12.4427959883,13.097651938-15.0077261789,15.826329425-5.7848495671,6.0576506977-20.0830929521,21.3382446253-23.7394941376,25.3767006298-1.4734591958,1.6372064922-4.966246321,5.2936409867-7.6402969638,8.1860324612-2.7286774871,2.8378312484-10.3143476067,11.0784572448-16.8631735756,18.2821391634s-13.9708820283,15.2805939276-16.4266917667,18.0092714147c-6.548825969,7.1491216925-30.9431760562,34.4904567894-42.5673687984,47.6972957977-3.0015452358,3.438160281-5.7302227229,6.4942657429-6.0030904716,6.8216937177-.8732300903.9277236984-21.9385403489,25.1583931072-30.3974405588,35.0361922868-9.0046357074,10.4780949031-19.0461155653,22.2660349418-28.2691254133,33.2353051162-3.7655216377,4.4750044316-7.8040442603,9.2229432299-9.0046357074,10.6418421996-5.020739929,5.8393431751-39.5658235626,47.8609764761-55.1739120832,67.1254661821-4.966246321,6.1122109238-15.6625821286,19.5373574547-19.8647188114,24.8309651324-2.3466892861,3.0015452358-6.9308141699,8.7863281848-10.0961067022,12.8247841893-35.3090600355,44.6957505619-77.494440633,100.0879035496-109.147099483,143.5284358202-54.9555379425,75.3114986433-109.6928349805,154.4977059946-160.6644771445,232.483388517-19.5373574547,29.8517050614-49.716557109,77.16694604-67.7258285237,106.1455542473-5.7848495671,9.2775034561-11.6786863502,18.7732478166-13.097651938,21.0654434947-1.4734591958,2.2375688339-3.3835334367,5.3482345219-4.2567635271,6.8216937177s-3.6018409593,6.0030904716-6.1122109238,10.041479858c-10.7509626518,17.4635359173-17.4635359173,28.5419931621-32.0892738953,52.9363432493-8.5680206622,14.243749777-15.9900767215,26.6319189211-16.4811853747,27.5596426195-.5457354974.8732300903-4.5841915019,7.7494174161-9.0046357074,15.2805939276-9.0591959335,15.2805939276-25.1583931072,42.8402365471-31.1069233527,53.209210998-2.1283817635,3.7655216377-6.7125732654,11.7333131944-10.2052271544,17.736403666-3.438160281,6.0030904716-8.4043399838,14.7348584302-11.0784572448,19.3736101582-2.6195570348,4.638751728-5.2936076777,9.3321303003-5.8939700193,10.3689744509s-1.6917667184,3.0015452358-2.4558097384,4.3658839793c-.7094827939,1.3643387435-1.52808604,2.6740506429-1.7463269445,3.0015452358-.2183075226.2728677487-1.2005914471,2.0191946932-2.1829419897,3.8201484819-.9277236984,1.8009537887-4.3658839793,7.9131647125-7.6402969638,13.6433874354-3.2198527584,5.6755958786-9.1137561596,16.2629444702-13.097651938,23.4666263889s-8.6772077325,15.6080885206-10.4780949031,18.7187542086c-1.7463269445,3.110665688-3.1652925322,5.7302227229-3.1652925322,5.8393431751s-.7094827939,1.4734591958-1.6372064922,3.0015452358c-.8731634722,1.52808604-1.6372064922,2.8924247835-1.6372064922,3.05617208,0,.3274945929,13.4250799128-.1091204522,26.5227318508-.8186032461,6.9854410142-.3819882009,7.2583087629-.4366150452,9.5503712048-2.1283151454,3.8201484819-2.8924247835,8.076912009-5.8939700193,22.3205951679-15.7172089728,7.3674292151-5.1298603812,15.3351541537-10.6964690438,17.736403666-12.3881691441s7.8040442603-5.4027281299,12.0061809431-8.2406593055,13.3159594606-9.0592625516,20.1922134044-13.7525078876c19.4281703844-13.1522787822,58.6665659721-39.1838353617,78.5859116278-52.0631131589,9.9323594057-6.3850786725,20.4650811531-13.2613992344,23.4666263889-15.1714734754,3.0015452358-1.9647010852,5.9484636273-3.8201484819,6.548825969-4.1476430748s6.8763205619-4.2567635271,13.9162551841-8.7317679586c18.5003800679-11.6786863502,34.7088309301-21.8294198966,45.0231785368-28.1600049611,3.6019075774-2.1829419897,8.0222851648-4.9116194767,9.8232389535-6.0030904716,6.4941991248-3.9838957784,28.9786082072-17.6272832138,30.5611878553-18.5550069121.9277236984-.5457354974,7.3128023709-4.3112571351,14.1891229328-8.4589002099,6.9308141699-4.1476430748,13.3158928424-7.9677915567,14.1891229328-8.4589002099,5.6211022706-3.2744129845,20.847069354-12.2244218476,24.4489769314-14.3528702293,2.3466892861-1.4189655878,4.3658839793-2.5649301906,4.4750044316-2.5649301906s1.7463269445-.9277236984,3.6019075774-2.0738215374c3.6019075774-2.1829419897,27.7233899159-16.0991971737,32.1437675033-18.5550069121,1.3643387435-.7094827939,2.7286774871-1.52808604,3.0015452358-1.7463269445.3274945929-.2182409045,1.910074241-1.1460978391,3.5472807332-2.0191946932,1.6372064922-.9277236984,5.8393431751-3.2744129845,9.2775034561-5.1844872254,11.5150722899-6.4941991248,33.5081062468-18.8278746608,37.3828815729-20.9016961982,2.1283151454-1.1460978391,6.8216937177-3.7655216377,10.5327217474-5.8393431751,3.6564011854-2.0191946932,6.8216937177-3.7110280297,6.9308141699-3.7110280297s1.6372064922-.8186032461,3.3835334367-1.8554473967c1.7463269445-.9823505426,5.020739929-2.7833043313,7.2583087629-3.9838957784s5.4573549742-2.9469183916,7.0945614664-3.8201484819c1.6372064922-.9277236984,5.2391140697-2.8377979393,7.9131647125-4.2567635271,2.7286774871-1.4189655878,5.1844872254-2.7833043313,5.4573549742-3.0015452358.3274945929-.2182409045,3.492653889-1.910074241,7.0945614664-3.8201484819s9.8778657977-5.1844872254,13.9162551841-7.3674292151,10.8055894961-5.7302227229,15.0077261789-7.9131647125,9.8778657977-5.1298603812,12.5519164405-6.548825969c6.9308141699-3.6564011854,17.9001509625-9.3321303003,30.5611878552-15.826329425,13.097651938-6.7670668735,70.3452523223-35.3636868797,81.8603246123-40.9301623061,4.5296312758-2.1829419897,13.6980142796-6.6579464212,20.4104543088-9.8778657977,6.7125732654-3.2744129845,12.2790486918-5.9484636273,12.3881691441-5.9484636273s2.2375688339-.9823505426,4.6933785723-2.2375688339c2.5104365826-1.2005914471,8.076912009-3.8747753261,12.4427959883-5.9484636273,4.3658839793-2.0191946932,10.4780949031-4.9116194767,13.6433874354-6.4397055167,3.1652925322-1.4734591958,7.0945614664-3.3290398287,8.7317679586-4.0930162306,1.6372064922-.7094827939,5.0753667732-2.3466892861,7.6402969638-3.5472807332s6.1122109238-2.8377979393,7.9131647125-3.6564011854,5.020739929-2.2920624419,7.0945614664-3.2744129845c7.9131647125-3.7110280297,11.6786863502-5.4027281299,19.9193456557-9.1137561596,4.638751728-2.1283151454,10.5327217474-4.8024990245,12.9885314857-5.9484636273,2.5104365826-1.2005914471,4.638751728-2.1283151454,4.7478721803-2.1283151454.1637472965,0,1.6372064922-.6548559497,11.0784572448-4.966246321,2.0191946932-.9277236984,5.1298603812-2.2920624419,6.9308141699-3.05617208s5.0753667732-2.1829419897,7.2583087629-3.2197861403c2.2375688339-1.0368441506,4.0930162306-1.8554473967,4.2021366829-1.8554473967s1.7463269445-.7094827939,3.6564011854-1.582579648,6.2759582203-2.7833043313,9.7141185012-4.3112571351c3.438160281-1.4734591958,7.6402969638-3.3290398287,9.2775034561-4.0930162306s4.5841248838-2.0191946932,6.548825969-2.8377979393,4.5296312758-1.910074241,5.7302227229-2.4558097384,3.7655216377-1.6372064922,5.7302227229-2.4558097384,4.5296312758-1.910074241,5.7302227229-2.4558097384,5.5119818184-2.4011828941,9.5503712048-4.0930162306c4.0383893864-1.7463269445,8.3497797577-3.5472807332,9.5503712048-4.0930162306s4.4205108235-1.8554473967,7.0945614664-3.0015452358c2.7286774871-1.0914709948,5.8939700193-2.4558097384,7.0945614664-3.0015452358s7.0945614664-3.0015452358,13.097651938-5.4573549742,11.8970604909-4.9116194767,13.097651938-5.4573549742c3.2197861403-1.4734591958,34.2175890407-14.0253756363,39.6204504068-16.1537573999,2.6195570348-.9823505426,5.8393431751-2.2375022158,7.0945614664-2.8377979393,3.1652925322-1.4188989697,60.1400251679-23.7394941376,76.0754750452-29.7971448352,6.9308141699-2.6195570348,14.1344960886-5.402794748,16.0991971737-6.166837768s5.1298603812-1.9646344671,7.0945614664-2.6195570348c1.9647010852-.7094827939,7.8585378683-2.8924247835,13.097651938-4.9116194767s10.1507335464-3.874708708,10.9147099483-4.0930162306c.7639764019-.2728677487,3.438160281-1.2005914471,6.0030904716-2.1829419897,7.5856701196-2.8377979393,13.9708820283-5.1299269993,22.375155394-8.1314722351,4.3658839793-1.5826462661,8.4042733657-3.0561054619,9.0046357074-3.3289732106s3.3290398287-1.2552182913,6.0030904716-2.2375022158c2.7286774871-.9277236984,7.9677915567-2.7832377132,11.7333131944-4.1475764567,3.7655216377-1.3097785174,7.9131647125-2.7832377132,9.2775034561-3.2198527584s2.9469183916-1.0369107687,3.5472807332-1.3097785174,4.4205108235-1.6372064922,8.4589002099-3.0015452358c9.1137561596-3.110665688,10.3689744509-3.5472807332,11.7333131944-4.0930162306.6003623416-.2728677487,4.8024990245-1.7463269445,9.2775034561-3.2198527584,4.5296312758-1.52808604,13.097651938-4.4204442054,19.1007424095-6.4942657429,15.4443412241-5.3482345219,55.5559002841-18.7187542086,73.9470266636-24.6672178359,8.5681538984-2.7286774871,17.6271499775-5.6756624967,20.1922134044-6.4942657429,2.5650634268-.8731634722,7.5856701196-2.4558097384,11.187577697-3.5472807332,3.6019075774-1.146031221,7.9131647125-2.5103699645,9.5503712048-3.0561054619s5.9484636273-1.910074241,9.5503712048-3.0015452358,7.9131647125-2.4558097384,9.5503712048-3.0015452358c1.6372064922-.4911752713,5.2391140697-1.6372064922,7.9131647125-2.4012495122,2.7286774871-.8186032461,7.9677915567-2.4558097384,11.7333131944-3.6018409593,8.0767787728-2.5103699645,17.6271499775-5.402794748,19.9193456557-6.0030904716.9278569346-.2183075226,3.6019075774-1.0369107687,6.0030904716-1.8009537887s6.11234416-1.910074241,8.1860324612-2.5103699645c2.1283151454-.5457354974,6.3852119087-1.8555140148,9.5503712048-2.7832377132,4.8023657883-1.4734591958,12.9883982495-3.874708708,20.4650811531-6.0030904716.9278569346-.2728677487,4.6933785723-1.3643387435,8.4589002099-2.4558097384s7.5856701196-2.2375022158,8.4589002099-2.4558097384c.9278569346-.2728677487,12.4426627521-3.4927205071,25.6495683785-7.2583087629,13.2069056264-3.7110280297,28.3236190214-7.9677249386,33.562733091-9.3866239083,5.2391140697-1.4188989697,10.3143476067-2.7832377132,11.187577697-3.0561054619,1.473592432-.4911752713,11.5696991342-3.1652925323,25.3767006298-6.8216937177,2.8379311755-.76404302,7.0399346222-1.910074241,9.2775034561-2.5103699645,11.8969272547-3.1652925322,26.7410393733-6.9854410142,51.5720045057-13.2067723902,12.6065432848-3.2198527584,25.758822067-6.548825969,29.1968491117-7.4219894412,8.4042733657-2.1829419897,47.0425064662-11.4604454457,59.2123014695-14.2436831589,3.9294021704-.9277236984,9.6596248932-2.2375022158,12.8247841893-3.0015452358s6.7670668735-1.5826462661,8.0767787728-1.8555140148c1.2550850551-.3274279748,3.3290398287-.8186032461,4.638751728-1.0914709948,2.0736883012-.4911752713,9.4957443605-2.1829419897,14.57124437-3.2744129845,1.0368441506-.2183075226,7.0945614664-1.5826462661,13.3705196867-3.0015452358,13.097651938-2.9469850097,13.0430250937-2.9469850097,21.8294198966-4.8570592506,3.6019075774-.8186032461,7.6402969638-1.6917667184,9.0046357074-1.9646344671s5.8938367831-1.2552182913,10.0961067022-2.1829419897,8.7317679586-1.910074241,10.0961067022-2.1829419897,6.6580796574-1.3643387435,11.7333131944-2.4558097384c5.1298603812-1.0914709948,10.3689744509-2.1829419897,11.7333131944-2.4558097384s7.8585378683-1.6372064922,14.4619906815-3.0015452358c15.7170757366-3.2198527584,41.5305246478-8.4043399838,54.5735497415-10.8601497222,5.7302227229-1.0914709948,11.4604454457-2.2375022158,12.8247841893-2.5103699645,2.6740506429-.5457354974,19.4828638467-3.7110280297,29.1968491117-5.5119152003,7.4766829036-1.3643387435,10.0961067022-1.8555140148,13.9162551841-2.6195570348,1.6372064922-.3274279748,7.8039110241-1.4734591958,13.6433874354-2.5103699645s12.8794110335-2.2375022158,15.5534616763-2.7286774871c2.7286774871-.4911752713,8.3496465215-1.4734591958,12.5519164405-2.2375022158s9.0592625516-1.5826462661,10.8054562599-1.8555140148c1.6918333365-.3274279748,4.5294980396-.76404302,6.2759582203-1.0914709948,1.6918333365-.2728677487,4.5841248838-.76404302,6.3852119087-1.0914709948s4.7480054165-.8186032461,6.548825969-1.0914709948,8.4589002099-1.4188989697,14.7348584302-2.4558097384c15.2259670834-2.6195570348,19.4828638467-3.3289732106,33.0169975936-5.402794748,4.966246321-.76404302,12.0608077874-1.910074241,15.826329425-2.5103699645,7.6402969638-1.2552182913,8.8410216471-1.4188989697,24.5580973837-3.7655882558,6.1667045318-.9277236984,12.8247841893-1.910074241,14.8441121187-2.2375022158,3.8747753261-.6002957235,7.9131647125-1.2005914471,14.3527369931-2.1829419897,2.1283151454-.3274279748,8.131405617-1.146031221,13.3705196867-1.910074241,9.1138893958-1.3097785174,12.3883023803-1.7463269445,20.6286952133-3.0015452358,3.1107989242-.4911752713,16.8085467314-2.3466892861,32.1983943475-4.3658839793,4.966246321-.7094827939,11.187577697-1.52808604,14.0255088725-1.910074241,1.2007246833-.1637472965,8.9500088631-1.146031221,17.1906681686-2.1829419897s15.9899434853-2.0191946932,17.1906681686-2.1829419897,4.0383893864-.5457354974,6.2759582203-.8186032461c20.792575746-2.4558097384,21.2836843992-2.5103699645,21.2836843992-3.1652925322,0-.6002957235-28.1053781169-31.1069233527-53.1545841538-57.6842154295-58.8848068766-62.3775940018-135.342403359-138.3439485947-196.246538165-195.0458800998-4.966246321-4.638751728-12.3336755361-11.5150056718-16.3720649225-15.2805939276-4.0383893864-3.8201484819-12.770157345-11.7878734205-19.3736101582-17.7909638921-6.6034528132-5.9485302454-13.5887605912-12.333608918-15.5534616763-14.1345627067-3.9837625422-3.7109947206-6.9309474061-6.3305184464-25.6495683785-23.0300446527-14.2983766212-12.715630428-28.7603673027-25.4858543911-34.5995772416-30.5611878552-2.1283151454-1.8555140148-8.7863948029-7.5857367377-14.8441121187-12.8247841893-6.0030904716-5.2390474516-14.7348584302-12.715630428-19.318983314-16.590372445-4.638751728-3.9293022432-9.5503712048-8.0768786999-10.9147099483-9.3320636822-8.131405617-7.2582754538-44.8595644765-37.7103095478-81.5874568636-67.6166414534-15.3352207718-12.4973562144-52.772729189-42.1853472884-70.6727469153-56.0470422464-2.2375688339-1.7463602535-5.9484636273-4.5841748474-8.1860324612-6.3305351009-29.5789705489-22.9208908914-68.8719263628-52.4451846325-99.5967282783-74.8749002526-6.2759582203-4.5841748474-12.661170129-9.2775034561-14.1891229328-10.3689744509-2.5104365826-1.8554973603-7.7495506523-5.6210689616-27.5596426195-19.864768775-7.2581755267-5.2390641061-35.3091932717-24.9946874471-43.2767183561-30.5611878553-2.6194237986-1.8009288069-7.8039110241-5.4027780935-11.4604454457-7.9677415932-33.9448545282-23.7940710182-90.5920925709-61.8318335226-135.9973925448-91.2469735024C1370.3963276176,2.2930062845,1366.7397931959-.0536563528,1366.4669254472.0009171964c-.1092536884,0-3.05617208,2.2375155904-6.4941991248,4.9116193196Z"/>
    <path class="cls-1" d="M2151.2891975745,886.2753804551c-.436481809.2183075226-3.2744129845,1.3097785174-6.2759582203,2.4012495122s-5.9484636273,2.2375022158-6.548825969,2.4558097384c-.6003623416.2728677487-4.4205108235,1.6917667184-8.4589002099,3.2198527584-10.6418421996,3.9292689341-17.0814144801,6.3850786725-23.1937586401,8.7863281848-.6003623416.2728677487-4.7480054165,1.8555140148-9.2775034561,3.5472807332-4.4751376678,1.6917667184-9.2228766118,3.5472807332-10.4782281393,4.1475764567-1.3097118993.5457354974-2.5104365826,1.0369107687-2.7286774871,1.0369107687-.3821214372,0-2.3465560499.76404302-8.6225142702,3.2744129845-.6003623416.2728677487-4.4205108235,1.7463269445-8.4589002099,3.2744129845-4.0383893864,1.52808604-8.0767787728,3.110665688-9.0046357074,3.5472807332-.8732300903.381988201-3.8201484819,1.52808604-6.548825969,2.6195570348-9.3321303003,3.6564011854-38.2014848191,15.2260337015-39.8386913113,15.9354498773-.8732300903.381988201-3.6019075774,1.4734591958-6.0030904716,2.4558097384-2.4011828941.9277236984-5.075233537,2.0191946932-6.0030904716,2.4012495122-.8732300903.4366150452-7.1491883106,3.0015452358-13.9162551841,5.784782949-6.7670668735,2.7286774871-13.1522787822,5.3482345219-14.1891229328,5.8393431751-3.1107989242,1.3643387435-4.9116194767,2.1283817635-10.0961067022,4.2567635271-2.6740506429,1.0914709948-5.7302227229,2.3466892861-6.6580796574,2.7832377132-3.9837625422,1.7463269445-5.5119818184,2.3466892861-8.8953820189,3.7655882558-1.9647010852.8186032461-4.5294980396,1.910074241-5.7302227229,2.4558097384s-5.5119818184,2.3466892861-9.5503712048,4.0930162306c-4.0383893864,1.6917667184-9.3321303003,3.9838957784-11.7333131944,5.020739929-5.7302227229,2.5649301906-7.5856701196,3.3289732106-14.7348584302,6.4397055167-3.2744129845,1.4188989697-6.9853077779,3.0015452358-8.1860324612,3.5472807332s-6.7124400292,3.0015452358-12.2790486918,5.4573549742-11.8969272547,5.2936076777-14.0798692443,6.3305184464c-2.2375688339,1.0369107687-4.0930162306,1.8555140148-4.2022699191,1.8555140148s-1.7464601807.7094827939-3.6565344216,1.5826462661-4.8023657883,2.1829419897-6.4395722805,2.9469850097c-5.075233537,2.2920624419-17.6271499775,8.0222851648-19.9193456557,9.1137561596-1.2007246833.5457354974-4.3658839793,2.0191946932-7.0945614664,3.2744129845-2.6740506429,1.2552182913-6.11234416,2.8924247835-7.6402969638,3.5472807332-6.0577173158,2.7286774871-10.1507335464,4.638751728-16.3720649225,7.6402969638-3.6019075774,1.6917667184-8.5135270542,4.0384560045-10.9147099483,5.1844872254-8.5681538984,4.0384560045-17.5727896057,8.3497797577-23.1937586401,11.0238304005-9.7686121092,4.6933119541-78.3130438791,38.9109676129-88.1362828326,43.986267768-13.9162551841,7.2036819186-26.4135447804,13.7525078876-29.4697168604,15.3897143799-1.473592432.8186032461-5.4027281299,2.8924247835-8.7317679586,4.638751728-9.8232389535,5.1844872254-15.1169798674,7.9677915567-18.0092714147,9.5503712048-3.1107989242,1.6918333365-7.8585378683,4.2567635271-14.1891229328,7.6402969638-2.4011828941,1.2552182913-5.3481012857,2.8924247835-6.548825969,3.5472807332-2.3465560499,1.3097118993-5.6755958786,3.110665688-12.3883023803,6.7670668735-2.2921956781,1.2005914471-6.4941991248,3.5472807332-9.2775034561,5.1298603812-2.8379311755,1.6372064922-5.5666086626,3.05617208-6.0577173158,3.2744129845-2.3465560499.9277236984-1.2550850551,1.3643387435,19.5372242185,8.2951529135,4.2022699191,1.3643387435,8.131405617,2.7286774871,8.7317679586,3.0015452358s4.0383893864,1.4734591958,7.6402969638,2.6740506429,10.4782281393,3.6019075774,15.2805939276,5.2936076777,9.3321303003,3.2744129845,10.0961067022,3.492653889c3.1107989242,1.0368441506,34.4359631814,12.1153013954,37.3828815729,13.2613992344,1.2007246833.4911086532,4.7480054165,1.7463269445,7.9131647125,2.8377979393s6.2213313761,2.1829419897,6.8216937177,2.4558097384,4.3112571351,1.582579648,8.1860324612,3.0015452358c3.9294021704,1.3643387435,8.3496465215,3.0015452358,9.8232389535,3.5472807332,1.5279528038.5457354974,5.1844872254,1.910074241,8.1860324612,3.0015452358s5.9484636273,2.2375688339,6.548825969,2.4558097384c.6003623416.2728677487,3.5472807332,1.3643387435,6.548825969,2.4558097384s7.3128023709,2.6740506429,9.5503712048,3.5472807332c7.2038151548,2.7286774871,19.7011047512,7.4765496673,26.7410393733,10.0961067022,3.7655216377,1.4189655878,7.3128023709,2.7286774871,7.9131647125,3.0015452358.6003623416.2182409045,8.2406593055,3.2197861403,16.9178004199,6.548825969,8.7317679586,3.3290398287,16.5903058269,6.3850786725,17.4635359173,6.7670668735.9278569346.381988201,4.3658839793,1.7463269445,7.6402969638,3.05617208,3.3290398287,1.2552182913,6.4941991248,2.5104365826,7.0945614664,2.7833043313s6.4941991248,2.5649301906,13.097651938,5.1844872254c6.6034528132,2.5649301906,12.770157345,5.020739929,13.6433874354,5.4027281299,1.3643387435.6003623416,23.4119995446,9.5503712048,50.4805335109,20.5742016053,2.8379311755,1.1460978391,5.9484636273,2.4558097384,6.8216937177,2.8377979393.9278569346.4366150452,4.4751376678,1.910074241,7.9131647125,3.3290398287,3.4380270448,1.3643387435,7.5310432754,3.110665688,9.1138893958,3.8747753261,1.6372064922.7094827939,3.0015452358,1.3097118993,3.1107989242,1.3097118993.2182409045,0,22.1569144895,9.2775034561,25.1584597253,10.6418421996.9278569346.381988201,3.2197861403,1.3643387435,5.1844872254,2.1829419897s4.5294980396,1.910074241,5.7302227229,2.4558097384,4.9116194767,2.1283151454,8.1860324612,3.5472807332c3.3290398287,1.4189655878,6.9853077779,3.0015452358,8.1860324612,3.5472807332s6.0030904716,2.6195570348,10.6418421996,4.638751728c11.0239636368,4.8024990245,27.0685339663,11.8970604909,32.089140659,14.243749777,2.2375688339,1.0368441506,4.0930162306,1.8554473967,4.2022699191,1.8554473967s1.7464601807.7094827939,3.6565344216,1.582579648,4.6933785723,2.1283151454,6.1667045318,2.7833043313c1.5279528038.6548559497,3.9837625422,1.7463269445,5.4573549742,2.4558097384,1.5279528038.6548559497,3.9837625422,1.7463269445,5.4573549742,2.4558097384,1.5279528038.6548559497,4.3112571351,1.9647010852,6.2759582203,2.8377979393,1.9647010852.9277236984,4.8023657883,2.1829419897,6.2759582203,2.8924247835,6.985307778,3.1652925323,9.0046357074,4.0930162306,13.097651938,6.0030904716,6.8216937177,3.110665688,8.2952861497,3.8201484819,15.2259670834,7.0399346222,3.5472807332,1.6918333365,6.548825969,3.05617208,6.6034528132,3.05617208.1092536884,0,3.4380270448,1.582579648,7.4766829036,3.492653889,3.9837625422,1.910074241,8.4589002099,3.9838957784,9.8778657977,4.638751728,1.473592432.6548559497,5.2391140697,2.4558097384,8.4589002099,3.9838957784,3.2197861403,1.4734591958,7.8039110241,3.6564011854,10.2053603906,4.8024990245,38.5836062562,18.1730187112,111.2754146285,54.2460551486,144.0741713176,71.4913501614,2.7286774871,1.4189655878,8.3496465215,4.3658839793,12.5519164405,6.548825969,15.9899434853,8.2951529135,22.4844090825,11.6786863502,25.1038328811,13.097651938,1.5279528038.8186032461,5.1844872254,2.7833043313,8.1860324612,4.3658839793s6.9309474061,3.6564011854,8.7317679586,4.638751728,5.7302227229,3.05617208,8.7317679586,4.638751728c3.0015452358,1.582579648,6.7124400292,3.5472807332,8.1860324612,4.3658839793,1.5279528038.8186032461,4.966246321,2.6740506429,7.6402969638,4.0930162306,2.7286774871,1.4189655878,5.1844872254,2.7833043313,5.4573549742,3.0015452358.3274945929.2182409045,2.7833043313,1.582579648,5.4573549742,3.0015452358,2.7286774871,1.4189655878,6.2213313761,3.3290398287,7.8039110241,4.1476430748,1.5279528038.8732300903,4.2566302909,2.3466892861,6.0030904716,3.2744129845,1.6918333365.9823505426,3.8747753261,2.1829419897,4.7480054165,2.6740506429.9278569346.5457354974,3.1107989242,1.7463269445,4.9116194767,2.7286774871,5.1298603812,2.7833043313,27.450388931,15.1714734754,31.3797911014,17.4635359173,1.9647010852,1.0914709948,4.9116194767,2.7833043313,6.548825969,3.6564011854,1.6372064922.9277236984,3.8747753261,2.1283151454,4.9116194767,2.7286774871,2.0736883012,1.2005914471,20.0285993441,11.4604454457,24.0123618863,13.6980142796,6.2759582203,3.5472807332,47.2607473706,27.341401715,52.1177400032,30.2883201065,3.0015452358,1.8009537887,6.2213313761,3.7110280297,7.0945614664,4.2021366829,3.2197861403,1.8009537887,27.8871372124,16.5358122189,31.1069233527,18.5550069121,1.8008205525,1.1460978391,8.2952861497,5.0753667732,14.4619906815,8.7317679586,6.1667045318,3.7110280297,12.2244218476,7.4220560593,13.4797733751,8.2951529135,1.2550850551.8186032461,2.4011828941,1.52808604,2.5650634268,1.52808604s2.5650634268,1.4189655878,5.3481012857,3.2197861403c2.7833043313,1.7463269445,8.4042733657,5.2391140697,12.4426627521,7.694923808,21.1744307107,13.097651938,59.3759155298,37.2191342765,72.7464352165,45.9509022351l6.3852119087,4.2567635271h17.4635359173c9.5503712048,0,17.5181627615-.1637472965,17.6271499775-.4366150452.1636140603-.2182409045-4.0383893864-7.5311765116-9.2775034561-16.208317626-5.2937409139-8.7317679586-9.9868530137-16.5903058269-10.5325885111-17.4635359173-8.5135270542-14.5166175257-57.7933358818-94.1393733041-71.7642179101-116.023420045-3.3836666729-5.2391140697-7.2038151548-11.2422045412-8.4589002099-13.2613992344-3.6565344216-6.0577173158-28.5964867701-44.750310788-51.0262690083-79.1862739694-9.3867571445-14.4619906815-44.8595644765-67.6165748353-55.8832616408-83.7703988532-6.4395722805-9.4412507525-13.5887605912-19.9193456557-15.8809562693-23.2483854844-21.7747930524-32.034647051-57.6297218215-83.0609160594-84.4797484109-120.2800503358-24.4488436952-33.8356008397-77.8219352259-105.7089392021-92.0656850029-123.9365181394-1.8008205525-2.2920624419-5.6209690344-7.2036819186-8.4589002099-10.9147099483-23.1391317959-30.2337598804-61.1223757105-78.3676041052-82.9517956071-105.272390775-18.2821391634-22.4842758463-33.0716244378-40.4389870348-52.1177400032-63.3598779263-6.11234416-7.312868989-12.3336755361-14.5711111337-12.9340378777-15.062286405-.3821214372-.3274279748-1.0368441506-.381988201-1.5279528038-.1091204522l-.0002664724.0003997086Z"/>
  </g>
</svg>