<svg width="160" height="40" viewBox="0 0 160 40" fill="none" xmlns="http://www.w3.org/2000/svg">
<path d="M5.14069 33.4662C4.07605 33.0608 3.75665 32.3414 4.18251 31.3082L13.6845 8.31501C14.0837 7.45179 14.7092 7.02018 15.5609 7.02018H15.6407C16.5058 7.05941 17.0913 7.49103 17.3974 8.31501L27.059 31.3082C27.4849 32.3414 27.1788 33.0608 26.1408 33.4662C25.0895 33.8717 24.3575 33.5709 23.945 32.5638L21.7891 27.4237H9.35269L7.29659 32.5638C6.88404 33.5839 6.16541 33.8848 5.14069 33.4662ZM10.6702 24.1277H20.4117L15.4411 12.2388L10.6702 24.1277Z" fill="white"/>
<path d="M78.6039 33.7017C78.1648 33.9763 77.7456 34.0613 77.3463 33.9567C76.9471 33.8521 76.6077 33.5839 76.3282 33.1523L70.14 23.0291H64.5506V31.9752C64.5506 33.0739 63.9917 33.6232 62.8738 33.6232C61.7559 33.6232 61.197 33.0739 61.197 31.9752V8.66815C61.197 7.5695 61.7559 7.02018 62.8738 7.02018H72.2161C74.6514 7.02018 76.5146 7.66105 77.8054 8.94281C79.1096 10.2115 79.7617 12.0426 79.7617 14.4361V15.6132C79.7617 17.6928 79.2693 19.3538 78.2845 20.5963C77.2997 21.8258 75.8758 22.5909 74.0126 22.8917L79.2427 31.4651C79.7484 32.3807 79.5355 33.1262 78.6039 33.7017ZM64.5506 19.7331H72.2161C73.7332 19.7331 74.8111 19.4192 75.4499 18.7914C76.0887 18.1636 76.4081 17.1042 76.4081 15.6132V14.4361C76.4081 12.9581 76.0887 11.9052 75.4499 11.2774C74.8111 10.6366 73.7332 10.3161 72.2161 10.3161H64.5506V19.7331Z" fill="white"/>
<path d="M148.933 13.7298C151.449 13.7298 153.252 14.3118 154.343 15.4759C155.448 16.6399 156 18.5691 156 21.2634V31.9752C156 33.0739 155.441 33.6232 154.323 33.6232C153.205 33.6232 152.646 33.0739 152.646 31.9752V21.2634C152.646 19.7724 152.354 18.6933 151.768 18.0263C151.196 17.3593 150.251 17.0257 148.933 17.0257H147.297C145.779 17.0257 144.695 17.3593 144.043 18.0263C143.391 18.6933 143.065 19.7724 143.065 21.2634V31.9752C143.065 33.0739 142.506 33.6232 141.388 33.6232C140.27 33.6232 139.711 33.0739 139.711 31.9752V21.2634C139.711 19.7724 139.418 18.6933 138.833 18.0263C138.26 17.3593 137.315 17.0257 135.998 17.0257H134.361C132.844 17.0257 131.759 17.3593 131.107 18.0263C130.455 18.6933 130.129 19.7724 130.129 21.2634V31.9752C130.129 33.0739 129.57 33.6232 128.452 33.6232C127.334 33.6232 126.776 33.0739 126.776 31.9752V15.3778C126.776 14.2791 127.334 13.7298 128.452 13.7298C129.57 13.7298 130.129 14.2791 130.129 15.3778V16.2802C130.834 15.3778 131.606 14.7303 132.445 14.338C133.296 13.9325 134.308 13.7298 135.479 13.7298H135.998C137.648 13.7298 138.946 13.9587 139.891 14.4164C140.835 14.8611 141.554 15.587 142.046 16.5941C142.752 15.5609 143.497 14.8284 144.282 14.3968C145.081 13.9521 146.086 13.7298 147.297 13.7298H148.933Z" fill="white"/>
<path d="M35.4437 33.6232C34.3259 33.6232 33.7669 33.0739 33.7669 31.9752V17.0257H32.2897C31.1719 17.0257 30.6129 16.4764 30.6129 15.3778C30.6129 14.2791 31.1719 13.7298 32.2897 13.7298H33.7669V13.5728C33.7669 10.9962 34.3991 9.09322 35.6633 7.86378C36.9276 6.62126 38.8639 6 41.4723 6C42.4305 6 42.9096 6.54932 42.9096 7.64797C42.9096 8.74662 42.4305 9.29595 41.4723 9.29595C39.8221 9.29595 38.6842 9.59023 38.0588 10.1788C37.4333 10.7674 37.1206 11.8987 37.1206 13.5728V13.7298H46.5426V13.5728C46.5426 10.9962 47.1748 9.09322 48.439 7.86378C49.7033 6.62126 51.6396 6 54.248 6C55.2062 6 55.6853 6.54932 55.6853 7.64797C55.6853 8.74662 55.2062 9.29595 54.248 9.29595C52.5712 9.29595 51.4267 9.59023 50.8145 10.1788C50.2024 10.7674 49.8963 11.8987 49.8963 13.5728V13.7298H54.0085C55.1263 13.7298 55.6853 14.2791 55.6853 15.3778C55.6853 16.4764 55.1263 17.0257 54.0085 17.0257H49.8963V31.9752C49.8963 33.0739 49.3373 33.6232 48.2195 33.6232C47.1016 33.6232 46.5426 33.0739 46.5426 31.9752V17.0257H37.1206V31.9752C37.1206 33.0739 36.5616 33.6232 35.4437 33.6232Z" fill="white"/>
<path fill-rule="evenodd" clip-rule="evenodd" d="M93.0165 33.6232C90.3682 33.6232 88.3986 32.9954 87.1078 31.7398C85.8302 30.4842 85.1914 28.5616 85.1914 25.9719V21.4203C85.1914 18.7914 85.8302 16.8557 87.1078 15.6132C88.3986 14.3576 90.3682 13.7298 93.0165 13.7298H111.613C114.274 13.7298 116.244 14.3576 117.522 15.6132C118.799 16.8688 119.438 18.8045 119.438 21.4203V25.9326C119.438 28.5354 118.799 30.4711 117.522 31.7398C116.244 32.9954 114.274 33.6232 111.613 33.6232H93.0165ZM89.4832 29.4248C88.8578 28.8101 88.545 27.6591 88.545 25.9719V21.4203C88.545 20.2694 88.6781 19.38 88.9443 18.7522C89.2104 18.1113 89.6629 17.6666 90.3017 17.4181C90.9538 17.1565 91.8587 17.0257 93.0165 17.0257H111.613C113.356 17.0257 114.534 17.3331 115.146 17.9478C115.772 18.5495 116.084 19.707 116.084 21.4203V25.9326C116.084 27.6329 115.772 28.7904 115.146 29.4052C114.534 30.0199 113.356 30.3272 111.613 30.3272H93.0165C91.2865 30.3272 90.1087 30.0264 89.4832 29.4248Z" fill="white"/>
<path d="M100.917 21.2045C100.917 20.8383 101.057 20.5179 101.337 20.2432C101.616 19.9685 101.942 19.8312 102.315 19.8312C102.701 19.8312 103.027 19.9685 103.293 20.2432C103.572 20.5179 103.712 20.8383 103.712 21.2045V26.1485C103.712 26.5277 103.572 26.8482 103.293 27.1098C103.027 27.3844 102.701 27.5218 102.315 27.5218C101.942 27.5218 101.616 27.3844 101.337 27.1098C101.057 26.8482 100.917 26.5277 100.917 26.1485V21.2045Z" fill="white"/>
</svg>
