<svg width="247" height="93" viewBox="0 0 247 93" fill="none" xmlns="http://www.w3.org/2000/svg">
<path fill-rule="evenodd" clip-rule="evenodd" d="M98.1305 0.684951C97.5043 1.04752 94.9347 2.58701 94.5439 2.83357C94.4292 2.90601 93.8927 3.23029 93.3516 3.55424C91.2109 4.83611 85.9731 7.99468 85.6978 8.16988C85.5371 8.27204 84.5607 8.85841 83.5279 9.47289C82.4952 10.0874 81.5188 10.6748 81.3581 10.7782C81.1975 10.8816 80.7281 11.1647 80.3149 11.4072C79.9018 11.6497 79.4324 11.9324 79.2718 12.0355C79.1111 12.1385 76.1631 13.9138 72.7206 15.9805C69.2781 18.0472 66.3301 19.8233 66.1694 19.9273C66.0088 20.0313 65.5393 20.3148 65.1262 20.5574C64.7131 20.7999 64.2437 21.0819 64.0831 21.1842C63.9224 21.2864 63.6032 21.4794 63.3737 21.6131L62.9564 21.856L66.8465 21.8778L70.7365 21.8997L70.5878 22.4235C70.506 22.7116 70.267 23.4762 70.0568 24.1226C69.8466 24.769 69.4816 25.9022 69.2456 26.641C69.0098 27.3797 68.6397 28.5319 68.4233 29.2013C68.2069 29.8708 67.8115 31.0985 67.5447 31.9296C67.2779 32.7607 66.882 33.9884 66.6652 34.6579C66.4483 35.3273 66.0549 36.5551 65.791 37.3861C65.5269 38.2172 65.1348 39.4449 64.9196 40.1144C64.7044 40.7839 64.3099 42.0116 64.0431 42.8427C63.7763 43.6737 63.3805 44.9014 63.1636 45.5709C62.9467 46.2404 62.4618 47.7514 62.0861 48.9288C61.7105 50.1061 61.3158 51.3339 61.2091 51.657C61.1025 51.9802 60.819 52.868 60.5793 53.6298C60.0016 55.4654 59.7328 56.2321 59.6668 56.2321C59.6369 56.2321 59.5439 56.0527 59.46 55.8334C59.2196 55.2045 59.0427 54.7603 58.5496 53.5458C57.6062 51.2225 57.1332 50.0515 56.9899 49.6843C56.9088 49.4765 56.7228 49.0232 56.5765 48.6769C56.4302 48.3307 56.2404 47.8585 56.1549 47.6276C56.0694 47.3968 55.8798 46.9246 55.7337 46.5783C55.4578 45.924 54.6598 43.9618 54.4024 43.3044C54.2576 42.9348 53.7652 41.7161 52.8422 39.4428C52.5891 38.8195 52.3161 38.1396 52.2356 37.9318C52.1552 37.724 51.8738 37.0252 51.6104 36.3788C51.3469 35.7324 50.9831 34.8258 50.8017 34.3641C50.6204 33.9024 50.4126 33.3924 50.3398 33.2308C50.267 33.0692 49.9267 32.2381 49.5834 31.384C49.2402 30.5298 48.7527 29.321 48.5001 28.6977C48.2475 28.0744 47.9743 27.3944 47.893 27.1866C47.8117 26.9789 47.6046 26.4689 47.4327 26.0533C47.2609 25.6378 47.054 25.1278 46.9729 24.9201C46.8919 24.7123 46.6107 24.0134 46.3482 23.3671C46.0858 22.7207 45.8041 22.0218 45.7223 21.814C45.6406 21.6063 45.4348 21.0963 45.2653 20.6808C45.0956 20.2652 44.8899 19.7553 44.808 19.5475C44.7261 19.3397 44.5806 18.9901 44.4846 18.7706L44.31 18.3715L35.33 18.3929L26.3501 18.4142L26.0982 19.0438C25.9596 19.3901 25.7333 19.9567 25.5951 20.303C25.457 20.6493 25.2741 21.1026 25.1886 21.3104C25.1033 21.5181 24.9227 21.9714 24.7875 22.3177C23.7272 25.0336 22.7286 27.5584 22.5591 27.9526C22.4473 28.2124 22.3559 28.4532 22.3559 28.4878C22.3559 28.5224 22.2648 28.7632 22.1535 29.023C22.0421 29.2827 21.5514 30.5151 21.0627 31.7617C20.5741 33.0083 20.0831 34.2407 19.9716 34.5005C19.86 34.7602 19.7688 35.001 19.7688 35.0356C19.7688 35.0702 19.677 35.3111 19.5649 35.5708C19.4527 35.8305 18.9622 37.0629 18.4748 38.3095C17.9874 39.5561 17.4971 40.7886 17.3851 41.0483C17.2732 41.308 17.1817 41.5489 17.1817 41.5835C17.1817 41.618 17.0902 41.8589 16.9785 42.1186C16.8667 42.3783 16.2642 43.8941 15.6395 45.487C15.0149 47.0799 14.4323 48.5531 14.3447 48.7609C14.2573 48.9687 13.6744 50.4419 13.0495 52.0348C12.4247 53.6277 11.8219 55.1434 11.7101 55.4032C11.5982 55.6629 11.5068 55.9037 11.5068 55.9383C11.5068 55.9729 11.4155 56.2137 11.304 56.4735C11.1924 56.7332 10.5897 58.2489 9.96462 59.8418C9.33955 61.4347 8.7567 62.908 8.66941 63.1157C8.58212 63.3235 8.00027 64.7968 7.37637 66.3897C6.75255 67.9826 6.17053 69.4558 6.08299 69.6636C5.99545 69.8713 5.41335 71.3446 4.78928 72.9375C4.16529 74.5304 3.5832 76.0036 3.49565 76.2114C3.40819 76.4192 2.82585 77.8924 2.20161 79.4853C1.57737 81.0782 0.994606 82.5515 0.906645 82.7592C0.8186 82.967 0.57867 83.5714 0.373288 84.1024L0 85.0678L9.81732 85.0891C15.2318 85.1008 19.6668 85.078 19.7064 85.0381C19.746 84.9983 20.003 84.3088 20.2776 83.5058C20.5522 82.7027 20.8904 81.7246 21.0291 81.3322C21.1678 80.9397 21.3142 80.5053 21.3544 80.3668C21.3946 80.2283 21.5404 79.7938 21.6785 79.4014C22.1986 77.9227 22.9586 75.7273 23.1566 75.131C23.2697 74.7907 23.4 74.4413 23.4461 74.3545C23.5277 74.2012 23.8687 74.1967 35.408 74.1967H47.286L47.4177 74.5535C47.4902 74.7497 47.6812 75.3069 47.8422 75.7917C48.1353 76.6735 48.9321 78.9818 49.4072 80.3248C49.546 80.7172 49.6909 81.1517 49.7292 81.2902C49.7675 81.4287 49.9539 81.9764 50.1433 82.5074C50.3328 83.0384 50.6116 83.8317 50.7629 84.2703L51.038 85.0678L61.1282 85.0902C71.1477 85.1124 71.2194 85.1114 71.3565 84.9439C71.4325 84.8511 71.6721 84.2176 71.889 83.5363C72.106 82.855 72.5552 81.4665 72.8874 80.4507C73.2196 79.435 73.7816 77.6973 74.1365 76.5892C74.4912 75.4811 74.961 74.0267 75.1803 73.3572C75.3997 72.6878 75.9071 71.12 76.308 69.8734C77.0661 67.5159 77.4358 66.3733 78.4666 63.1997C78.804 62.1609 79.3884 60.3476 79.7651 59.1703C80.1417 57.9929 80.5389 56.7652 80.6476 56.442C80.7563 56.1188 81.2463 54.6078 81.7364 53.0841C82.2266 51.5605 82.825 49.7095 83.0664 48.9708C83.3076 48.232 83.7968 46.721 84.1534 45.6129C84.5099 44.5048 84.98 43.0504 85.198 42.381C85.4159 41.7115 85.9029 40.2004 86.28 39.0231C86.6572 37.8457 87.1646 36.278 87.4074 35.5393C87.6503 34.8006 88.1584 33.2329 88.5365 32.0555C88.9146 30.8782 89.4023 29.3671 89.6204 28.6977C89.8385 28.0282 90.3074 26.5738 90.6624 25.4657C91.0174 24.3576 91.5066 22.8466 91.7495 22.1079C91.9925 21.3691 92.4768 19.877 92.8257 18.792C93.5799 16.4469 94.6621 13.0975 95.2126 11.4047C95.4303 10.7352 95.9178 9.22416 96.2961 8.04681C96.6744 6.86946 97.1637 5.35842 97.3834 4.68895C98.3415 1.76954 98.8019 0.32373 98.7732 0.32373C98.7628 0.32373 98.4735 0.486333 98.1305 0.684951ZM160.454 24.1713C159.3 24.445 158.164 25.3801 157.795 26.3605C157.637 26.7794 157.594 27.0537 157.594 27.6483C157.594 28.6593 157.826 29.2878 158.449 29.9653C159.26 30.8455 160.253 31.2429 161.641 31.2429C164.213 31.2429 165.851 29.6573 165.715 27.299C165.631 25.8337 164.792 24.8278 163.212 24.2962C162.672 24.1143 162.431 24.0819 161.668 24.089C161.172 24.0937 160.625 24.1307 160.454 24.1713ZM180.696 24.2088C180.006 24.3957 179.554 24.6458 179.011 25.1393C177.552 26.4675 177.485 28.6611 178.861 30.0451C179.706 30.8956 180.597 31.2318 182.004 31.2318C183.845 31.2318 185.106 30.5037 185.785 29.0486C186.029 28.5258 186.047 28.4252 186.046 27.5644C186.045 26.6551 186.04 26.6316 185.723 26.0281C185.546 25.6909 185.254 25.2893 185.076 25.1353C184.63 24.7521 183.883 24.3633 183.294 24.2091C182.684 24.0491 181.285 24.049 180.696 24.2088ZM137.398 25.59C133.979 25.9247 131.819 27.4556 130.822 30.2507C130.583 30.9212 130.354 32.3932 130.348 33.2937L130.346 33.7345H128.927H127.508V36.2529V38.7712H128.927H130.346V45.5718V52.3725L133.705 52.3505L137.064 52.3286L137.085 45.5499L137.107 38.7712H140.152H143.198V45.5718V52.3725L146.557 52.3505L149.916 52.3286L149.937 45.5499L149.959 38.7712H152.128H154.297V36.2542V33.7371L152.023 33.7148L149.749 33.6925L149.774 33.1468C149.849 31.513 150.6 30.74 152.086 30.7675C152.613 30.7773 153.26 30.9386 153.71 31.1726C153.858 31.2495 153.99 31.3002 154.004 31.2852C154.033 31.2529 154.499 29.9414 154.714 29.2853C154.798 29.0314 155.039 28.3339 155.251 27.7354C155.463 27.1369 155.62 26.6034 155.6 26.5498C155.528 26.3615 154.269 25.913 153.349 25.7479C152.073 25.519 150.312 25.5189 149.123 25.7477C147.406 26.0781 146.292 26.6526 145.193 27.775C144.587 28.3935 144.409 28.6428 144.049 29.379C143.521 30.4593 143.279 31.442 143.22 32.7481L143.175 33.7345H140.049H136.922L136.952 32.9999C136.999 31.8558 137.441 31.1684 138.316 30.8767C138.975 30.657 140.353 30.8217 140.931 31.1894C141.038 31.2576 141.146 31.2935 141.17 31.269C141.212 31.2265 141.515 30.3779 142.027 28.8656C142.16 28.4731 142.398 27.7875 142.556 27.3421L142.844 26.5322L142.416 26.3247C141.804 26.0277 141.265 25.8715 140.36 25.7278C139.308 25.5607 138.215 25.51 137.398 25.59ZM168.255 39.5058L168.276 52.7483L171.635 52.7703L174.994 52.7923V39.5277V26.2632H171.614H168.234L168.255 39.5058ZM107.78 27.7113C107.641 28.0932 107.214 29.3976 105.726 33.9863C105.21 35.5792 104.515 37.7135 104.182 38.7293C103.85 39.745 103.173 41.8227 102.679 43.3463C102.185 44.87 101.509 46.9476 101.176 47.9634C100.124 51.1809 99.8016 52.1941 99.8016 52.2846C99.8016 52.3448 100.806 52.3656 102.982 52.3506L106.163 52.3286L106.743 50.9015C107.062 50.1166 107.372 49.3422 107.433 49.1806C107.494 49.019 107.669 48.5751 107.823 48.1942L108.102 47.5017H113.373H118.645L118.985 48.3621C119.172 48.8354 119.606 49.9215 119.949 50.7756L120.573 52.3286L124.214 52.3505L127.854 52.3724L127.799 52.1826C127.746 52.0013 127.3 50.7805 126.626 48.9708C126.453 48.509 126.202 47.8291 126.066 47.4597C125.931 47.0904 125.734 46.5615 125.629 46.2845C125.524 46.0074 125.329 45.4786 125.194 45.1092C125.059 44.7398 124.808 44.0599 124.635 43.5982C124.463 43.1365 124.028 41.9654 123.669 40.9958C123.31 40.0262 122.763 38.553 122.453 37.7219C122.143 36.8908 121.824 36.022 121.743 35.7911C121.663 35.5603 121.469 35.0314 121.311 34.6159C120.814 33.306 120.399 32.1875 118.844 27.9641L118.621 27.3564L113.266 27.3554L107.91 27.3545L107.78 27.7113ZM212.799 31.6358V34.1542H211.379H209.959L209.981 36.6516L210.003 39.149L211.393 39.172L212.782 39.1949L212.822 43.0336C212.865 47.1594 212.917 47.7614 213.324 48.8496C213.665 49.7593 214.049 50.3637 214.714 51.0346C216.07 52.4037 217.918 53.0412 220.602 53.0648C221.594 53.0736 222.04 53.0377 222.752 52.8917C223.646 52.7084 224.781 52.3198 225.119 52.0809L225.297 51.9554L225.049 51.2606C224.912 50.8784 224.751 50.4146 224.69 50.23C224.629 50.0453 224.423 49.4597 224.233 48.9288C224.042 48.3978 223.847 47.8312 223.8 47.6696C223.673 47.2382 223.659 47.2295 223.37 47.408C223.007 47.6326 222.173 47.8375 221.623 47.8375C220.684 47.8375 220.026 47.408 219.725 46.6004C219.569 46.1789 219.559 45.9453 219.559 42.6716V39.191H221.77H223.982V36.674V34.157L221.791 34.1346L219.6 34.1122L219.578 31.6148L219.556 29.1174H216.178H212.799V31.6358ZM195.732 33.2355C194.929 33.3146 193.434 33.6511 192.363 33.9939C191.511 34.2666 190.007 34.9545 189.695 35.2147L189.499 35.3779L190.592 37.5922C191.193 38.81 191.7 39.8218 191.719 39.8404C191.737 39.859 192.058 39.6957 192.431 39.4774C193.426 38.8958 194.835 38.449 196.044 38.3317C198.312 38.1115 199.925 38.617 200.589 39.7564C200.803 40.1243 201.029 40.8545 201.031 41.1847L201.032 41.3736L198.466 41.3753C195.593 41.377 194.277 41.4891 193.03 41.8382C190.93 42.4259 189.67 43.4683 188.972 45.1932C188.76 45.7188 188.731 45.9051 188.699 46.9591C188.664 48.1057 188.67 48.1589 188.927 48.9309C189.355 50.217 189.971 51.0414 191.034 51.7522C192.368 52.6442 193.863 53.0564 195.774 53.0591C198.427 53.0628 200.269 52.2478 201.285 50.6206L201.529 50.23L201.531 51.5111L201.532 52.7923L204.641 52.7703L207.75 52.7483L207.773 47.6696C207.8 41.7484 207.732 40.0944 207.418 38.9628C206.93 37.2077 206.241 36.1172 204.953 35.0654C203.818 34.1377 201.935 33.4268 200.101 33.2324C199.202 33.1372 196.712 33.1389 195.732 33.2355ZM234.831 33.2336C233.6 33.3801 232.082 33.9341 230.742 34.7252C229.693 35.3442 228.144 36.8846 227.539 37.91C226.596 39.5082 226.198 41.0363 226.198 43.0525C226.198 45.2366 226.631 46.7515 227.79 48.6131C227.912 48.8098 228.429 49.3872 228.939 49.8962C230.59 51.5456 232.462 52.4621 235.039 52.8831C237.17 53.2311 239.949 53.0574 241.674 52.4684C243.137 51.9691 244.446 51.18 245.299 50.284L245.628 49.9387L245.007 49.2866C244.666 48.928 243.874 48.1 243.248 47.4465L242.109 46.2584L241.62 46.6262C240.494 47.4742 239.486 47.8276 238.002 47.8946C235.452 48.0098 233.746 47.0487 233.021 45.0882L232.92 44.8154H239.914H246.907L246.961 44.1228C247.121 42.0435 246.785 39.975 246.044 38.4927C245.38 37.164 244.283 35.8523 243.172 35.058C241.916 34.1596 239.976 33.4004 238.5 33.2299C237.69 33.1361 235.631 33.1382 234.831 33.2336ZM158.303 43.0954V52.7923L161.662 52.7703L165.021 52.7483L165.042 43.0735L165.064 33.3987H161.683H158.303V43.0954ZM178.666 43.0945V52.7903H182.004H185.342V43.0945V33.3987H182.004H178.666V43.0945ZM112.741 35.8518C112.407 36.6957 112.046 37.5939 111.94 37.8478C111.449 39.0201 110.233 42.1436 110.233 42.2315C110.233 42.2675 111.66 42.297 113.405 42.297C115.149 42.297 116.576 42.2876 116.575 42.276C116.575 42.2644 116.403 41.8395 116.193 41.3316C115.984 40.8237 115.781 40.3138 115.742 40.1983C115.704 40.0829 115.519 39.6107 115.331 39.149C115.143 38.6873 114.646 37.4407 114.225 36.3788C113.804 35.3168 113.435 34.4186 113.405 34.3827C113.375 34.3467 113.076 35.0078 112.741 35.8518ZM235.54 38.0454C234.909 38.2551 234.302 38.6207 233.904 39.0317C233.471 39.4795 233.009 40.3348 232.912 40.8691L232.85 41.2057H236.797H240.743L240.658 40.8909C240.339 39.7035 239.46 38.6431 238.442 38.2197C237.949 38.0144 237.749 37.9811 236.875 37.9595C236.208 37.943 235.763 37.9716 235.54 38.0454ZM35.2675 39.3799C35.224 39.5695 34.9412 40.3814 34.456 41.7094C34.3126 42.1018 33.9934 42.9896 33.7467 43.6821C33.5 44.3747 33.1809 45.2624 33.0376 45.6549C32.8942 46.0473 32.7264 46.5195 32.6646 46.7042C32.6026 46.8889 32.4135 47.4177 32.2442 47.8795C32.0749 48.3412 31.8861 48.87 31.8248 49.0547C31.7634 49.2394 31.5756 49.7682 31.4075 50.23C31.2393 50.6917 31.052 51.2205 30.991 51.4052C30.9302 51.5899 30.706 52.2132 30.4927 52.7903C30.2794 53.3675 30.0549 53.9908 29.9939 54.1754C29.9328 54.3601 29.7651 54.8323 29.6212 55.2248C29.1689 56.4589 28.9408 57.0986 28.7832 57.5753C28.6992 57.8292 28.5114 58.3581 28.3659 58.7505C28.2204 59.143 28.0811 59.5491 28.0564 59.653L28.0113 59.8418H35.3511C39.388 59.8418 42.7138 59.8188 42.7418 59.7907C42.7697 59.7626 42.7156 59.5453 42.6213 59.308C42.5272 59.0706 42.3834 58.6876 42.3019 58.4567C42.0611 57.7748 41.3366 55.7516 41.0091 54.847C40.842 54.3853 40.6547 53.8564 40.5927 53.6718C40.5309 53.4871 40.3428 52.9582 40.1748 52.4965C39.7863 51.429 39.4817 50.5741 39.3374 50.146C39.2752 49.9613 39.0857 49.4325 38.9165 48.9708C38.7473 48.509 38.523 47.8857 38.4181 47.5856C38.3131 47.2855 38.09 46.6622 37.9224 46.2005C37.7547 45.7388 37.566 45.2099 37.5032 45.0253C37.4403 44.8406 37.2702 44.3684 37.1251 43.9759C36.9801 43.5835 36.793 43.0546 36.7094 42.8007C36.6259 42.5467 36.4384 42.0179 36.2927 41.6254C36.1471 41.233 35.8915 40.5247 35.7248 40.0514C35.5582 39.5781 35.3968 39.191 35.3662 39.191C35.3358 39.191 35.2913 39.276 35.2675 39.3799ZM196.817 44.9793C195.703 45.2589 195.19 45.8492 195.19 46.8523C195.19 47.6854 195.626 48.2761 196.492 48.6155C198.031 49.2185 200.121 48.4679 200.817 47.0627C201.006 46.6814 201.032 46.5251 201.032 45.7643V44.8993L199.05 44.9079C197.96 44.9127 196.955 44.9448 196.817 44.9793ZM143.114 71.8462V85.1117L146.473 85.0897L149.832 85.0678V71.8462V58.6246L146.473 58.6027L143.114 58.5807V71.8462ZM154.214 71.8471V85.1117L157.573 85.0897L160.932 85.0678L160.953 71.8252L160.974 58.5826H157.594H154.214V71.8471ZM126.96 65.5498C125.074 65.716 122.342 66.5601 120.956 67.405L120.521 67.6702L121.652 69.9615L122.782 72.2529L123.14 72.005C124.551 71.0289 127.009 70.4518 128.902 70.6524C130.036 70.7724 130.598 71.0098 131.23 71.6363C131.753 72.1554 131.943 72.5416 132.065 73.3362L132.12 73.693L129.668 73.6947C125.337 73.6976 123.603 74.0203 121.949 75.131C120.431 76.15 119.704 77.586 119.721 79.5273C119.74 81.5421 120.548 83.0658 122.171 84.1409C123.465 84.9986 124.943 85.3902 126.883 85.3895C129.642 85.3885 131.203 84.6534 132.461 82.7615C132.593 82.564 132.599 82.6154 132.599 83.8329V85.1118L135.708 85.0898L138.816 85.0678V79.2335C138.816 72.8709 138.783 72.2536 138.363 70.9394C137.84 69.3041 137.059 68.1901 135.743 67.2039C134.686 66.4118 132.698 65.7129 131.039 65.5506C130.118 65.4605 127.977 65.46 126.96 65.5498ZM172.949 65.5463C172.229 65.6314 170.974 65.973 170.195 66.2956C168.389 67.0446 166.816 68.3123 165.801 69.8364C164.939 71.1319 164.495 72.2982 164.278 73.8342C164.105 75.0576 164.111 75.7706 164.306 77.0509C164.62 79.1148 165.398 80.7084 166.773 82.1061C168.393 83.7523 170.416 84.776 172.905 85.2089C174.386 85.4664 176.544 85.4647 177.986 85.2047C180.2 84.8057 182.013 83.9229 183.252 82.6414L183.623 82.2573L182.834 81.4374C182.401 80.9864 181.621 80.1738 181.101 79.6316C180.581 79.0894 180.121 78.6459 180.079 78.6459C180.037 78.6459 179.787 78.8109 179.522 79.0126C178.439 79.8391 177.171 80.2413 175.651 80.2403C173.478 80.2387 171.945 79.4193 171.199 77.8595C171.037 77.5205 170.905 77.2188 170.905 77.189C170.905 77.1592 174.056 77.1348 177.907 77.1348H184.909L184.97 76.2353C185.204 72.7798 184.012 69.7538 181.629 67.7553C180.614 66.9046 179.086 66.1566 177.539 65.7539C176.816 65.5654 176.494 65.5326 175.119 65.5069C174.247 65.4907 173.271 65.5084 172.949 65.5463ZM97.0862 66.2008C97.1924 66.4662 97.4108 67.0046 97.5715 67.397C98.2459 69.044 98.6617 70.0643 98.8034 70.4191C98.8864 70.6269 99.1406 71.2502 99.3684 71.8042C99.5963 72.3583 99.9221 73.1516 100.092 73.5671C100.263 73.9826 100.589 74.7759 100.818 75.33C101.046 75.884 101.301 76.5073 101.385 76.7151C101.469 76.9229 101.63 77.3195 101.744 77.5965C101.858 77.8736 102.167 78.6291 102.43 79.2755C102.693 79.9218 102.993 80.6585 103.098 80.9124C103.354 81.536 104.014 83.1527 104.349 83.9765C104.499 84.3458 104.67 84.7523 104.729 84.8798L104.836 85.1116L108.29 85.0897L111.743 85.0678L111.956 84.5641C112.073 84.2871 112.259 83.8526 112.368 83.5987C112.478 83.3448 112.889 82.3437 113.282 81.3741C113.97 79.6735 114.235 79.0308 114.576 78.2261C114.664 78.0184 115.151 76.8284 115.658 75.5818C116.165 74.3352 116.652 73.1453 116.741 72.9375C116.829 72.7297 117.018 72.2764 117.16 71.9301C117.302 71.5839 117.491 71.1305 117.579 70.9228C117.667 70.715 118.061 69.7517 118.454 68.7821C118.847 67.8126 119.258 66.8115 119.366 66.5576C119.474 66.3036 119.588 66.0104 119.619 65.906L119.676 65.7161L116.485 65.7381L113.295 65.7601L112.764 67.0612C112.472 67.7769 112.143 68.5702 112.034 68.8241C111.924 69.078 111.735 69.5314 111.613 69.8315C111.492 70.1316 111.321 70.5471 111.233 70.7549C111.146 70.9627 110.921 71.5104 110.734 71.9721C110.547 72.4338 110.322 72.9816 110.234 73.1893C110.087 73.5375 109.787 74.2654 109.404 75.204C109.259 75.5572 108.956 76.2829 108.606 77.1138C108.523 77.3101 108.433 77.4697 108.406 77.4685C108.378 77.4673 108.231 77.1367 108.079 76.734C107.926 76.3311 107.712 75.7749 107.603 75.4979C107.493 75.2208 107.08 74.1631 106.684 73.1474C106.288 72.1316 105.801 70.885 105.602 70.3771C105.403 69.8692 105.028 68.906 104.769 68.2365C104.51 67.567 104.18 66.7265 104.036 66.3687L103.775 65.7181H100.334H96.8931L97.0862 66.2008ZM185.259 65.766C185.259 65.8093 185.523 66.4473 185.882 67.2711C185.942 67.4096 186.189 67.9951 186.43 68.5723C186.953 69.8239 187.521 71.1721 187.721 71.6363C187.801 71.821 187.955 72.1894 188.065 72.4548C188.174 72.7202 188.356 73.1547 188.468 73.4202C188.581 73.6856 188.789 74.1862 188.931 74.5325C189.225 75.2501 189.387 75.639 189.79 76.5892C189.946 76.9585 190.176 77.5063 190.301 77.8064C190.426 78.1065 190.562 78.4276 190.603 78.5199C190.67 78.6688 191.508 80.6543 191.932 81.6679C192.019 81.8757 192.209 82.329 192.355 82.6753C192.501 83.0216 192.714 83.5315 192.829 83.8086C192.944 84.0856 193.128 84.5114 193.238 84.7548C193.492 85.3181 193.489 85.382 193.19 85.8195C192.883 86.2685 192.561 86.5452 192.064 86.7872C191.718 86.9556 191.583 86.9707 190.702 86.9401C189.823 86.9096 189.661 86.8785 189.1 86.6334C188.757 86.4834 188.356 86.2681 188.209 86.155C188.061 86.0418 187.91 85.95 187.872 85.9509C187.835 85.9518 187.292 86.9975 186.665 88.2744L185.525 90.5962L185.843 90.8279C186.636 91.4058 188.149 91.9714 189.509 92.198C191.543 92.5372 193.95 92.1747 195.494 91.2965C196.847 90.5276 197.808 89.5385 198.718 87.9811C199.08 87.3613 199.863 85.7134 199.863 85.5724C199.863 85.5406 199.976 85.2698 200.114 84.9706C200.251 84.6713 200.364 84.4055 200.364 84.3798C200.364 84.3542 200.462 84.1019 200.581 83.8191C200.7 83.5362 200.884 83.0971 200.989 82.8432C201.095 82.5892 201.301 82.0982 201.447 81.7519C201.717 81.1081 201.792 80.9261 202.33 79.6112C202.5 79.1957 202.709 78.6972 202.795 78.5036C202.881 78.3099 202.951 78.1283 202.951 78.1002C202.951 78.0721 203.023 77.8905 203.11 77.6968C203.198 77.5032 203.438 76.9292 203.644 76.4213C203.85 75.9134 204.139 75.2145 204.285 74.8683C204.431 74.522 204.619 74.0687 204.703 73.8609C204.786 73.6531 204.947 73.2565 205.061 72.9795C205.176 72.7024 205.446 72.0414 205.661 71.5104C205.877 70.9794 206.104 70.4317 206.166 70.2932C206.336 69.914 206.919 68.4993 207.291 67.5649C207.374 67.3571 207.577 66.8675 207.742 66.4768C207.907 66.086 208.042 65.7555 208.042 65.7423C208.042 65.7289 206.603 65.7181 204.844 65.7181H201.647L201.454 66.2008C201.348 66.4662 201.174 66.8912 201.068 67.1452C200.901 67.5464 200.665 68.136 200.028 69.7475C199.946 69.9553 199.74 70.4653 199.57 70.8808C199.401 71.2963 199.195 71.8063 199.114 72.0141C199.032 72.2218 198.637 73.204 198.236 74.1967C197.835 75.1894 197.439 76.1715 197.357 76.3793C197.275 76.5871 197.135 76.9404 197.046 77.1645L196.885 77.5718L196.65 76.9966C196.521 76.6802 196.343 76.2513 196.255 76.0435C196.167 75.8357 196 75.4202 195.883 75.1201C195.472 74.0602 195.368 73.7978 194.499 71.6363C194.016 70.4359 193.465 69.0571 193.275 68.5723C193.084 68.0875 192.856 67.5208 192.769 67.3131C192.681 67.1053 192.504 66.6709 192.374 66.3477L192.139 65.7601L188.699 65.7382C186.807 65.7261 185.259 65.7387 185.259 65.766ZM173.389 70.4437C172.322 70.8178 171.57 71.5139 171.115 72.5484C170.999 72.8112 170.895 73.148 170.884 73.2967L170.863 73.5671H174.785H178.708L178.679 73.3572C178.578 72.6322 177.851 71.4838 177.188 71.001C176.447 70.4614 175.979 70.3128 174.911 70.2781C174.07 70.2507 173.881 70.2713 173.389 70.4437ZM127.801 77.3362C127.389 77.4671 126.933 77.6979 126.728 77.8795C126.442 78.1317 126.239 78.6518 126.235 79.1427C126.227 80.0302 126.761 80.6933 127.724 80.9926C129.335 81.4929 131.226 80.7472 131.882 79.353C132.07 78.9537 132.098 78.7829 132.098 78.056V77.2188L130.116 77.2244C128.764 77.2283 128.028 77.2638 127.801 77.3362Z" fill="white"/>
</svg>
