<svg width="264" height="70" viewBox="0 0 264 70" fill="none" xmlns="http://www.w3.org/2000/svg">
<g filter="url(#filter0_d_658_3897)">
<path d="M10.3552 40.4015L22.8127 35.2936V39.7494L14.5077 43.3358V49.4216L10.3552 51.0517V40.4015ZM19.8623 15.5145C26.3096 15.5145 31.6642 20.5136 31.6642 27.2516V40.6188C31.4457 45.944 35.9259 50.1823 41.2805 50.1823C46.5257 50.1823 50.6783 45.8353 50.6783 40.6188V25.73L46.5257 27.3602V40.5101C46.5257 43.4444 44.1217 45.7265 41.1712 45.7265C38.3301 45.7265 35.8167 43.3358 35.8167 40.5101V27.2516C35.9259 18.3401 28.7136 11.1675 19.8623 11.1675C10.9016 11.1675 3.58008 18.3401 3.58008 27.2516V53.3339L8.06042 51.7038V27.2516C8.06042 20.7311 13.3057 15.5145 19.8623 15.5145ZM62.808 50.1823C68.1625 50.1823 72.4243 45.8353 72.4243 40.6188V17.2533L68.2718 18.8835V40.6188C68.2718 43.4444 65.6491 45.8353 62.6987 45.8353C59.7482 45.8353 57.3442 43.4444 57.3442 40.6188V23.3393L52.8638 24.9694V40.6188C52.973 45.8353 57.3442 50.1823 62.808 50.1823ZM74.7192 16.4926V40.6188C74.7192 47.1394 69.3647 52.4645 62.808 52.4645C57.9998 52.4645 53.6288 49.5302 51.771 45.5093C49.9134 49.5302 45.9794 52.4645 41.2805 52.4645C34.8332 52.4645 29.5879 47.1394 29.5879 40.6188V27.2516C29.5879 21.9264 25.2169 17.688 19.8623 17.688C14.617 17.688 10.3552 22.0352 10.3552 27.2516V37.7932L22.8127 32.6854V28.2296L14.5077 31.9246V27.2516C14.5077 24.3173 16.9118 22.0352 19.8623 22.0352C22.5942 22.0352 25.2169 24.3173 25.2169 27.2516C25.3261 27.3602 25.2169 40.6188 25.2169 40.6188C25.2169 49.4216 32.3198 56.8116 41.1712 56.8116C45.3237 56.8116 48.9299 54.964 51.771 52.4645C54.6123 54.964 58.5462 56.8116 62.6987 56.8116C71.6594 56.8116 78.7623 49.4216 78.7623 40.6188V14.8625L74.7192 16.4926Z" fill="white"/>
</g>
<path d="M117.123 42.8481C117.195 42.9151 117.252 42.9958 117.292 43.0855C117.332 43.1752 117.353 43.272 117.355 43.3702C117.356 43.4684 117.338 43.5659 117.302 43.6569C117.265 43.7481 117.211 43.8307 117.142 43.9002C117.073 43.9696 116.991 44.0244 116.9 44.0612C116.81 44.0979 116.713 44.116 116.615 44.1142C116.518 44.1126 116.422 44.091 116.333 44.0511C116.243 44.0111 116.163 43.9534 116.097 43.8817L107.892 35.6243L99.6867 43.8817C99.549 44.0108 99.3668 44.0812 99.1786 44.0778C98.9903 44.0744 98.8108 43.9976 98.6776 43.8637C98.5446 43.7297 98.4683 43.549 98.465 43.3595C98.4616 43.1701 98.5315 42.9867 98.6598 42.8481L106.864 34.5896L98.6598 26.331C98.5315 26.1923 98.4616 26.0089 98.465 25.8195C98.4683 25.63 98.5446 25.4493 98.6776 25.3154C98.8108 25.1813 98.9903 25.1046 99.1786 25.1012C99.3668 25.098 99.549 25.1683 99.6867 25.2975L107.892 33.5547L116.097 25.2975C116.234 25.1683 116.417 25.098 116.605 25.1012C116.793 25.1046 116.973 25.1813 117.106 25.3154C117.239 25.4493 117.315 25.63 117.318 25.8195C117.322 26.0089 117.252 26.1923 117.123 26.331L108.92 34.5896L117.123 42.8481Z" fill="url(#paint0_linear_658_3897)"/>
<path d="M132.008 47.4313L135.799 41.2493C139.11 43.4533 142.742 44.5822 145.732 44.5822C147.494 44.5822 148.296 44.0447 148.296 43.0233V42.9157C148.296 41.7869 146.694 41.3032 143.65 40.443C137.936 38.9378 133.396 37.0027 133.396 31.1433V31.0358C133.396 24.8539 138.309 21.4136 144.985 21.4136C149.204 21.4136 153.582 22.65 156.893 24.8002L153.423 31.2508C150.432 29.5843 147.175 28.563 144.878 28.563C143.329 28.563 142.528 29.1543 142.528 29.9608V30.0682C142.528 31.197 144.184 31.7347 147.227 32.6485C152.942 34.2611 157.481 36.25 157.481 41.8944V42.002C157.481 48.3989 152.729 51.7317 145.679 51.7317C140.819 51.7317 136.013 50.3341 132.008 47.4313Z" fill="white"/>
<path d="M161.808 42.0554V30.2292H158.389V22.0047H161.808V14.6401H171.953V22.0047H178.683V30.2292H171.953V40.0666C171.953 42.1093 172.862 42.9693 174.73 42.9693C176.065 42.9693 177.347 42.593 178.575 42.0016V50.0112C176.759 51.0326 174.357 51.6777 171.526 51.6777C165.438 51.6777 161.808 48.9899 161.808 42.0554Z" fill="white"/>
<path d="M180.926 22.004H191.072V25.9819C192.941 23.5628 195.612 21.3589 199.67 21.3589C203.515 21.3589 206.452 23.079 208.001 26.0894C210.511 23.1865 213.449 21.3589 217.667 21.3589C223.809 21.3589 227.547 25.2292 227.547 32.0025V51.0857H217.4V35.2815C217.4 32.11 215.851 30.4435 213.449 30.4435C211.045 30.4435 209.283 32.11 209.283 35.2815V51.0857H199.136V35.2815C199.136 32.11 197.587 30.4435 195.185 30.4435C192.781 30.4435 191.072 32.11 191.072 35.2815V51.0857H180.926V22.004Z" fill="white"/>
<path d="M229.148 40.605H239.722V51.0873H229.148V40.605Z" fill="white"/>
<defs>
<filter id="filter0_d_658_3897" x="3.58008" y="11.1675" width="75.1826" height="46.3472" filterUnits="userSpaceOnUse" color-interpolation-filters="sRGB">
<feFlood flood-opacity="0" result="BackgroundImageFix"/>
<feColorMatrix in="SourceAlpha" type="matrix" values="0 0 0 0 0 0 0 0 0 0 0 0 0 0 0 0 0 0 127 0" result="hardAlpha"/>
<feOffset dy="0.703125"/>
<feColorMatrix type="matrix" values="0 0 0 0 1 0 0 0 0 1 0 0 0 0 1 0 0 0 0.25 0"/>
<feBlend mode="normal" in2="BackgroundImageFix" result="effect1_dropShadow_658_3897"/>
<feBlend mode="normal" in="SourceGraphic" in2="effect1_dropShadow_658_3897" result="shape"/>
</filter>
<linearGradient id="paint0_linear_658_3897" x1="98.4648" y1="34.6078" x2="117.355" y2="34.6078" gradientUnits="userSpaceOnUse">
<stop stop-color="#A1FFCE"/>
<stop offset="1" stop-color="#FAFFD1"/>
</linearGradient>
</defs>
</svg>
