<?xml version="1.0" encoding="UTF-8"?>
<svg id="Layer_2" data-name="Layer 2" xmlns="http://www.w3.org/2000/svg" viewBox="0 0 122.8 36.4">
  <defs>
    <style>
      .cls-1 {
        fill: #f9ae3b;
      }

      .cls-2 {
        fill: #fff;
      }
    </style>
  </defs>
  <g id="Layer_1-2" data-name="Layer 1">
    <g>
      <path class="cls-2" d="m122.7,12.7l-2.7,5.1c-3-1.6-6-2.5-8.3-2.5-1.8,0-3.1.6-3.1,1.9,0,3.9,14.3,1.9,14.2,11.1,0,5.3-4.9,8.1-11,8.1-4.4,0-8.7-1.3-11.7-3.6l2.5-5c2.8,2.1,6.4,3.2,9.4,3.2,2,0,3.4-.6,3.4-2,0-4.1-14-1.9-14-11,0-5.4,4.8-8.1,10.7-8.1,3.7-.1,7.6,1,10.6,2.8Zm-90.1-2.7c-7.2,0-13.1,5.8-13.2,12.9v.4c-.1,3.4-2.8,6.1-6.2,6.1s-6.2-2.8-6.2-6.2,2.8-6.2,6.2-6.2c1.6,0,3.1.6,4.2,1.6-.8-1.1-1.2-2.5-1.2-4s.4-2.8,1.2-4c-1.3-.4-2.7-.7-4.2-.7C5.9,9.9,0,15.8,0,23.1s5.9,13.2,13.2,13.2c3.8,0,7.3-1.6,9.7-4.3,2.4,2.6,5.9,4.3,9.7,4.3,7.3,0,13.2-5.9,13.2-13.2s-5.9-13.1-13.2-13.1Zm0,19.4c-3.4,0-6.1-2.7-6.2-6.1v-.3c.1-3.3,2.8-6,6.2-6s6.2,2.8,6.2,6.2-2.8,6.2-6.2,6.2Zm23.7-19.5h-7v26.4h7V9.9Zm40.6,0h-7v26.4h7V9.9Zm-15,.8c-3.1-1.6-7.4-1.1-13.2,1.6-.3.1-.6.3-.9.4v-2.9h-7v26.4h7v-15.5c.2-2.8,2.6-5,5.5-5s5.4,2.4,5.5,5.3v15.2h7v-18.1c0-4.4-2.1-6.4-3.9-7.4ZM52.8,0c-1.9,0-3.5,1.6-3.5,3.5s1.6,3.5,3.5,3.5,3.5-1.6,3.5-3.5-1.6-3.5-3.5-3.5Zm40.5,0c-1.9,0-3.5,1.6-3.5,3.5s1.6,3.5,3.5,3.5,3.5-1.6,3.5-3.5-1.6-3.5-3.5-3.5Z"/>
      <path class="cls-1" d="m17.92,17.8l-.5.8-.5-.8c-.6-1.1-1.6-2.1-2.7-2.7l-.8-.5.8-.5c1.1-.6,2.1-1.6,2.7-2.7l.5-.8.5.8c.6,1.1,1.6,2.1,2.7,2.7l.8.5-.8.5c-1.1.6-2.1,1.5-2.7,2.7Z"/>
    </g>
  </g>
</svg>