<?xml version="1.0" encoding="UTF-8"?>
<svg xmlns="http://www.w3.org/2000/svg" xmlns:xlink="http://www.w3.org/1999/xlink" viewBox="0 0 131.6761474609 27.6175853089">
  <defs>
    <style>
      .cls-1 {
        fill: #fff;
      }

      .cls-2, .cls-3, .cls-4 {
        isolation: isolate;
      }

      .cls-3 {
        fill: #f624a0;
      }

      .cls-3, .cls-4 {
        mix-blend-mode: multiply;
      }

      .cls-4 {
        fill: #f58000;
        opacity: .4099999964;
      }

      .cls-5 {
        fill: url(#_Безымянный_градиент);
      }
    </style>
    <linearGradient id="_Безымянный_градиент" data-name="Безымянный градиент" x1="-730.8588410829" y1="427.5457593567" x2="-729.857433698" y2="427.5457593567" gradientTransform="translate(24855.842159098 11821.5898132324) scale(34.009059906 -27.6175842285)" gradientUnits="userSpaceOnUse">
      <stop offset="0" stop-color="#ff9200"/>
      <stop offset=".29" stop-color="#f36d00"/>
      <stop offset=".32" stop-color="#f4680b"/>
      <stop offset=".57" stop-color="#f83c72"/>
      <stop offset=".78" stop-color="#fc1cbe"/>
      <stop offset=".93" stop-color="#fe08ed"/>
      <stop offset="1" stop-color="#f0f"/>
    </linearGradient>
  </defs>
  <g class="cls-2">
    <g id="_1" data-name="1">
      <g id="Group-5">
        <polygon id="Path" class="cls-1" points="45.6523246765 3.3436088562 48.9476776123 3.3436088562 48.9476776123 19.1998977661 54.628364563 19.1998977661 54.628364563 22.3297920227 45.6661148071 22.3297920227 45.6523246765 3.3436088562"/>
        <path id="Shape" class="cls-1" d="M62.2600669861,8.1004953384c1.745639801-.0218257904,3.4010353088.7739896774,4.47423172,2.1509408951v-1.8682851791h3.0747375488v13.9742174149h-3.0747375488v-1.8682842255c-1.0731964111,1.3769512177-2.7285919189,2.1727657318-4.47423172,2.1509399414-3.8330879211,0-6.7423706055-3.2746696472-6.7423706055-7.2732114792,0-3.9985427856,2.9092826843-7.2663173676,6.7423706055-7.2663173676ZM62.8184814453,10.8994760513c-2.4887466431,0-4.1364212036,1.957906723-4.1364212036,4.4673366547,0,2.5094308853,1.6752510071,4.4742307663,4.1364212036,4.4742307663,2.4611740112,0,4.1364212036-1.957906723,4.1364212036-4.4742307663s-1.6476745605-4.4673366547-4.1364212036-4.4673366547Z"/>
        <polygon id="Path-2" data-name="Path" class="cls-1" points="72.2012710571 19.9306659698 79.5296325684 11.175236702 72.3115768433 11.175236702 72.3115768433 8.3831510544 83.5006027222 8.3831510544 83.5006027222 10.8443231583 76.1998138428 19.5652828217 83.666053772 19.5652828217 83.666053772 22.3573684692 72.2012710571 22.3573684692 72.2012710571 19.9306659698"/>
        <path id="Shape-2" data-name="Shape" class="cls-1" d="M91.4838943481,8.1004953384c1.7456436157-.0218257904,3.4010391235.7739896774,4.4742355347,2.1509408951v-1.8682851791h3.0747375488v13.9742174149h-3.0747375488v-1.8682842255c-1.0731964111,1.3769512177-2.7285919189,2.1727657318-4.4742355347,2.1509399414-3.8330841064,0-6.7354736328-3.2746696472-6.7354736328-7.2732114792,0-3.9985427856,2.9023895264-7.2663173676,6.7354736328-7.2663173676ZM92.0423126221,10.8994760513c-2.4887466431,0-4.1364212036,1.957906723-4.1364212036,4.4673366547,0,2.5094308853,1.6752471924,4.4742307663,4.1364212036,4.4742307663s4.1364212036-1.957906723,4.1364212036-4.4742307663-1.6476745605-4.4673366547-4.1364212036-4.4673366547Z"/>
        <path id="Shape-3" data-name="Shape" class="cls-1" d="M107.8158721924,8.1004953384c1.7439422607-.0228843689,3.3976974487.7733650208,4.467338562,2.1509408951V2.2198805809h3.0747451782v20.1374878883h-3.0747451782v-1.8682842255c-1.0696411133,1.3775749207-2.7233963013,2.1738243103-4.467338562,2.1509399414-3.8330841064,0-6.7423706055-3.2746696472-6.7423706055-7.2732114792,0-3.9985427856,2.909286499-7.2663173676,6.7423706055-7.2663173676ZM108.3742904663,10.8994760513c-2.4887466431,0-4.1364212036,1.957906723-4.1364212036,4.4673366547,0,2.5094308853,1.682144165,4.4742307663,4.1364212036,4.4742307663s4.1364212036-1.957906723,4.1364212036-4.4742307663-1.6476745605-4.4673366547-4.1364212036-4.4673366547Z"/>
        <path id="Shape-4" data-name="Shape" class="cls-1" d="M124.1409606934,8.1004953384c1.7439422607-.0228843689,3.3976898193.7733650208,4.4673309326,2.1509408951v-1.8682851791h3.067855835v13.9742174149h-3.0816345215v-1.8682842255c-1.0696487427,1.3775749207-2.7233963013,2.1738243103-4.467338562,2.1509399414-3.8330917358,0-6.7423706055-3.2746696472-6.7423706055-7.2732114792,0-3.9985427856,2.9230728149-7.2663173676,6.7561569214-7.2663173676ZM124.6993789673,10.8994760513c-2.4887542725,0-4.136428833,1.957906723-4.136428833,4.4673366547,0,2.5094308853,1.682144165,4.4742307663,4.136428833,4.4742307663,2.4542770386,0,4.1364212036-1.957906723,4.1364212036-4.4742307663s-1.6476745605-4.4673366547-4.1364212036-4.4673366547Z"/>
        <path id="Path-3" data-name="Path" class="cls-5" d="M17.0282764435,27.6175537109c-.2415351868.0016345978-.4792690277-.0601768494-.6894035339-.1792793274-1.7993450165-1.0409984589-15.1255220175-9.3965740204-15.6287869215-9.6516532898-.3830004632-.1787509918-.6445312798-.5448951721-.689730363-.9651660919V5.101588726c-.0095839519-.4374771118.206685992-.8491716385.5725317169-1.089258194l.0965165496-.0551521778C1.9785891771,3.1574697495,6.2942576408.5239469409,6.97676754.1447748244c.1565976143-.09294191.3349609375-.1428837173.5170526505-.1447748244.1706953049.0019314665.3384785652.0444681086.4894766808.1240926981,0,0,6.0391783714,3.9364961386,6.9629797935,4.2880920172.6481904984.2977952957,1.3549852371.4462223053,2.0682115555.4343247414.8082294464.0168919563,1.6068115234-.1779999733,2.3163967133-.5653114319.9031200409-.4756884575,6.6734294891-4.1364232004,6.7354755402-4.1364232004.1454734802-.0878684931.3126468658-.1332439575.4825839996-.1309867464.1822319031.0008919686.3608531952.0509057604.5170516968.1447748207.7859210968.4343244433,6.1356945038,3.7089929581,6.363199234,3.8537676334h0c.3762397766.2270112038.6043701172.6360721588.5998497009,1.0754699707v11.7198662758c-.0422668457.4212837219-.3046455383.7886161804-.6894721985.9651660919-.5032653809.2757606506-13.7880783081,8.6313362122-15.6218929291,9.6516532898-.2087974548.123922348-.4466152191.1905117035-.6894035339.1930675507Z"/>
        <path id="Path-4" data-name="Path" class="cls-3" d="M16.9593353271,27.6175537109h.0689411163c.2415351868.0016345978.4792690277-.0601768494.6894035339-.1792793274,1.7993450165-1.0409984589,15.1186275482-9.3965740204,15.6218929291-9.6516532898.3848266602-.1765499115.6472053528-.54388237.6894798279-.9651660919V5.101588726c.0021209717-.1984090805-.0427703857-.3945102692-.131061554-.5722050667l-16.9386558533,9.3000583649v13.7881116867Z"/>
        <path id="Path-5" data-name="Path" class="cls-4" d="M0,16.8007736206c.0515572205.4279308319.327496469.7958488464.7238740921.9651641846.5032647848.275762558,13.8294420242,8.6313381195,15.6287870407,9.6516551971.1856002808.1059589386.3932914734.1673221588.6066741943.1792449951v-13.7880783081L.0758344308,4.6465821266c-.048411347.139770031-.0740167735.2864193916-.0758344308.4343247414v11.7198667526Z"/>
      </g>
    </g>
  </g>
</svg>