<?xml version="1.0" encoding="UTF-8"?>
<svg id="layer" xmlns="http://www.w3.org/2000/svg" viewBox="0 0 450 63.3800048828">
  <defs>
    <style>
      .cls-1 {
        fill: #fff;
      }
    </style>
  </defs>
  <path class="cls-1" d="M110.8099975586,41.6300048828l7.5800018311-15.1600036621,7.5800018311,15.1600036621h-15.1600036621ZM87.1800003052,62.4899902344h13.1299972534l4.8000030518-9.6000061035h26.6300048828l4.8000030518,9.6000061035h13.1300048828L118.5300140381.7399902344l-31.3500137329,61.75ZM98.4299926758.9700012207h-48.9099960327v11.1799926758h18.1599960327v50.2699890137h12.5299987793V12.1499786377h18.2299957275V.9700012207h-.0099945068ZM174.1300048828,27.9799957275h-9v-15.7599945068h9c6.6799926758,0,10.3500061035,2.7799987793,10.3500061035,7.8800048828.0099945068,5.0999908447-3.7400054932,7.879989624-10.3500061035,7.879989624M197.1699981689,19.8000030518c0-5.3999938965-1.8800048828-10.0500030518-5.6999969482-13.4300079346-3.75-3.5299987793-9.3000030518-5.3999938965-15.7599945068-5.3999938965h-23.1800079346v61.450012207h12.5299987793v-22.4299926758h8.8500061035l12.9799957275,22.4299926758h14.25l-14.5500030518-25.5100097656c9.2300109863-4.1300048828,10.5800018311-12.6100006104,10.5800018311-17.1100006104M257.4100036621.9700012207h-50.7900085449v11.1799926758h28.9599914551l-31.4400024414,50.2699890137h52.5899963379v-11.1799926758h-30.9100036621L257.4100036621.9700012207ZM27.4599990845,26.0299987793c-10.0499992371-2.3300018311-13.6500015259-4.0500030518-13.6500015259-8.6999969482,0-3.8999938965,3.6800003052-6.3800048828,8.8499984741-6.3800048828,8.1800003052,0,15.4599990845,5.6999969482,17.4800033569,7.2799987793l5.25-10.6499938965C38.8600006104,2.6300048828,31.4399986267,0,22.8099975586,0,10.2799987793,0,1.4300003052,7.4299926758,1.4300003052,18.2299957275c0,11.7799987793,7.5800018311,15.9099884033,20.7099990845,18.9099884033,10.9499969482,2.4800109863,12.9799957275,4.6499938965,12.9799957275,8.3299865723,0,4.200012207-3.75,6.8299865723-9.75,6.8299865723-7.2799987793,0-13.2799987793-2.7799987793-20.2600021362-9.1499938965L0,54.0800170898c7.1300010681,6.1499938965,15.9099998474,9.299987793,25.0599975586,9.299987793,13.5800018311,0,22.2799987793-7.2799987793,22.2799987793-18.9100036621-.0699996948-9.5199890137-5.6999969482-14.9199981689-19.8799972534-18.4400024414M266.6400146484.9700012207h20.2600097656c10.799987793,0,18.6099853516,6.6799926758,18.6099853516,17.9299926758s-8.0299987793,18.0799865723-18.6099853516,18.0799865723h-16.4299926758v25.5100097656h-3.75l-.0800170898-61.5199890137h0ZM286.6000061035,33.450012207c9,0,15.0100097656-5.3999938965,15.0100097656-14.5500030518,0-9.1499938965-6-14.3999938965-15.0100097656-14.3999938965h-16.3600158691v28.9600067139h16.3600158691v-.0100097656ZM318.6300048828.9700012207h3.75v57.9899902344h29.2600097656v3.5299987793h-33.0899963379V.9699859619h.0799865723v.0000152588ZM393.4299926758,41.1799926758h-26.0299987793l-8.0299987793,21.2300109863h-4.049987793L378.3500061035.9600067139h4.049987793l23.0299987793,61.4499969482h-4.049987793c-.0700073242.0799865723-7.950012207-21.2300109863-7.950012207-21.2300109863ZM380.3800048828,5.3899993896s-1.2799987793,4.8000030518-2.3299865723,7.4299926758l-9.450012207,24.9099884033h23.4800109863l-9.1499938965-24.9100036621c-1.049987793-2.6300048828-2.3299865723-7.4299926758-2.3299865723-7.4299926758h-.2200317383v.0000152588ZM425.5400085449,35.7799987793L404.5299987793.9700012207h4.3500061035l14.549987793,24.1600036621c1.7300109863,3.0800018311,3.75,6.9800109863,3.75,6.9800109863h.1499938965s1.8800048828-3.8999938965,3.75-6.9799957275l14.549987793-24.1600036621h4.3700256348l-20.7099914551,34.8100128174v26.6300048828h-3.75v-26.6300354004Z"/>
</svg>