<svg width="60" height="60" viewBox="0 0 60 60" fill="currentColor" xmlns="http://www.w3.org/2000/svg">
	<g>
		<g>
			<path id="Vector" d="M30 6.22484C37.7384 6.22484 38.6558 6.25033 41.7138 6.39476C44.5425 6.52219 46.08 6.99795 47.0993 7.39725C48.4499 7.92398 49.4183 8.55266 50.4291 9.56364C51.4399 10.5746 52.0685 11.5431 52.5952 12.894C52.9944 13.9134 53.4616 15.4511 53.5975 18.2802C53.7334 21.3387 53.7674 22.2562 53.7674 29.9958C53.7674 37.7353 53.7419 38.6529 53.5975 41.7113C53.4701 44.5404 52.9944 46.0781 52.5952 47.0975C52.0685 48.4484 51.4399 49.4169 50.4291 50.4279C49.4183 51.4388 48.4499 52.0675 47.0993 52.5943C46.08 52.9936 44.5425 53.4608 41.7138 53.5967C38.6558 53.7327 37.7384 53.7667 30 53.7667C22.2616 53.7667 21.3442 53.7412 18.2862 53.5967C15.4575 53.4693 13.92 52.9936 12.9007 52.5943C11.5501 52.0675 10.5817 51.4388 9.57088 50.4279C8.56005 49.4169 7.93146 48.4484 7.4048 47.0975C7.00556 46.0781 6.53837 44.5404 6.40246 41.7113C6.26655 38.6529 6.23257 37.7353 6.23257 29.9958C6.23257 22.2562 6.25805 21.3387 6.40246 18.2802C6.52988 15.4511 7.00556 13.9134 7.4048 12.894C7.93146 11.5431 8.56005 10.5746 9.57088 9.56364C10.5817 8.55266 11.5501 7.92398 12.9007 7.39725C13.92 6.99795 15.4575 6.53069 18.2862 6.39476C21.3442 6.25033 22.2616 6.22484 30 6.22484ZM30 1C22.1257 1 21.1403 1.03398 18.0483 1.17841C14.9648 1.32284 12.8582 1.80709 11.0064 2.52922C9.10369 3.25985 7.48125 4.25385 5.8758 5.86802C4.26186 7.4822 3.27651 9.09638 2.529 11.0079C1.81547 12.8515 1.32279 14.9584 1.17838 18.0508C1.03398 21.1433 1 22.1288 1 30.0042C1 37.8797 1.03398 38.8652 1.17838 41.9577C1.32279 45.0416 1.80697 47.1485 2.529 49.0006C3.26801 50.8951 4.26186 52.5178 5.8758 54.1235C7.48975 55.7377 9.10369 56.7232 11.0149 57.4708C12.8582 58.1844 14.9648 58.6772 18.0568 58.8216C21.1488 58.966 22.1342 59 30.0085 59C37.8828 59 38.8682 58.966 41.9602 58.8216C45.0436 58.6772 47.1503 58.1929 49.002 57.4708C50.8963 56.7317 52.5187 55.7377 54.1242 54.1235C55.7381 52.5093 56.7235 50.8951 57.471 48.9836C58.1845 47.14 58.6772 45.0331 58.8216 41.9407C58.966 38.8482 59 37.8628 59 29.9873C59 22.1118 58.966 21.1263 58.8216 18.0338C58.6772 14.9499 58.193 12.843 57.471 10.9909C56.732 9.09638 55.7381 7.47371 54.1242 5.86802C52.5103 4.25385 50.8963 3.26835 48.9851 2.52073C47.1418 1.80709 45.0351 1.31434 41.9432 1.16991C38.8597 1.03398 37.8743 1 30 1Z" fill="white" />
			<path id="Vector_2" d="M30.0001 15.1035C21.7775 15.1035 15.1094 21.7726 15.1094 29.9964C15.1094 38.2203 21.7775 44.8894 30.0001 44.8894C38.2227 44.8894 44.8909 38.2203 44.8909 29.9964C44.8909 21.7726 38.2227 15.1035 30.0001 15.1035ZM30.0001 39.6645C24.6656 39.6645 20.3335 35.3402 20.3335 29.9964C20.3335 24.6527 24.6656 20.3284 30.0001 20.3284C35.3346 20.3284 39.6668 24.6527 39.6668 29.9964C39.6668 35.3402 35.3346 39.6645 30.0001 39.6645Z" fill="white" />
			<path id="Vector_3" d="M45.4769 18.0016C47.4003 18.0016 48.9596 16.4421 48.9596 14.5184C48.9596 12.5947 47.4003 11.0352 45.4769 11.0352C43.5534 11.0352 41.9941 12.5947 41.9941 14.5184C41.9941 16.4421 43.5534 18.0016 45.4769 18.0016Z" fill="white" />
		</g>
	</g>
</svg>
