<svg width="228" height="228" viewBox="0 0 228 228" fill="none" xmlns="http://www.w3.org/2000/svg">
	<g id="1">
		<g id="Vector">
			<path d="M101.169 80.3987C98.4757 82.7305 96.1711 85.4078 94.3325 88.3182C91.3546 93.0336 84.1472 89.2596 86.2706 84.1123C87.6172 80.8565 89.4989 77.782 91.8726 75.0874C109.119 53.8509 140.297 55.1722 161.531 67.7898C138.311 53.1859 104.483 53.8509 86.5726 77.0824C80.5994 85.0451 77.2849 94.3377 78.6142 104.295C79.2356 110.522 81.6094 116.3 85.321 120.963C88.6356 125.135 83.1287 130.653 78.925 127.38C72.2181 122.155 67.3496 113.968 66.0117 105.617C64.3631 92.8177 67.3325 79.7683 74.1257 69.1716C66.4089 80.1742 62.5678 93.6209 64.6912 107.612C67.3412 122.881 77.9581 136.154 92.5543 140.136C97.5262 141.241 102.498 141.198 107.142 140.049C112.546 138.711 115.161 146.475 110.042 148.668C109.965 148.703 109.887 148.738 109.801 148.772C100.513 152.753 89.8959 152.753 80.6081 148.772C65.1918 142.493 54.7043 129.323 50 113.925C50.1295 114.408 50.2676 114.901 50.4229 115.419C55.4035 131.517 66.6763 146.121 83.2579 152.088C97.1896 156.735 113.107 154.74 125.053 144.791C129.749 140.714 132.968 135.014 134.082 129.012C135.074 123.649 143.059 124.409 143.119 129.859C143.205 137.761 140.305 146.216 135.67 152.088C122.403 168.014 100.513 171.339 81.2728 168.014C104.423 173.308 131.535 166.062 143.533 144.298C143.603 144.178 143.663 144.057 143.723 143.927C148.954 132.665 149.558 118.174 140.987 107.612C138.959 105.168 136.671 103.103 134.203 101.428C129.8 98.4485 133.141 91.5741 138.165 93.3013C147.176 96.3845 154.979 103.863 158.233 112.923C166.192 133.495 158.233 155.405 142.973 170C162.213 153.41 170.171 124.202 154.91 100.97C147.901 89.9073 135.161 84.1642 123.171 84.8982C117.466 85.2523 116.335 77.0392 121.937 75.8647C126.9 74.8197 132.122 74.7679 136.999 75.7438C160.84 80.511 176.101 101.886 178 124.47C177.059 112.007 172.467 100.159 164.198 89.6827C148.937 71.0975 120.418 64.4648 101.177 80.3901L101.169 80.3987Z" fill="white" />
		</g>
	</g>
</svg>
