<svg viewBox="0 0 228 228" fill="none" xmlns="http://www.w3.org/2000/svg">
	<g id="17">
		<g>
			<path id="Vector" d="M96.0557 76.648C96.0557 61.3915 108.447 49 123.704 49C138.96 49 151.352 61.3915 151.352 76.648H96.0557Z" fill="white" />
			<path id="Vector_2" d="M114.464 76.6465H96.0557V95.0544H114.464V76.6465Z" fill="white" />
			<path id="Vector_3" d="M151.281 76.6465H132.873V95.0544H151.281V76.6465Z" fill="white" />
			<path id="Vector_4" d="M151.281 95.0547C166.537 95.0547 178.929 107.447 178.929 122.703C178.929 137.96 166.537 150.351 151.281 150.351V95.0547Z" fill="white" />
			<path id="Vector_5" d="M151.321 113.473V95.0645H132.913V113.473H151.321Z" fill="white" />
			<path id="Vector_6" d="M151.27 150.31V131.902H132.862V150.31H151.27Z" fill="white" />
			<path id="Vector_7" d="M132.873 150.354C132.873 165.61 120.482 178.001 105.225 178.001C89.9687 178.001 77.5771 165.61 77.5771 150.354H132.873Z" fill="white" />
			<path id="Vector_8" d="M114.475 150.299H132.883V131.891H114.475V150.299Z" fill="white" />
			<path id="Vector_9" d="M77.6183 150.299H96.0264V131.891H77.6183V150.299Z" fill="white" />
			<path id="Vector_10" d="M77.648 131.942C62.3915 131.942 50 119.551 50 104.295C50 89.038 62.3915 76.6465 77.648 76.6465V131.942Z" fill="white" />
			<path id="Vector_11" d="M77.5977 113.483V131.891H96.0059V113.483H77.5977Z" fill="white" />
			<path id="Vector_12" d="M77.6187 76.6466V95.0547H96.0265V76.6466H77.6187Z" fill="white" />
		</g>
	</g>
</svg>
