<svg width="228" height="228" viewBox="0 0 228 228" fill="none" xmlns="http://www.w3.org/2000/svg">
	<g id="33">
		<g id="Group">
			<path id="Vector" d="M141.241 98.7719H87.1553C90.2214 93.6823 94.2073 88.5315 99.113 83.6871C115.792 67.0076 136.09 60.2012 144.43 68.6022C150.316 74.4278 148.661 86.385 141.241 98.7719Z" stroke="white" stroke-width="3" stroke-miterlimit="10" />
			<path id="Vector_2" d="M87.1549 98.7732L114.198 145.623C108.25 145.501 101.811 144.642 95.1267 142.864C72.3151 136.732 56.3103 122.566 59.3763 111.16C61.5226 103.005 72.683 98.528 87.1549 98.7732Z" stroke="white" stroke-width="3" stroke-miterlimit="10" />
			<path id="Vector_3" d="M114.198 145.561L141.241 98.7109C144.123 103.923 146.576 109.994 148.354 116.617C154.487 139.429 150.194 160.4 138.788 163.466C130.694 165.613 121.189 158.193 114.198 145.561Z" stroke="white" stroke-width="3" stroke-miterlimit="10" />
			<path id="Vector_4" d="M87.1546 98.7719H141.24C138.174 93.6823 134.188 88.5315 129.283 83.6871C112.603 67.0076 92.3058 60.2012 83.966 68.6022C78.0792 74.4278 79.7347 86.385 87.1546 98.7719Z" stroke="white" stroke-width="3" stroke-miterlimit="10" />
			<path id="Vector_5" d="M141.241 98.7732L114.198 145.623C120.146 145.501 126.585 144.642 133.269 142.864C156.081 136.732 172.086 122.566 169.02 111.16C166.873 103.005 155.713 98.528 141.241 98.7732Z" stroke="white" stroke-width="3" stroke-miterlimit="10" />
			<path id="Vector_6" d="M114.197 145.561L87.1546 98.7109C84.2725 103.923 81.8196 109.994 80.0412 116.617C73.9091 139.429 78.2017 160.4 89.6075 163.466C97.7019 165.613 107.207 158.193 114.197 145.561Z" stroke="white" stroke-width="3" stroke-miterlimit="10" />
		</g>
	</g>
</svg>
