<svg width="228" height="228" viewBox="0 0 228 228" fill="none" xmlns="http://www.w3.org/2000/svg">
	<g id="23">
		<g id="Group">
			<path id="Vector" d="M113.7 80.8V59H91.9V80.8C91.9 86.795 86.995 91.7 81 91.7V113.5C99.0456 113.5 113.7 98.8456 113.7 80.8Z" fill="white" />
			<path id="Vector_2" d="M113.7 80.8V59H135.5V80.8C135.5 86.795 140.405 91.7 146.4 91.7V113.5C128.355 113.5 113.7 98.8456 113.7 80.8Z" fill="white" />
			<path id="Vector_3" d="M113.7 146.2V168H91.9V146.2C91.9 140.205 86.995 135.3 81 135.3V113.5C99.0456 113.5 113.7 128.094 113.7 146.2Z" fill="white" />
			<path id="Vector_4" d="M113.7 146.2V168H135.5V146.2C135.5 140.205 140.405 135.3 146.4 135.3V113.5C128.355 113.5 113.7 128.094 113.7 146.2Z" fill="white" />
		</g>
	</g>
</svg>
