<svg viewBox="0 0 228 228" fill="none" xmlns="http://www.w3.org/2000/svg">
	<g id="15">
		<g>
			<path id="Vector" d="M92.6665 71.8711C92.6665 83.371 102 92.7043 113.5 92.7043H155.166C143.666 92.7043 134.333 83.371 134.333 71.8711" fill="white" />
			<path id="Vector_2" d="M134.296 71.8332V51L92.6294 51V71.8332H134.296Z" fill="white" />
			<path id="Vector_3" d="M134.334 155.202C134.334 143.702 125 134.369 113.5 134.369H71.834C83.3339 134.369 92.6672 143.702 92.6672 155.202" fill="white" />
			<path id="Vector_4" d="M92.7041 155.169V176.002H134.371V155.169H92.7041Z" fill="white" />
			<path id="Vector_5" d="M155.167 92.707C143.667 92.707 134.333 102.04 134.333 113.54V155.207C134.333 143.707 143.667 134.374 155.167 134.374" fill="white" />
			<path id="Vector_6" d="M155.168 134.297H176.001V92.6304H155.168V134.297Z" fill="white" />
			<path id="Vector_7" d="M71.834 134.371C83.3339 134.371 92.6672 125.038 92.6672 113.538V71.8711C92.6672 83.371 83.3339 92.7043 71.834 92.7043" fill="white" />
			<path id="Vector_8" d="M71.8332 92.707H51V134.374H71.8332V92.707Z" fill="white" />
		</g>
	</g>
</svg>
