<svg width="228" height="228" viewBox="0 0 228 228" fill="none" xmlns="http://www.w3.org/2000/svg">
	<g id="25">
		<g id="Group">
			<path id="Vector" d="M127.375 85.75V58H155.125V85.75C155.125 93.3967 161.353 99.625 169 99.625V127.375C145.998 127.375 127.375 108.69 127.375 85.75Z" fill="white" />
			<path id="Vector_2" d="M85.75 99.625H58V71.875H85.75C93.3967 71.875 99.625 65.6467 99.625 58H127.375C127.375 80.94 108.752 99.625 85.75 99.625Z" fill="white" />
			<path id="Vector_3" d="M99.625 141.25V169H71.875V141.25C71.875 133.603 65.6467 127.375 58 127.375V99.625C81.0017 99.625 99.625 118.248 99.625 141.25Z" fill="white" />
			<path id="Vector_4" d="M141.25 127.375H169V155.125H141.25C133.603 155.125 127.375 161.353 127.375 169H99.625C99.625 145.998 118.248 127.375 141.25 127.375Z" fill="white" />
		</g>
	</g>
</svg>
