<svg width="232" height="232" viewBox="0 0 232 232" fill="none" xmlns="http://www.w3.org/2000/svg">
	<g id="6">
		<g id="Group">
			<path id="Vector" d="M126.527 141.238H105.608V183.001H126.527V141.238Z" fill="white" />
			<path id="Vector_2" d="M126.527 49H105.608V90.7631H126.527V49Z" fill="white" />
			<path id="Vector_3" d="M141.217 105.536V126.455H182.98V105.536H141.217Z" fill="white" />
			<path id="Vector_4" d="M49 105.548V126.467H90.7631V105.548H49Z" fill="white" />
			<path id="Vector_5" d="M141.256 126.392L126.464 141.184L155.995 170.714L170.787 155.923L141.256 126.392Z" fill="white" />
			<path id="Vector_6" d="M76.0431 61.1869L61.2515 75.9785L90.7821 105.509L105.574 90.7176L76.0431 61.1869Z" fill="white" />
			<path id="Vector_7" d="M126.412 90.7747L141.204 105.566L170.735 76.0357L155.943 61.2441L126.412 90.7747Z" fill="white" />
			<path id="Vector_8" d="M61.2128 155.984L76.0044 170.775L105.535 141.245L90.7434 126.453L61.2128 155.984Z" fill="white" />
		</g>
	</g>
</svg>
