<svg width="105" height="106" viewBox="0 0 105 106" fill="none" xmlns="http://www.w3.org/2000/svg">
	<g filter="url(#filter0_dd_806_2719)">
		<path fill-rule="evenodd" clip-rule="evenodd" d="M48.7971 23.1778C40.2052 24.2762 32.3494 29.1927 27.5165 36.4958C25.2839 39.8696 23.6622 44.043 22.9051 48.363C22.5673 50.2903 22.57 55.7197 22.9098 57.605C24.1289 64.3716 26.9942 69.8902 31.6564 74.4508C34.069 76.8109 36.3446 78.4167 39.4147 79.925C43.3936 81.8799 47.054 82.7997 51.4778 82.956C56.8248 83.1451 61.541 82.1199 66.1948 79.7571C69.0256 78.3199 71.0857 76.8497 73.3761 74.6327C76.1124 71.9841 77.9656 69.4548 79.5674 66.1827C83.743 57.6535 83.6782 47.8398 79.3905 39.396C74.767 30.2911 65.8793 24.1839 55.6715 23.0976C53.9058 22.9097 50.591 22.9483 48.7971 23.1778ZM49.3332 27.4481C48.6697 27.5426 47.8752 27.6638 47.5677 27.7174L47.0084 27.8151L46.175 29.6424C45.2209 31.7344 44.0611 35.1447 43.6445 37.0834C43.488 37.812 43.377 38.4252 43.3978 38.4461C43.4187 38.4668 44.2801 38.3996 45.3122 38.2962C49.5872 37.8685 56.0013 37.9092 60.3611 38.3914C61.1187 38.4753 61.7733 38.5089 61.8161 38.4663C61.9484 38.3339 60.9333 34.5053 60.2988 32.7431C59.9669 31.8217 59.348 30.3385 58.9233 29.4473L58.1512 27.8266L57.361 27.6756C54.9813 27.2203 51.6058 27.1247 49.3332 27.4481ZM40.2859 30.479C36.0015 32.8089 31.9633 36.9337 29.853 41.1357L29.5757 41.6878L31.128 41.162C33.0914 40.4971 34.6526 40.0714 36.9121 39.5848C37.8946 39.3731 38.7292 39.1693 38.7669 39.1317C38.8044 39.0941 39.0099 38.2393 39.2234 37.2321C39.6576 35.184 40.211 33.1853 40.8838 31.2353C41.1318 30.5167 41.3249 29.9293 41.3129 29.9304C41.301 29.9315 40.8388 30.1784 40.2859 30.479ZM63.8759 30.051C63.8759 30.1257 63.9984 30.4975 64.1481 30.8773C64.5975 32.0173 65.5734 35.5162 65.9595 37.371C66.1584 38.327 66.3365 39.1271 66.3551 39.1485C66.3739 39.1701 67.1055 39.3359 67.9808 39.5171C69.9585 39.9263 72.6573 40.6701 74.3224 41.2649C75.0183 41.5135 75.6045 41.6998 75.6255 41.6789C75.6464 41.6581 75.3484 41.0854 74.9635 40.4063C72.952 36.8581 70.1215 33.827 66.7576 31.6189C65.2947 30.6586 63.8759 29.8867 63.8759 30.051ZM48.4247 42.4044C46.8958 42.4919 42.6803 42.9067 42.6121 42.9763C42.5109 43.0795 42.1308 47.4096 42.0065 49.8746C41.8871 52.2438 41.8871 53.7184 42.0065 56.0876C42.1309 58.5529 42.511 62.8846 42.6121 62.9855C42.713 63.0866 47.045 63.4667 49.5104 63.591C51.8797 63.7105 53.3544 63.7105 55.7237 63.591C58.1891 63.4667 62.5211 63.0866 62.622 62.9855C62.7231 62.8846 63.1032 58.5529 63.2276 56.0876C63.347 53.7184 63.347 52.2438 63.2276 49.8746C63.1016 47.3764 62.7237 43.089 62.6191 42.9708C62.6067 42.9569 61.7233 42.8506 60.6561 42.7346C56.5276 42.2861 52.4264 42.1754 48.4247 42.4044ZM35.7958 44.2608C34.69 44.5459 33.0916 45.0333 32.2439 45.3439C30.1732 46.1026 27.5749 47.3386 27.4905 47.6052C27.3222 48.1359 27.0216 50.5811 26.9406 52.0779C26.8542 53.6736 26.9901 55.7509 27.3085 57.6963L27.4548 58.5919L29.2429 59.4065C31.3288 60.3568 34.8278 61.5493 36.7185 61.954C37.4471 62.1101 38.0606 62.2204 38.0819 62.199C38.103 62.1779 38.0248 61.2562 37.9078 60.1508C37.641 57.6307 37.6014 49.2597 37.845 46.9311C37.9348 46.0731 38.0469 45.0026 38.0939 44.5522C38.1621 43.8996 38.1416 43.7342 37.9929 43.738C37.8903 43.7405 36.9016 43.9757 35.7958 44.2608ZM67.1441 44.2221C67.6116 47.257 67.7157 56.4336 67.3249 60.1508C67.2087 61.2562 67.1311 62.1779 67.1522 62.199C67.1735 62.2204 67.787 62.1096 68.5156 61.9531C70.4224 61.5434 73.8407 60.3807 75.9504 59.4243L77.7712 58.5987L77.9233 57.7668C78.2695 55.8729 78.3851 54.1994 78.3134 52.1172C78.2364 49.8836 77.8968 47.4911 77.6326 47.3209C77.5488 47.2669 76.748 46.8919 75.8529 46.4875C73.3406 45.3524 70.1002 44.3061 67.5143 43.7947L67.0646 43.7058L67.1441 44.2221ZM29.9053 64.9286C30.354 65.8207 31.5444 67.6636 32.3604 68.7292C34.3609 71.3421 37.8509 74.2499 40.7792 75.7438L41.339 76.0294L40.8735 74.6577C40.2197 72.7306 39.5514 70.3138 39.2159 68.6622C38.8178 66.7029 38.8176 66.7022 38.0514 66.5938C36.4952 66.3736 31.2853 64.9288 29.7212 64.2837C29.6153 64.24 29.6892 64.4992 29.9053 64.9286ZM74.5986 64.6008C73.2616 65.1085 69.8872 66.0538 68.1153 66.417C67.1624 66.6123 66.4845 66.8188 66.4251 66.9321C66.3705 67.0359 66.2534 67.5129 66.1647 67.9921C65.8879 69.4861 65.0872 72.4785 64.4792 74.2908L63.8967 76.0276L64.5899 75.6792C67.9747 73.9774 71.6058 70.7036 73.9161 67.2706C74.7061 66.0967 75.7354 64.2338 75.5824 64.2546C75.5205 64.2631 75.0778 64.4188 74.5986 64.6008ZM43.3687 67.5667C43.3687 67.6491 43.6046 68.6381 43.893 69.7642C44.59 72.4858 45.5254 75.0109 46.6927 77.3215C47.1053 78.1381 47.1082 78.1406 47.8847 78.2907C50.499 78.7958 54.4187 78.8317 56.9332 78.3738L58.2336 78.1368L59.0599 76.3146C60.0171 74.2037 61.1798 70.786 61.5896 68.8788C61.7461 68.1502 61.8568 67.5368 61.8355 67.5155C61.8143 67.4943 60.8926 67.5716 59.7872 67.6874C57.2357 67.9549 49.1107 67.9957 46.8536 67.7524C43.9318 67.4376 43.3687 67.4076 43.3687 67.5667Z" fill="white" />
	</g>
	<defs>
		<filter id="filter0_dd_806_2719" x="0.536209" y="0.860916" width="104.234" height="104.234" filterUnits="userSpaceOnUse" color-interpolation-filters="sRGB">
			<feFlood flood-opacity="0" result="BackgroundImageFix" />
			<feColorMatrix in="SourceAlpha" type="matrix" values="0 0 0 0 0 0 0 0 0 0 0 0 0 0 0 0 0 0 127 0" result="hardAlpha" />
			<feOffset />
			<feGaussianBlur stdDeviation="11.0586" />
			<feComposite in2="hardAlpha" operator="out" />
			<feColorMatrix type="matrix" values="0 0 0 0 1 0 0 0 0 1 0 0 0 0 1 0 0 0 0.3 0" />
			<feBlend mode="normal" in2="BackgroundImageFix" result="effect1_dropShadow_806_2719" />
			<feColorMatrix in="SourceAlpha" type="matrix" values="0 0 0 0 0 0 0 0 0 0 0 0 0 0 0 0 0 0 127 0" result="hardAlpha" />
			<feMorphology radius="16" operator="erode" in="SourceAlpha" result="effect2_dropShadow_806_2719" />
			<feOffset />
			<feGaussianBlur stdDeviation="6.35" />
			<feComposite in2="hardAlpha" operator="out" />
			<feColorMatrix type="matrix" values="0 0 0 0 0.93003 0 0 0 0 0.966832 0 0 0 0 0.999284 0 0 0 0.5 0" />
			<feBlend mode="normal" in2="effect1_dropShadow_806_2719" result="effect2_dropShadow_806_2719" />
			<feBlend mode="normal" in="SourceGraphic" in2="effect2_dropShadow_806_2719" result="shape" />
		</filter>
	</defs>
</svg>
