<svg width="162" height="108" viewBox="0 0 162 108" fill="none" xmlns="http://www.w3.org/2000/svg">
<g id="Frame 2131328288">
<g id="Subtract" filter="url(#filter0_dd_806_2741)">
<path fill-rule="evenodd" clip-rule="evenodd" d="M31.3169 16.978C23.2184 16.978 16.6533 23.5431 16.6533 31.6416V63.9015C16.6533 71.9999 23.2184 78.565 31.3169 78.565H84.3364C92.4349 78.565 99 71.9999 99 63.9015V31.6416C99 23.5431 92.4349 16.978 84.3364 16.978H31.3169ZM28.6396 57.9844C30.1981 58.8297 31.981 59.2523 33.9885 59.2523C35.5469 59.2523 36.9601 58.9618 38.2279 58.3806C39.4958 57.7995 40.5656 57.0071 41.4373 56.0034C42.3089 54.9996 42.9297 53.877 43.2995 52.6356H37.8317C37.5148 53.2959 37.0261 53.8374 36.3658 54.26C35.7318 54.6827 34.9262 54.894 33.9489 54.894C32.9715 54.894 32.1131 54.6827 31.3735 54.26C30.6339 53.811 30.0528 53.1903 29.6301 52.3978C29.3031 51.7218 29.111 50.9558 29.0539 50.0998H43.7749C43.8277 49.7564 43.8542 49.4263 43.8542 49.1093V48.198C43.8542 46.3226 43.4447 44.6453 42.6259 43.1661C41.8071 41.6869 40.658 40.5115 39.1789 39.6398C37.6997 38.7682 35.9695 38.3323 33.9885 38.3323C31.9546 38.3323 30.1716 38.7946 28.6396 39.7191C27.1076 40.6171 25.9058 41.8718 25.0341 43.4831C24.1888 45.0679 23.7662 46.9037 23.7662 48.9904C23.7662 51.0243 24.1888 52.8205 25.0341 54.3789C25.9058 55.9109 27.1076 57.1128 28.6396 57.9844ZM29.1531 46.8509C29.2567 46.2232 29.4289 45.6686 29.6698 45.1868C30.1188 44.3415 30.7263 43.7208 31.4923 43.3246C32.2584 42.902 33.0904 42.6907 33.9885 42.6907C35.2299 42.6907 36.2601 43.0605 37.0789 43.8C37.9242 44.5396 38.3864 45.5566 38.4657 46.8509H29.1531ZM46.6499 38.8078V58.7769H51.9988V48.1188C51.9988 47.0094 52.1969 46.0717 52.5931 45.3057C52.9893 44.5132 53.5308 43.9057 54.2176 43.4831C54.9307 43.0605 55.7364 42.8491 56.6345 42.8491C58.0344 42.8491 59.0646 43.2718 59.7249 44.117C60.4117 44.9623 60.7551 46.1773 60.7551 47.7622V58.7769H66.0643V47.2471C66.0643 45.3189 65.7605 43.6944 65.153 42.3737C64.5719 41.053 63.7134 40.0492 62.5776 39.3625C61.4418 38.6757 60.0419 38.3323 58.3778 38.3323C56.8194 38.3323 55.4722 38.6757 54.3364 39.3625C53.227 40.0492 52.3686 40.9473 51.7611 42.0567L51.3648 38.8078H46.6499ZM73.1243 67.2558C74.5507 67.7312 76.2147 67.969 78.1166 67.969C80.1769 67.969 81.8806 67.6388 83.2277 66.9784C84.5748 66.3445 85.5653 65.4992 86.1993 64.4427C86.8596 63.4125 87.1898 62.3031 87.1898 61.1145C87.1898 59.8995 86.9257 58.8825 86.3974 58.0637C85.8691 57.2184 85.0371 56.5449 83.9013 56.043C82.7919 55.5411 81.3655 55.2109 79.6222 55.0525C78.5656 54.9732 77.6939 54.8808 77.0072 54.7751C76.3204 54.6695 75.7657 54.5638 75.3431 54.4581C74.9205 54.3261 74.5639 54.194 74.2733 54.0619C74.2396 54.0417 74.2056 54.0214 74.1714 54.0012L75.6028 52.5925C76.3744 52.7797 77.2124 52.8733 78.1166 52.8733C79.8071 52.8733 81.2466 52.5563 82.4353 51.9224C83.6503 51.262 84.5748 50.3904 85.2088 49.3074C85.8427 48.198 86.1597 46.9697 86.1597 45.6226C86.1597 44.3962 85.897 43.2793 85.3715 42.2718L88.7747 41.9775V38.8078H81.2689C80.3386 38.4908 79.2878 38.3323 78.1166 38.3323C76.4525 38.3323 75.0129 38.6625 73.7979 39.3229C72.6092 39.9832 71.6847 40.8681 71.0244 41.9775C70.3904 43.0605 70.0735 44.2755 70.0735 45.6226C70.0735 46.9697 70.3904 48.198 71.0244 49.3074C71.3809 49.8921 71.8144 50.4152 72.325 50.8767L68.8452 54.6166V55.5279C69.1886 55.8713 69.6244 56.2147 70.1527 56.5581C70.4492 56.7416 70.7797 56.9176 71.1441 57.0861C70.3803 57.6919 69.7857 58.3611 69.3603 59.0938C68.8848 59.9127 68.6471 60.7843 68.6471 61.7088C68.6471 63.0824 69.0301 64.2314 69.7961 65.1559C70.5885 66.1068 71.6979 66.8067 73.1243 67.2558ZM74.2337 59.2127C74.5466 58.8849 74.9646 58.5865 75.4877 58.3175C76.398 58.4577 77.4064 58.5712 78.5128 58.658C80.0184 58.7636 81.0221 59.041 81.524 59.49C82.0259 59.9391 82.2768 60.5202 82.2768 61.2334C82.2768 61.7881 82.0919 62.2635 81.7221 62.6597C81.3787 63.0824 80.89 63.3993 80.2561 63.6106C79.6486 63.822 78.9222 63.9276 78.0769 63.9276C77.2053 63.9276 76.4129 63.822 75.6997 63.6106C75.0129 63.4257 74.4582 63.122 74.0356 62.6994C73.6394 62.2767 73.4413 61.7617 73.4413 61.1541C73.4413 60.4674 73.7054 59.8202 74.2337 59.2127ZM80.6127 47.9999C79.9788 48.5282 79.1467 48.7923 78.1166 48.7923C77.1128 48.7923 76.2808 48.5282 75.6204 47.9999C74.9865 47.4716 74.6695 46.6924 74.6695 45.6622C74.6695 44.6321 74.9865 43.8529 75.6204 43.3246C76.2808 42.7699 77.1128 42.4926 78.1166 42.4926C79.1467 42.4926 79.9788 42.7699 80.6127 43.3246C81.2466 43.8529 81.5636 44.6321 81.5636 45.6622C81.5636 46.6924 81.2466 47.4716 80.6127 47.9999Z" fill="white"/>
</g>
</g>
<defs>
<filter id="filter0_dd_806_2741" x="0.437525" y="0.762232" width="114.778" height="94.0185" filterUnits="userSpaceOnUse" color-interpolation-filters="sRGB">
<feFlood flood-opacity="0" result="BackgroundImageFix"/>
<feColorMatrix in="SourceAlpha" type="matrix" values="0 0 0 0 0 0 0 0 0 0 0 0 0 0 0 0 0 0 127 0" result="hardAlpha"/>
<feOffset/>
<feGaussianBlur stdDeviation="8.1079"/>
<feComposite in2="hardAlpha" operator="out"/>
<feColorMatrix type="matrix" values="0 0 0 0 1 0 0 0 0 1 0 0 0 0 1 0 0 0 0.3 0"/>
<feBlend mode="normal" in2="BackgroundImageFix" result="effect1_dropShadow_806_2741"/>
<feColorMatrix in="SourceAlpha" type="matrix" values="0 0 0 0 0 0 0 0 0 0 0 0 0 0 0 0 0 0 127 0" result="hardAlpha"/>
<feMorphology radius="11.7309" operator="erode" in="SourceAlpha" result="effect2_dropShadow_806_2741"/>
<feOffset/>
<feGaussianBlur stdDeviation="4.65568"/>
<feComposite in2="hardAlpha" operator="out"/>
<feColorMatrix type="matrix" values="0 0 0 0 0.93003 0 0 0 0 0.966832 0 0 0 0 0.999284 0 0 0 0.5 0"/>
<feBlend mode="normal" in2="effect1_dropShadow_806_2741" result="effect2_dropShadow_806_2741"/>
<feBlend mode="normal" in="SourceGraphic" in2="effect2_dropShadow_806_2741" result="shape"/>
</filter>
</defs>
</svg>
