<svg width="82" height="105" viewBox="0 0 82 105" fill="none" xmlns="http://www.w3.org/2000/svg">
<g id="Group" filter="url(#filter0_dd_806_2728)">
<path id="Vector" d="M41 34.3237V22.3237H29V34.3237C29 37.6237 26.3 40.3237 23 40.3237V52.3237C32.9333 52.3237 41 44.2571 41 34.3237Z" fill="white"/>
<path id="Vector_2" d="M41 34.3237V22.3237H53V34.3237C53 37.6237 55.7 40.3237 59 40.3237V52.3237C49.0667 52.3237 41 44.2571 41 34.3237Z" fill="white"/>
<path id="Vector_3" d="M41 70.3237V82.3237H29V70.3237C29 67.0237 26.3 64.3237 23 64.3237V52.3237C32.9333 52.3237 41 60.3571 41 70.3237Z" fill="white"/>
<path id="Vector_4" d="M41 70.3237V82.3237H53V70.3237C53 67.0237 55.7 64.3237 59 64.3237V52.3237C49.0667 52.3237 41 60.3571 41 70.3237Z" fill="white"/>
</g>
<defs>
<filter id="filter0_dd_806_2728" x="0.882889" y="0.206619" width="80.2342" height="104.234" filterUnits="userSpaceOnUse" color-interpolation-filters="sRGB">
<feFlood flood-opacity="0" result="BackgroundImageFix"/>
<feColorMatrix in="SourceAlpha" type="matrix" values="0 0 0 0 0 0 0 0 0 0 0 0 0 0 0 0 0 0 127 0" result="hardAlpha"/>
<feOffset/>
<feGaussianBlur stdDeviation="11.0586"/>
<feComposite in2="hardAlpha" operator="out"/>
<feColorMatrix type="matrix" values="0 0 0 0 1 0 0 0 0 1 0 0 0 0 1 0 0 0 0.3 0"/>
<feBlend mode="normal" in2="BackgroundImageFix" result="effect1_dropShadow_806_2728"/>
<feColorMatrix in="SourceAlpha" type="matrix" values="0 0 0 0 0 0 0 0 0 0 0 0 0 0 0 0 0 0 127 0" result="hardAlpha"/>
<feMorphology radius="16" operator="erode" in="SourceAlpha" result="effect2_dropShadow_806_2728"/>
<feOffset/>
<feGaussianBlur stdDeviation="6.35"/>
<feComposite in2="hardAlpha" operator="out"/>
<feColorMatrix type="matrix" values="0 0 0 0 0.93003 0 0 0 0 0.966832 0 0 0 0 0.999284 0 0 0 0.5 0"/>
<feBlend mode="normal" in2="effect1_dropShadow_806_2728" result="effect2_dropShadow_806_2728"/>
<feBlend mode="normal" in="SourceGraphic" in2="effect2_dropShadow_806_2728" result="shape"/>
</filter>
</defs>
</svg>
