<svg width="194" height="158" viewBox="0 0 194 158" fill="none" xmlns="http://www.w3.org/2000/svg">
<g id="Frame 2131328291">
<g id="Group" filter="url(#filter0_dd_806_2773)">
<path id="Vector" d="M72.1551 108.821C75.8398 108.821 78.8268 105.834 78.8268 102.15C78.8268 98.465 75.8398 95.478 72.1551 95.478C68.4705 95.478 65.4834 98.465 65.4834 102.15C65.4834 105.834 68.4705 108.821 72.1551 108.821Z" fill="white"/>
<path id="Vector_2" d="M85.4978 108.821C89.1825 108.821 92.1695 105.834 92.1695 102.15C92.1695 98.465 89.1825 95.478 85.4978 95.478C81.8131 95.478 78.8262 98.465 78.8262 102.15C78.8262 105.834 81.8131 108.821 85.4978 108.821Z" fill="white"/>
<path id="Vector_3" d="M96.7634 101.581C100.448 101.581 103.435 98.5941 103.435 94.9094C103.435 91.2248 100.448 88.2378 96.7634 88.2378C93.0788 88.2378 90.0918 91.2248 90.0918 94.9094C90.0918 98.5941 93.0788 101.581 96.7634 101.581Z" fill="white"/>
<path id="Vector_4" d="M102.328 89.4111C106.013 89.4111 109 86.4242 109 82.7395C109 79.0548 106.013 76.0679 102.328 76.0679C98.6433 76.0679 95.6562 79.0548 95.6562 82.7395C95.6562 86.4242 98.6433 89.4111 102.328 89.4111Z" fill="white"/>
<path id="Vector_5" d="M100.417 76.2022C104.101 76.2022 107.088 73.2152 107.088 69.5305C107.088 65.8459 104.101 62.8589 100.417 62.8589C96.7321 62.8589 93.7451 65.8459 93.7451 69.5305C93.7451 73.2152 96.7321 76.2022 100.417 76.2022Z" fill="white"/>
<path id="Vector_6" d="M91.6668 66.0772C95.3515 66.0772 98.3385 63.0902 98.3385 59.4055C98.3385 55.7209 95.3515 52.7339 91.6668 52.7339C87.9822 52.7339 84.9951 55.7209 84.9951 59.4055C84.9951 63.0902 87.9822 66.0772 91.6668 66.0772Z" fill="white"/>
<path id="Vector_7" d="M78.8269 62.3215C82.5116 62.3215 85.4985 59.3345 85.4985 55.6498C85.4985 51.9652 82.5116 48.978 78.8269 48.978C75.1422 48.978 72.1553 51.9652 72.1553 55.6498C72.1553 59.3345 75.1422 62.3215 78.8269 62.3215Z" fill="white"/>
<path id="Vector_8" d="M65.9861 66.0772C69.6707 66.0772 72.6578 63.0902 72.6578 59.4055C72.6578 55.7209 69.6707 52.7339 65.9861 52.7339C62.3014 52.7339 59.3145 55.7209 59.3145 59.4055C59.3145 63.0902 62.3014 66.0772 65.9861 66.0772Z" fill="white"/>
<path id="Vector_9" d="M57.2362 76.2022C60.9208 76.2022 63.9078 73.2152 63.9078 69.5305C63.9078 65.8459 60.9208 62.8589 57.2362 62.8589C53.5515 62.8589 50.5645 65.8459 50.5645 69.5305C50.5645 73.2152 53.5515 76.2022 57.2362 76.2022Z" fill="white"/>
<path id="Vector_10" d="M55.325 89.4111C59.0096 89.4111 61.9967 86.4242 61.9967 82.7395C61.9967 79.0548 59.0096 76.0679 55.325 76.0679C51.6403 76.0679 48.6533 79.0548 48.6533 82.7395C48.6533 86.4242 51.6403 89.4111 55.325 89.4111Z" fill="white"/>
<path id="Vector_11" d="M60.8904 101.581C64.575 101.581 67.562 98.5941 67.562 94.9094C67.562 91.2248 64.575 88.2378 60.8904 88.2378C57.2057 88.2378 54.2188 91.2248 54.2188 94.9094C54.2188 98.5941 57.2057 101.581 60.8904 101.581Z" fill="white"/>
</g>
</g>
<defs>
<filter id="filter0_dd_806_2773" x="0.15332" y="0.478027" width="157.346" height="156.843" filterUnits="userSpaceOnUse" color-interpolation-filters="sRGB">
<feFlood flood-opacity="0" result="BackgroundImageFix"/>
<feColorMatrix in="SourceAlpha" type="matrix" values="0 0 0 0 0 0 0 0 0 0 0 0 0 0 0 0 0 0 127 0" result="hardAlpha"/>
<feOffset/>
<feGaussianBlur stdDeviation="24.25"/>
<feComposite in2="hardAlpha" operator="out"/>
<feColorMatrix type="matrix" values="0 0 0 0 1 0 0 0 0 1 0 0 0 0 1 0 0 0 0.2 0"/>
<feBlend mode="normal" in2="BackgroundImageFix" result="effect1_dropShadow_806_2773"/>
<feColorMatrix in="SourceAlpha" type="matrix" values="0 0 0 0 0 0 0 0 0 0 0 0 0 0 0 0 0 0 127 0" result="hardAlpha"/>
<feOffset/>
<feGaussianBlur stdDeviation="2.25"/>
<feComposite in2="hardAlpha" operator="out"/>
<feColorMatrix type="matrix" values="0 0 0 0 0.787695 0 0 0 0 0.900514 0 0 0 0 1 0 0 0 1 0"/>
<feBlend mode="normal" in2="effect1_dropShadow_806_2773" result="effect2_dropShadow_806_2773"/>
<feBlend mode="normal" in="SourceGraphic" in2="effect2_dropShadow_806_2773" result="shape"/>
</filter>
</defs>
</svg>
