<svg width="168" height="113" viewBox="0 0 168 113" fill="none" xmlns="http://www.w3.org/2000/svg">
<g id="Frame 2131328289">
<g id="Vector" filter="url(#filter0_dd_806_2764)">
<path fill-rule="evenodd" clip-rule="evenodd" d="M58.1162 22.4147C48.2382 23.0912 39.0887 26.2137 30.9605 31.682C28.5994 33.2705 27.406 34.2021 24.9515 36.3733L23 38.0995L25.2406 40.3173L27.4811 42.5351L29.247 40.9805C33.2769 37.4327 37.4804 34.7068 41.8952 32.7789C54.3925 27.3214 67.8778 27.1745 80.4785 32.3588C85.7164 34.5139 90.2335 37.4734 95.282 42.0578L96.466 43.133L98.7329 40.9993L101 38.8658L99.4909 37.4188C93.5906 31.7615 86.526 27.5539 78.5737 24.9612C76.5496 24.3013 73.0239 23.4275 71.042 23.0945C67.1893 22.4472 61.7893 22.1632 58.1162 22.4147ZM58.258 33.2519C48.2245 33.9204 38.3189 38.2269 31.0508 45.0804L30.0234 46.0491L32.1778 48.2911C33.3627 49.524 34.3963 50.5329 34.4747 50.5329C34.5529 50.5329 35.1417 50.0527 35.7829 49.4655C45.1021 40.9335 58.4209 37.6128 70.7236 40.7545C77.0718 42.3755 83.0835 45.7268 87.8235 50.287L88.776 51.2035L91.0639 48.9506L93.3518 46.6978L91.8618 45.2655C89.9105 43.3899 88.2596 42.0935 85.6534 40.3901C81.1248 37.4302 76.9219 35.6216 71.6508 34.3644C67.0709 33.272 63.0136 32.935 58.258 33.2519ZM59.8551 44.0192C51.9891 44.4361 44.3736 47.6042 38.8504 52.7579L37.7096 53.8223L39.8686 55.9647L42.0276 58.1071L43.141 57.1319C46.9241 53.8179 50.8566 51.7796 55.5298 50.7105C58.7644 49.9706 63.0023 49.9017 66.3086 50.5353C69.6922 51.1838 73.5507 52.7168 76.1598 54.4493C77.5196 55.3521 79.5918 56.9985 80.396 57.8152C80.7692 58.194 81.1468 58.504 81.2353 58.504C81.3236 58.504 82.3389 57.5703 83.4915 56.4293L85.587 54.3545L84.4026 53.2282C79.1396 48.224 72.2416 44.9825 65.2583 44.2318C63.6501 44.059 61.042 43.9563 59.8551 44.0192ZM58.7897 55.2886C54.3251 55.831 49.5936 58.0169 46.4978 60.9672L45.6972 61.7302L47.5609 63.5763C48.586 64.5917 49.4762 65.4223 49.5394 65.4223C49.6026 65.4223 50.0395 65.0774 50.5105 64.656C52.2833 63.0698 54.677 61.7961 57.145 61.1262C59.2572 60.5529 62.3893 60.459 64.5734 60.9037C67.5944 61.5189 70.2394 62.8516 72.4025 64.8482L73.6542 66.0036L75.5928 64.0839L77.5313 62.1641L76.3219 61.0399C73.3541 58.281 69.8061 56.4631 65.6252 55.5589C64.5271 55.3214 59.9945 55.1422 58.7897 55.2886ZM59.018 64.6642C56.1022 65.2878 53.8824 67.274 53.1012 69.9574C52.7836 71.0485 52.7845 72.8855 53.1032 73.9718C54.0406 77.1682 56.9442 79.324 60.3117 79.3237C61.7925 79.3236 62.8276 79.0375 64.1245 78.2697C69.595 75.0311 68.6929 67.0192 62.6255 64.9555C61.6232 64.6147 59.9 64.4754 59.018 64.6642Z" fill="white"/>
</g>
</g>
<defs>
<filter id="filter0_dd_806_2764" x="0.882889" y="0.206619" width="122.234" height="101.234" filterUnits="userSpaceOnUse" color-interpolation-filters="sRGB">
<feFlood flood-opacity="0" result="BackgroundImageFix"/>
<feColorMatrix in="SourceAlpha" type="matrix" values="0 0 0 0 0 0 0 0 0 0 0 0 0 0 0 0 0 0 127 0" result="hardAlpha"/>
<feOffset/>
<feGaussianBlur stdDeviation="11.0586"/>
<feComposite in2="hardAlpha" operator="out"/>
<feColorMatrix type="matrix" values="0 0 0 0 1 0 0 0 0 1 0 0 0 0 1 0 0 0 0.3 0"/>
<feBlend mode="normal" in2="BackgroundImageFix" result="effect1_dropShadow_806_2764"/>
<feColorMatrix in="SourceAlpha" type="matrix" values="0 0 0 0 0 0 0 0 0 0 0 0 0 0 0 0 0 0 127 0" result="hardAlpha"/>
<feMorphology radius="16" operator="erode" in="SourceAlpha" result="effect2_dropShadow_806_2764"/>
<feOffset/>
<feGaussianBlur stdDeviation="6.35"/>
<feComposite in2="hardAlpha" operator="out"/>
<feColorMatrix type="matrix" values="0 0 0 0 0.93003 0 0 0 0 0.966832 0 0 0 0 0.999284 0 0 0 0.5 0"/>
<feBlend mode="normal" in2="effect1_dropShadow_806_2764" result="effect2_dropShadow_806_2764"/>
<feBlend mode="normal" in="SourceGraphic" in2="effect2_dropShadow_806_2764" result="shape"/>
</filter>
</defs>
</svg>
