<svg width="662" height="436" viewBox="0 0 662 436" fill="none" xmlns="http://www.w3.org/2000/svg">
	<path d="M415.342 232.888L414.284 231.52C405.227 220 397.42 210.059 390.791 201.174C369.645 174.861 354.005 159.668 331.963 154.819C309.922 149.971 281.279 155.423 236.177 167.175C230.17 168.864 223.307 170.736 215.241 172.917C205.778 175.476 195.561 178.206 184.622 181.114L182.514 181.684L182.043 181.074L184.174 180.498C195.049 177.509 205.201 174.731 214.665 172.172C222.73 169.992 229.602 168.166 235.706 166.565C280.264 154.076 305.972 144.832 314.176 131.806C322.38 118.78 313.166 101.866 293.269 75.1987C286.197 66.3848 278.542 56.353 269.672 44.717L268.708 43.4712L269.739 43.1925L270.798 44.5602C279.854 56.08 287.661 66.0216 294.29 74.9063C315.436 101.22 331.077 116.413 353.118 121.261C375.16 126.109 403.802 120.658 448.904 108.906C454.911 107.216 461.775 105.344 469.84 103.163C479.303 100.605 489.521 97.8747 500.459 94.9664L502.567 94.3965L503.039 95.0059L500.908 95.582C490.033 98.5716 479.903 101.343 470.44 103.902C462.374 106.082 455.502 107.908 449.399 109.509C404.84 121.998 379.133 131.242 370.928 144.268C362.724 157.294 371.939 174.208 391.835 200.875C398.907 209.689 406.563 219.721 415.432 231.357L416.396 232.603L415.365 232.882L415.342 232.888Z" fill="#0B0B0B" />
	<path d="M306.993 392.81L305.934 391.442C296.878 379.922 289.071 369.981 282.442 361.096C261.296 334.782 245.656 319.59 223.614 314.741C201.573 309.893 172.93 315.344 127.828 327.097C121.821 328.786 114.958 330.658 106.892 332.839C97.4289 335.398 87.2115 338.127 76.2732 341.036L74.1652 341.606L73.6935 340.996L75.8244 340.42C86.6998 337.431 96.8523 334.653 106.316 332.094C114.381 329.914 121.253 328.088 127.357 326.487C171.915 313.998 197.623 304.754 205.827 291.728C214.031 278.702 204.817 261.788 184.92 235.121C177.848 226.307 170.193 216.275 161.323 204.639L160.359 203.393L161.39 203.114L162.449 204.482C171.505 216.002 179.312 225.943 185.941 234.828C207.087 261.142 222.727 276.334 244.769 281.183C266.81 286.031 295.453 280.58 340.555 268.827C346.562 267.138 353.426 265.266 361.491 263.085C370.954 260.526 381.172 257.797 392.11 254.888L394.218 254.318L394.69 254.928L392.559 255.504C381.683 258.493 371.554 261.265 362.091 263.824C354.025 266.004 347.153 267.83 341.05 269.431C296.491 281.92 270.783 291.164 262.579 304.19C254.375 317.216 263.59 334.13 283.486 360.797C290.558 369.611 298.214 379.643 307.083 391.279L308.047 392.525L307.016 392.804L306.993 392.81Z" fill="#0B0B0B" />
	<path d="M501.014 341.224L499.955 339.856C490.899 328.336 483.092 318.395 476.463 309.51C455.317 283.196 439.677 268.004 417.635 263.155C395.594 258.307 366.951 263.758 321.849 275.511C315.842 277.2 308.979 279.072 300.913 281.253C291.45 283.812 281.232 286.541 270.294 289.45L268.186 290.02L267.714 289.41L269.845 288.834C280.721 285.845 290.873 283.067 300.337 280.508C308.402 278.328 315.274 276.502 321.378 274.901C365.936 262.412 391.644 253.168 399.848 240.142C408.052 227.116 398.838 210.202 378.941 183.535C371.869 174.721 364.214 164.689 355.344 153.053L354.38 151.807L355.411 151.528L356.47 152.896C365.526 164.416 373.333 174.358 379.962 183.242C401.108 209.556 416.748 224.748 438.79 229.597C460.831 234.445 489.474 228.994 534.576 217.242C540.583 215.552 547.447 213.68 555.512 211.499C564.975 208.94 575.193 206.211 586.131 203.302L588.239 202.732L588.711 203.342L586.58 203.918C575.704 206.907 565.575 209.679 556.112 212.238C548.046 214.418 541.174 216.244 535.071 217.845C490.512 230.334 464.804 239.578 456.6 252.604C448.396 265.63 457.611 282.544 477.507 309.211C484.579 318.025 492.235 328.057 501.104 339.693L502.068 340.939L501.037 341.218L501.014 341.224Z" fill="#0B0B0B" />
</svg>
