<svg width="1874" height="1898" viewBox="0 0 1874 1898" fill="none" xmlns="http://www.w3.org/2000/svg">
<path fill-rule="evenodd" clip-rule="evenodd" d="M924.788 1617.85C925.126 1617.86 925.463 1617.87 925.801 1617.87C926.138 1617.88 926.475 1617.88 926.812 1617.89L923.869 1816.87C923.431 1816.86 922.992 1816.85 922.553 1816.84L921.236 1816.82L924.788 1617.85ZM953.005 1617.77L957.982 1816.71C958.598 1816.7 959.213 1816.68 959.828 1816.66L960.596 1816.64L955.01 1617.72C954.342 1617.74 953.673 1617.75 953.005 1617.77ZM981.164 1616.47L994.719 1815.02C995.592 1814.96 996.464 1814.9 997.337 1814.84L983.169 1616.33C982.501 1616.38 981.832 1616.43 981.164 1616.47ZM1009.23 1613.96L1031.38 1811.74C1032.26 1811.64 1033.13 1811.54 1034 1811.44L1011.23 1613.73C1010.56 1613.81 1009.9 1613.89 1009.23 1613.96ZM1037.15 1610.23L1067.9 1806.86C1068.77 1806.72 1069.64 1806.59 1070.5 1806.45L1039.14 1609.92C1038.48 1610.02 1037.82 1610.13 1037.15 1610.23ZM1064.88 1605.29L1104.18 1800.39C1105.05 1800.22 1105.91 1800.04 1106.77 1799.87L1066.86 1604.89C1066.2 1605.02 1065.54 1605.15 1064.88 1605.29ZM1092.37 1599.14L1140.16 1792.34C1141.01 1792.13 1141.87 1791.92 1142.72 1791.71L1094.33 1598.65C1093.67 1598.81 1093.02 1598.98 1092.37 1599.14ZM1119.57 1591.79L1175.76 1782.72C1176.6 1782.48 1177.44 1782.23 1178.28 1781.98L1121.5 1591.22C1120.86 1591.41 1120.21 1591.6 1119.57 1591.79ZM1146.43 1583.25L1210.91 1771.56C1211.33 1771.41 1211.76 1771.27 1212.18 1771.12C1212.59 1770.98 1212.99 1770.84 1213.4 1770.7L1148.33 1582.6C1147.7 1582.82 1147.07 1583.04 1146.43 1583.25ZM1172.89 1573.56L1245.51 1758.88C1246.33 1758.56 1247.14 1758.24 1247.96 1757.91L1174.76 1572.82C1174.14 1573.07 1173.51 1573.31 1172.89 1573.56ZM1198.89 1562.72L1279.5 1744.71C1279.95 1744.51 1280.4 1744.32 1280.84 1744.12C1281.2 1743.96 1281.55 1743.8 1281.9 1743.65L1200.73 1561.9C1200.12 1562.18 1199.51 1562.45 1198.89 1562.72ZM1224.4 1550.77L1312.81 1729.1C1313.6 1728.71 1314.38 1728.32 1315.17 1727.93L1226.21 1549.87C1225.61 1550.17 1225.01 1550.47 1224.4 1550.77ZM1249.37 1537.72L1345.39 1712.08C1346.16 1711.65 1346.93 1711.23 1347.69 1710.81L1251.13 1536.75C1250.55 1537.07 1249.96 1537.4 1249.37 1537.72ZM1273.75 1523.61L1377.18 1693.68C1377.93 1693.22 1378.67 1692.77 1379.42 1692.31L1275.47 1522.56C1274.9 1522.91 1274.33 1523.26 1273.75 1523.61ZM1297.51 1508.46L1408.12 1673.95C1408.85 1673.47 1409.57 1672.98 1410.3 1672.49L1299.18 1507.34C1298.62 1507.72 1298.07 1508.09 1297.51 1508.46ZM1320.59 1492.32L1438.17 1652.94C1438.6 1652.62 1439.03 1652.3 1439.47 1651.98C1439.74 1651.79 1440.01 1651.59 1440.28 1651.39L1322.22 1491.12C1321.68 1491.52 1321.14 1491.92 1320.59 1492.32ZM1342.97 1475.2L1467.26 1630.68C1467.95 1630.13 1468.63 1629.59 1469.3 1629.04L1344.54 1473.94C1344.02 1474.36 1343.49 1474.78 1342.97 1475.2ZM1364.6 1457.15L1495.37 1607.22C1496.03 1606.65 1496.68 1606.08 1497.34 1605.5L1366.12 1455.82C1365.61 1456.26 1365.11 1456.71 1364.6 1457.15ZM1385.44 1438.19L1522.44 1582.61C1523.07 1582.01 1523.7 1581.41 1524.33 1580.81L1386.9 1436.81C1386.42 1437.27 1385.93 1437.73 1385.44 1438.19ZM1405.47 1418.38L1548.43 1556.9C1549.03 1556.27 1549.64 1555.65 1550.24 1555.02L1406.87 1416.93C1406.4 1417.42 1405.94 1417.9 1405.47 1418.38ZM1424.64 1397.74L1573.3 1530.12C1573.88 1529.47 1574.45 1528.82 1575.03 1528.17L1425.98 1396.23C1425.53 1396.74 1425.09 1397.24 1424.64 1397.74ZM1442.93 1376.31L1597.01 1502.33C1597.56 1501.65 1598.11 1500.98 1598.66 1500.31L1444.2 1374.75C1443.78 1375.27 1443.35 1375.79 1442.93 1376.31ZM1460.3 1354.13L1619.54 1473.57C1620.06 1472.87 1620.58 1472.18 1621.1 1471.48L1461.51 1352.52C1461.1 1353.05 1460.7 1353.59 1460.3 1354.13ZM1476.73 1331.23L1640.83 1443.89C1641.32 1443.17 1641.81 1442.46 1642.3 1441.74L1477.86 1329.57C1477.48 1330.13 1477.11 1330.68 1476.73 1331.23ZM1492.18 1307.67L1660.86 1413.35C1661.32 1412.61 1661.78 1411.87 1662.24 1411.14L1493.24 1305.97C1492.89 1306.54 1492.53 1307.11 1492.18 1307.67ZM1506.62 1283.49L1679.58 1382C1680.01 1381.25 1680.44 1380.49 1680.87 1379.73L1507.61 1281.74C1507.28 1282.32 1506.95 1282.91 1506.62 1283.49ZM1520.04 1258.72L1696.97 1349.89C1697.37 1349.12 1697.77 1348.35 1698.16 1347.57L1520.96 1256.93C1520.65 1257.53 1520.34 1258.13 1520.04 1258.72ZM1532.4 1233.41L1713 1317.08C1713.37 1316.29 1713.73 1315.5 1714.1 1314.71L1533.25 1231.58C1532.97 1232.19 1532.69 1232.8 1532.4 1233.41ZM1543.7 1207.6L1727.65 1283.62C1727.98 1282.82 1728.31 1282.02 1728.64 1281.21L1544.46 1205.74C1544.21 1206.36 1543.95 1206.98 1543.7 1207.6ZM1553.9 1181.33L1740.87 1249.58C1741.17 1248.76 1741.46 1247.95 1741.76 1247.13L1554.59 1179.44C1554.36 1180.07 1554.13 1180.7 1553.9 1181.33ZM1563 1154.66L1752.66 1215.01C1752.92 1214.18 1753.18 1213.35 1753.44 1212.53L1563.6 1152.74C1563.4 1153.38 1563.2 1154.02 1563 1154.66ZM1570.96 1127.62L1762.98 1179.98C1763.21 1179.14 1763.44 1178.3 1763.66 1177.46L1571.49 1125.68C1571.32 1126.33 1571.14 1126.98 1570.96 1127.62ZM1577.79 1100.3L1771.82 1144.6C1772.01 1143.75 1772.21 1142.9 1772.4 1142.05L1578.24 1098.33C1578.09 1098.99 1577.94 1099.64 1577.79 1100.3ZM1583.47 1072.71L1779.17 1108.9C1779.33 1108.04 1779.49 1107.19 1779.64 1106.33L1583.83 1070.73C1583.71 1071.39 1583.59 1072.05 1583.47 1072.71ZM1588 1044.91L1785.03 1072.95C1785.09 1072.56 1785.14 1072.17 1785.2 1071.78C1785.26 1071.31 1785.33 1070.84 1785.39 1070.37L1588.28 1042.91C1588.19 1043.58 1588.1 1044.24 1588 1044.91ZM1591.38 1016.93L1789.39 1036.82C1789.48 1035.96 1789.56 1035.1 1789.65 1034.24L1591.58 1014.93C1591.51 1015.6 1591.45 1016.26 1591.38 1016.93ZM1593.6 988.826L1792.26 1000.57C1792.31 999.713 1792.36 998.853 1792.41 997.992L1593.72 986.823C1593.68 987.491 1593.64 988.158 1593.6 988.826ZM1594.68 960.646L1793.65 964.296C1793.65 963.862 1793.66 963.428 1793.67 962.994C1793.68 962.56 1793.68 962.126 1793.69 961.692L1594.71 958.621C1594.71 958.958 1594.7 959.295 1594.7 959.633C1594.69 959.97 1594.69 960.308 1594.68 960.646ZM1594.61 932.425L1793.55 927.973C1793.53 927.112 1793.51 926.25 1793.49 925.389L1594.56 930.42C1594.58 931.088 1594.59 931.757 1594.61 932.425ZM1593.38 904.261L1791.97 891.657C1791.92 890.794 1791.86 889.931 1791.81 889.068L1593.25 902.255C1593.3 902.923 1593.34 903.592 1593.38 904.261ZM1591 876.181L1788.9 855.397C1788.81 854.534 1788.72 853.672 1788.62 852.809L1590.79 874.179C1590.86 874.846 1590.93 875.513 1591 876.181ZM1587.47 848.23L1784.33 819.261C1784.2 818.401 1784.07 817.541 1783.94 816.681L1587.17 846.236C1587.27 846.901 1587.37 847.565 1587.47 848.23ZM1582.77 820.455L1778.25 783.318C1778.09 782.462 1777.92 781.607 1777.76 780.752L1582.39 818.473C1582.52 819.133 1582.65 819.794 1582.77 820.455ZM1576.92 792.894L1770.68 747.629C1770.48 746.782 1770.28 745.936 1770.08 745.09L1576.46 790.934C1576.61 791.587 1576.77 792.24 1576.92 792.894ZM1569.92 765.58L1761.61 712.241C1761.37 711.405 1761.14 710.57 1760.9 709.735L1569.38 763.645C1569.56 764.29 1569.74 764.935 1569.92 765.58ZM1561.78 738.589L1751.06 677.262C1750.79 676.436 1750.52 675.61 1750.25 674.784L1561.16 736.677C1561.37 737.314 1561.58 737.951 1561.78 738.589ZM1552.52 711.967L1739.06 642.755C1738.76 641.94 1738.45 641.125 1738.15 640.311L1551.82 710.081C1552.05 710.709 1552.29 711.338 1552.52 711.967ZM1542.16 685.759L1725.62 608.782C1725.28 607.979 1724.94 607.177 1724.6 606.376L1541.37 683.903C1541.63 684.521 1541.9 685.14 1542.16 685.759ZM1530.7 660.01L1710.77 575.403C1710.4 574.615 1710.03 573.828 1709.65 573.041L1529.84 658.187C1530.13 658.794 1530.41 659.402 1530.7 660.01ZM1518.17 634.764L1694.53 542.677C1694.13 541.905 1693.72 541.134 1693.32 540.363L1517.24 632.979C1517.55 633.573 1517.86 634.168 1518.17 634.764ZM1504.6 610.065L1676.94 510.661C1676.5 509.907 1676.07 509.153 1675.63 508.4L1503.59 608.32C1503.93 608.901 1504.26 609.483 1504.6 610.065ZM1490 585.95L1658.01 479.401C1657.55 478.668 1657.08 477.934 1656.61 477.202L1488.92 584.254C1489.28 584.818 1489.64 585.384 1490 585.95ZM1474.4 562.468L1637.79 448.96C1637.29 448.246 1636.8 447.533 1636.3 446.821L1473.25 560.818C1473.63 561.367 1474.02 561.917 1474.4 562.468ZM1457.83 539.663L1616.31 419.392C1615.78 418.699 1615.25 418.007 1614.72 417.316L1456.61 538.061C1457.02 538.595 1457.43 539.128 1457.83 539.663ZM1440.32 517.574L1593.6 390.747C1593.04 390.076 1592.48 389.407 1591.93 388.738L1439.03 516.025C1439.46 516.541 1439.89 517.057 1440.32 517.574ZM1421.9 496.241L1569.7 363.073C1569.11 362.426 1568.53 361.78 1567.94 361.135L1420.55 494.747C1421 495.245 1421.45 495.743 1421.9 496.241ZM1402.59 475.703L1544.64 336.419C1544.03 335.797 1543.42 335.175 1542.81 334.555L1401.18 474.267C1401.65 474.745 1402.12 475.224 1402.59 475.703ZM1382.43 455.997L1518.47 310.831C1517.83 310.235 1517.2 309.64 1516.56 309.045L1380.96 454.623C1381.45 455.08 1381.94 455.538 1382.43 455.997ZM1361.46 437.161L1491.22 286.357C1490.56 285.788 1489.9 285.22 1489.23 284.653L1359.94 435.85C1360.45 436.287 1360.96 436.724 1361.46 437.161ZM1339.71 419.231L1462.94 263.043C1462.25 262.502 1461.57 261.963 1460.88 261.424L1338.13 417.987C1338.66 418.401 1339.19 418.816 1339.71 419.231ZM1317.22 402.245L1433.67 240.938C1432.96 240.426 1432.25 239.915 1431.54 239.406L1315.58 401.068C1316.13 401.459 1316.67 401.851 1317.22 402.245ZM1294.02 386.235L1403.45 220.086C1402.72 219.604 1401.99 219.124 1401.26 218.645L1292.34 385.129C1292.9 385.497 1293.46 385.865 1294.02 386.235ZM1270.16 371.235L1372.34 200.532C1371.59 200.082 1370.84 199.633 1370.09 199.185L1268.43 370.202C1269.01 370.546 1269.58 370.89 1270.16 371.235ZM1245.67 357.276L1340.4 182.319C1339.63 181.901 1338.85 181.485 1338.08 181.07L1243.9 356.319C1244.49 356.637 1245.08 356.956 1245.67 357.276ZM1220.61 344.388L1307.66 165.488C1306.87 165.104 1306.08 164.722 1305.3 164.34L1218.79 343.509C1219.4 343.801 1220 344.094 1220.61 344.388ZM1195 332.598L1274.2 150.08C1273.4 149.731 1272.59 149.383 1271.79 149.036L1193.16 331.799C1193.77 332.065 1194.39 332.331 1195 332.598ZM1168.91 321.932L1240.08 136.132C1239.26 135.818 1238.44 135.505 1237.62 135.194L1167.03 321.215C1167.66 321.453 1168.28 321.692 1168.91 321.932ZM1142.37 312.413L1205.35 123.677C1204.52 123.399 1203.69 123.123 1202.86 122.848L1140.46 311.78C1141.1 311.99 1141.74 312.201 1142.37 312.413ZM1115.46 304.068L1170.13 112.754C1169.28 112.512 1168.43 112.271 1167.59 112.031L1113.52 303.515C1114.16 303.698 1114.81 303.883 1115.46 304.068ZM1088.21 296.907L1134.46 103.382C1133.61 103.177 1132.75 102.973 1131.89 102.771L1086.25 296.44C1086.9 296.595 1087.56 296.75 1088.21 296.907ZM1060.67 290.943L1098.43 95.578C1097.57 95.4108 1096.7 95.2449 1095.84 95.0804L1058.69 290.563C1059.35 290.689 1060.01 290.816 1060.67 290.943ZM1032.9 286.186L1062.11 89.3561C1061.24 89.2269 1060.37 89.0991 1059.51 88.9725L1030.91 285.892C1031.57 285.989 1032.24 286.087 1032.9 286.186ZM1004.94 282.64L1025.58 84.7229C1025.33 84.6968 1025.08 84.6708 1024.83 84.645C1024.21 84.5804 1023.59 84.5165 1022.97 84.4533L1002.94 282.433C1003.61 282.501 1004.27 282.57 1004.94 282.64ZM976.84 280.307L988.915 81.6782C988.045 81.6249 987.175 81.5728 986.305 81.5221L974.838 280.187C975.506 280.226 976.173 280.266 976.84 280.307ZM948.664 279.184C948.326 279.178 947.989 279.172 947.651 279.166C947.314 279.16 946.977 279.155 946.639 279.15M948.664 279.184L952.216 80.2157C951.777 80.2076 951.338 80.1999 950.899 80.1925C950.46 80.1851 950.021 80.178 949.582 80.1712L948.111 179.66M898.614 1616.85L887.147 1815.51C886.277 1815.46 885.406 1815.41 884.537 1815.36L896.612 1616.73C897.279 1616.77 897.946 1616.81 898.614 1616.85ZM870.513 1614.6L850.485 1812.58C849.915 1812.53 849.345 1812.47 848.776 1812.41L847.875 1812.31L868.514 1614.4C869.18 1614.47 869.846 1614.54 870.513 1614.6ZM842.544 1611.14L813.947 1808.06C813.5 1808 813.053 1807.93 812.607 1807.87C812.186 1807.81 811.765 1807.74 811.344 1807.68L840.553 1610.85C841.217 1610.95 841.88 1611.05 842.544 1611.14ZM814.759 1606.47L777.611 1801.96C776.748 1801.79 775.885 1801.63 775.022 1801.46L812.779 1606.09C813.439 1606.22 814.099 1606.35 814.759 1606.47ZM787.205 1600.6L741.557 1794.27C741.088 1794.16 740.619 1794.04 740.149 1793.93C739.763 1793.84 739.376 1793.75 738.989 1793.66L785.243 1600.13C785.897 1600.29 786.551 1600.44 787.205 1600.6ZM759.935 1593.52L705.865 1785.01C705.339 1784.86 704.813 1784.71 704.288 1784.56C703.967 1784.47 703.645 1784.37 703.324 1784.28L757.994 1592.97C758.641 1593.15 759.288 1593.34 759.935 1593.52ZM732.987 1585.26L670.594 1774.19C669.967 1773.98 669.341 1773.77 668.715 1773.57L668.1 1773.36L731.081 1584.62C731.716 1584.84 732.351 1585.05 732.987 1585.26ZM706.421 1575.82L635.833 1761.84C635.014 1761.53 634.195 1761.22 633.376 1760.91L704.543 1575.1C705.168 1575.34 705.795 1575.58 706.421 1575.82ZM680.295 1565.24L601.665 1748C600.86 1747.65 600.055 1747.31 599.251 1746.96L678.449 1564.44C679.064 1564.71 679.679 1564.97 680.295 1565.24ZM654.657 1553.53L568.156 1732.7C567.367 1732.32 566.578 1731.93 565.79 1731.55L652.846 1552.65C653.449 1552.94 654.053 1553.24 654.657 1553.53ZM629.552 1540.72L535.37 1715.97C534.598 1715.55 533.827 1715.14 533.057 1714.72L627.78 1539.76C628.37 1540.08 628.96 1540.4 629.552 1540.72ZM605.024 1526.83L503.364 1697.85C502.611 1697.4 501.859 1696.96 501.108 1696.51L603.294 1525.8C603.87 1526.15 604.446 1526.49 605.024 1526.83ZM581.115 1511.91L472.195 1678.39C471.463 1677.91 470.731 1677.43 470.001 1676.95L579.432 1510.8C579.992 1511.17 580.553 1511.54 581.115 1511.91ZM557.869 1495.97L441.915 1657.63C441.205 1657.12 440.495 1656.61 439.787 1656.1L556.234 1494.79C556.778 1495.19 557.323 1495.58 557.869 1495.97ZM535.322 1479.05L412.573 1635.61C412.168 1635.3 411.764 1634.98 411.36 1634.66C411.078 1634.44 410.796 1634.22 410.515 1633.99L533.74 1477.81C534.267 1478.22 534.794 1478.64 535.322 1479.05ZM513.516 1461.19L384.217 1612.38C383.555 1611.82 382.892 1611.25 382.231 1610.68L511.988 1459.88C512.497 1460.31 513.006 1460.75 513.516 1461.19ZM492.489 1442.41L356.894 1587.99C356.256 1587.4 355.619 1586.8 354.983 1586.21L491.017 1441.04C491.507 1441.5 491.997 1441.96 492.489 1442.41ZM472.274 1422.77C471.803 1422.29 471.332 1421.81 470.862 1421.33L328.812 1560.62C329.422 1561.24 330.033 1561.86 330.645 1562.48L472.274 1422.77ZM452.907 1402.29L305.509 1535.9C304.924 1535.26 304.34 1534.61 303.757 1533.96L451.557 1400.8C452.006 1401.29 452.456 1401.79 452.907 1402.29ZM434.418 1381.01L281.524 1508.3C280.967 1507.63 280.411 1506.96 279.856 1506.29L433.132 1379.46C433.56 1379.98 433.989 1380.5 434.418 1381.01ZM416.84 1358.98L258.728 1479.72C258.199 1479.03 257.672 1478.34 257.146 1477.64L415.621 1357.37C416.027 1357.91 416.433 1358.44 416.84 1358.98ZM400.202 1336.22C399.818 1335.67 399.434 1335.12 399.051 1334.57L235.663 1448.08C236.159 1448.79 236.657 1449.5 237.155 1450.22L400.202 1336.22ZM384.532 1312.78L216.841 1419.83C216.373 1419.1 215.906 1418.37 215.441 1417.64L383.452 1311.09C383.811 1311.65 384.171 1312.22 384.532 1312.78ZM369.861 1288.72C369.524 1288.14 369.187 1287.55 368.851 1286.97L196.514 1386.38C196.95 1387.13 197.386 1387.88 197.824 1388.64L369.861 1288.72ZM356.214 1264.06L180.134 1356.67C179.728 1355.9 179.323 1355.13 178.92 1354.36L355.278 1262.27C355.589 1262.87 355.901 1263.46 356.214 1264.06ZM343.613 1238.85L163.799 1324C163.426 1323.21 163.054 1322.42 162.683 1321.63L342.753 1237.03C343.038 1237.64 343.325 1238.24 343.613 1238.85ZM332.079 1213.13L148.847 1290.66C148.508 1289.86 148.17 1289.06 147.832 1288.26L331.296 1211.28C331.556 1211.9 331.817 1212.52 332.079 1213.13ZM321.633 1186.96L135.306 1256.73C135.15 1256.31 134.994 1255.89 134.838 1255.48C134.69 1255.08 134.542 1254.68 134.394 1254.28L320.929 1185.07C321.163 1185.7 321.397 1186.33 321.633 1186.96ZM312.293 1160.36L123.199 1222.25C122.928 1221.43 122.659 1220.6 122.391 1219.77L311.669 1158.45C311.876 1159.09 312.084 1159.72 312.293 1160.36ZM304.074 1133.39L112.548 1187.3C112.312 1186.47 112.078 1185.63 111.845 1184.8L303.532 1131.46C303.711 1132.1 303.892 1132.75 304.074 1133.39ZM296.992 1106.1L103.372 1151.95C103.172 1151.1 102.972 1150.25 102.774 1149.41L296.53 1104.14C296.683 1104.8 296.837 1105.45 296.992 1106.1ZM291.062 1078.56L95.6926 1116.29C95.527 1115.43 95.3628 1114.57 95.1997 1113.72L290.681 1076.58C290.807 1077.24 290.934 1077.9 291.062 1078.56ZM286.284 1050.8L89.5093 1080.36C89.3796 1079.5 89.2513 1078.64 89.1242 1077.78L285.986 1048.81C286.084 1049.47 286.183 1050.14 286.284 1050.8ZM282.663 1022.86L84.8273 1044.23C84.7337 1043.37 84.6413 1042.5 84.5503 1041.64L282.448 1020.86C282.519 1021.52 282.59 1022.19 282.663 1022.86ZM280.2 994.782L81.6467 1007.97C81.5888 1007.11 81.5324 1006.24 81.4771 1005.38L280.068 992.776C280.111 993.445 280.155 994.114 280.2 994.782ZM278.894 966.617L79.9621 971.647C79.9398 970.786 79.9188 969.925 79.8991 969.064L278.845 964.611C278.86 965.28 278.876 965.949 278.894 966.617ZM278.74 938.416L79.7636 935.344C79.77 934.911 79.7767 934.477 79.7838 934.043C79.7909 933.609 79.7984 933.175 79.8061 932.741L278.773 936.391C278.767 936.729 278.761 937.066 278.755 937.404C278.75 937.741 278.745 938.079 278.74 938.416ZM279.733 910.214L81.0419 899.045C81.0898 898.184 81.139 897.324 81.1893 896.464L279.847 908.211C279.808 908.879 279.77 909.546 279.733 910.214ZM281.875 882.106L83.8043 862.801C83.8877 861.941 83.9725 861.08 84.0583 860.22L282.072 880.106C282.005 880.772 281.939 881.439 281.875 882.106ZM285.17 854.122L88.0593 826.665C88.1785 825.806 88.2989 824.947 88.4206 824.089L285.449 852.128C285.355 852.793 285.262 853.457 285.17 854.122ZM289.618 826.307L93.8101 790.704C93.9652 789.848 94.1215 788.993 94.279 788.139L289.98 824.324C289.859 824.984 289.738 825.645 289.618 826.307ZM295.217 798.705L101.055 754.986C101.246 754.136 101.438 753.287 101.632 752.438L295.662 796.737C295.512 797.392 295.364 798.048 295.217 798.705ZM301.962 771.357L109.79 719.572C110.016 718.733 110.243 717.894 110.471 717.055L302.488 769.414C302.312 770.061 302.136 770.709 301.962 771.357ZM309.851 744.294L120.011 684.511C120.271 683.683 120.533 682.856 120.795 682.03L310.456 742.379C310.254 743.017 310.052 743.655 309.851 744.294ZM318.865 717.593L131.693 649.907C131.988 649.09 132.284 648.274 132.581 647.458L319.551 715.703C319.321 716.333 319.093 716.962 318.865 717.593ZM328.989 691.298L144.815 615.824C145.144 615.02 145.475 614.216 145.807 613.412L329.754 689.437C329.498 690.057 329.243 690.677 328.989 691.298ZM340.206 665.455L159.355 582.324C159.593 581.805 159.832 581.286 160.072 580.768L160.448 579.954L341.048 663.627C340.767 664.236 340.486 664.845 340.206 665.455ZM352.496 640.107L175.287 549.465C175.683 548.69 176.081 547.916 176.479 547.142L353.415 638.315C353.108 638.912 352.801 639.509 352.496 640.107ZM365.838 615.298L192.583 517.306C193.011 516.548 193.441 515.791 193.871 515.034L366.832 613.546C366.5 614.129 366.169 614.713 365.838 615.298ZM380.21 591.072L211.212 485.902C211.672 485.162 212.133 484.424 212.595 483.686L381.277 589.362C380.92 589.931 380.565 590.501 380.21 591.072ZM395.59 567.463L231.149 455.299C231.49 454.798 231.832 454.297 232.174 453.797L232.62 453.148L396.724 565.804C396.345 566.356 395.967 566.909 395.59 567.463ZM411.947 544.521L252.353 425.557C252.873 424.86 253.393 424.164 253.914 423.469L413.151 542.91C412.749 543.447 412.347 543.983 411.947 544.521ZM429.251 522.288L274.79 396.731L275.209 396.215C275.618 395.713 276.028 395.211 276.438 394.709L430.523 520.729C430.098 521.248 429.674 521.767 429.251 522.288ZM447.474 500.803L298.422 368.869C298.998 368.217 299.576 367.567 300.154 366.917L448.81 499.298C448.364 499.799 447.919 500.3 447.474 500.803ZM466.585 480.104L323.212 342.018C323.556 341.66 323.9 341.303 324.245 340.947C324.505 340.678 324.766 340.408 325.026 340.139L467.983 478.657C467.516 479.138 467.05 479.621 466.585 480.104ZM486.55 460.229L349.123 316.224C349.753 315.623 350.384 315.023 351.016 314.423L488.008 458.842C487.521 459.304 487.035 459.766 486.55 460.229ZM507.337 441.215L376.115 291.535C376.771 290.96 377.427 290.387 378.084 289.814L508.852 439.891C508.347 440.332 507.841 440.773 507.337 441.215ZM528.911 423.098L404.147 267.994C404.827 267.448 405.507 266.902 406.188 266.358L530.481 421.839C529.957 422.258 529.434 422.678 528.911 423.098ZM551.236 405.912L433.176 245.648C433.878 245.131 434.582 244.615 435.286 244.099L552.858 404.722C552.317 405.118 551.776 405.515 551.236 405.912ZM574.272 389.695L463.153 224.544C463.878 224.056 464.604 223.57 465.33 223.084L575.944 388.574C575.386 388.947 574.829 389.32 574.272 389.695ZM597.979 374.477L494.031 204.724C494.777 204.267 495.524 203.812 496.271 203.358L599.698 373.429C599.125 373.777 598.552 374.127 597.979 374.477ZM622.318 360.291L525.76 186.231C526.525 185.807 527.291 185.384 528.058 184.962L624.08 359.318C623.492 359.642 622.905 359.966 622.318 360.291ZM647.246 347.167L558.285 169.107C559.068 168.716 559.853 168.326 560.637 167.937L649.048 346.271C648.447 346.569 647.846 346.867 647.246 347.167ZM672.719 335.133L591.55 153.391C592.043 153.171 592.537 152.952 593.03 152.733C593.338 152.596 593.645 152.46 593.952 152.324L674.558 334.316C673.944 334.587 673.331 334.859 672.719 335.133ZM698.692 324.214L625.495 139.122C626.31 138.8 627.126 138.479 627.942 138.16L700.564 323.478C699.94 323.723 699.316 323.968 698.692 324.214ZM725.12 314.436L660.057 126.334C660.885 126.048 661.714 125.763 662.543 125.48L727.021 313.783C726.387 313.999 725.753 314.217 725.12 314.436ZM751.955 305.818L695.168 115.059C696.008 114.809 696.847 114.561 697.688 114.314L753.88 305.249C753.238 305.438 752.596 305.628 751.955 305.818ZM779.125 298.386L730.729 105.332C731.583 105.118 732.437 104.906 733.292 104.695L781.083 297.9C780.43 298.061 779.777 298.223 779.125 298.386ZM806.593 292.15L766.681 97.169C767.542 96.9931 768.405 96.8185 769.267 96.6451L808.569 291.75C807.91 291.882 807.251 292.015 806.593 292.15ZM834.309 287.12L802.948 90.5866C803.816 90.4486 804.684 90.312 805.552 90.1767L836.299 286.806C835.635 286.91 834.972 287.014 834.309 287.12ZM862.222 283.303L839.453 85.5949C840.324 85.4951 841.195 85.3966 842.067 85.2995L864.222 283.077C863.555 283.151 862.889 283.226 862.222 283.303ZM890.283 280.703L876.115 82.1981C876.988 82.1364 877.86 82.0759 878.733 82.0168L892.288 280.564C891.619 280.609 890.951 280.656 890.283 280.703ZM918.442 279.32L912.856 80.3934C913.295 80.3814 913.734 80.3696 914.172 80.3582C914.605 80.347 915.037 80.3361 915.47 80.3255L920.447 279.268C919.778 279.284 919.11 279.302 918.442 279.32Z" fill="url(#paint0_radial_1084_3599)"/>
<path fill-rule="evenodd" clip-rule="evenodd" d="M911.608 1617.48C911.945 1617.49 912.282 1617.5 912.62 1617.52C912.957 1617.53 913.294 1617.54 913.631 1617.55L905.149 1863.41C904.686 1863.39 904.224 1863.37 903.761 1863.36C903.298 1863.34 902.835 1863.32 902.373 1863.3L911.608 1617.48ZM939.82 1617.97L941.127 1863.98C942.046 1863.97 942.966 1863.97 943.885 1863.96L941.826 1617.96C941.157 1617.96 940.489 1617.97 939.82 1617.97ZM967.998 1617.25L979.916 1862.98C980.838 1862.94 981.76 1862.89 982.681 1862.85L970.005 1617.15C969.337 1617.18 968.668 1617.21 967.998 1617.25ZM996.108 1615.31L1018.67 1860.31C1019.59 1860.22 1020.52 1860.14 1021.44 1860.05L998.111 1615.12C997.444 1615.18 996.776 1615.25 996.108 1615.31ZM1024.1 1612.15L1057.31 1855.95C1058.23 1855.82 1059.15 1855.7 1060.07 1855.57L1026.09 1611.87C1025.43 1611.97 1024.76 1612.06 1024.1 1612.15ZM1051.92 1607.77L1095.74 1849.9C1096.65 1849.74 1097.57 1849.57 1098.48 1849.4L1053.9 1607.41C1053.24 1607.53 1052.58 1607.65 1051.92 1607.77ZM1079.52 1602.18L1133.88 1842.18C1134.4 1842.06 1134.92 1841.94 1135.44 1841.83C1135.82 1841.74 1136.21 1841.65 1136.6 1841.56L1081.49 1601.73C1080.83 1601.88 1080.18 1602.03 1079.52 1602.18ZM1106.86 1595.39L1171.66 1832.79C1172.55 1832.55 1173.44 1832.31 1174.33 1832.06L1108.8 1594.86C1108.15 1595.04 1107.51 1595.21 1106.86 1595.39ZM1133.88 1587.4L1208.98 1821.76C1209.86 1821.48 1210.75 1821.2 1211.63 1820.92L1135.8 1586.79C1135.16 1587 1134.52 1587.2 1133.88 1587.4ZM1160.53 1578.25L1245.76 1809.13C1246.63 1808.81 1247.5 1808.49 1248.37 1808.16L1162.41 1577.55C1161.78 1577.79 1161.16 1578.02 1160.53 1578.25ZM1186.74 1567.95L1281.93 1794.91C1282.78 1794.55 1283.63 1794.2 1284.48 1793.84L1188.59 1567.17C1187.98 1567.43 1187.36 1567.69 1186.74 1567.95ZM1212.48 1556.51L1317.4 1779.16C1318.24 1778.76 1319.07 1778.37 1319.91 1777.97L1214.3 1555.65C1213.69 1555.94 1213.09 1556.23 1212.48 1556.51ZM1237.7 1543.98L1352.12 1761.9C1352.94 1761.47 1353.76 1761.04 1354.58 1760.61L1239.48 1543.04C1238.89 1543.35 1238.29 1543.67 1237.7 1543.98ZM1262.35 1530.37L1386.04 1743.18C1386.83 1742.71 1387.63 1742.25 1388.43 1741.78L1264.09 1529.35C1263.51 1529.69 1262.94 1530.03 1262.35 1530.37ZM1286.4 1515.71L1419.08 1723.04C1419.85 1722.54 1420.63 1722.04 1421.4 1721.54L1288.1 1514.62C1287.53 1514.99 1286.97 1515.35 1286.4 1515.71ZM1309.8 1500.04L1451.19 1701.52C1451.95 1701 1452.7 1700.47 1453.45 1699.94L1311.45 1498.88C1310.9 1499.26 1310.35 1499.65 1309.8 1500.04ZM1332.51 1483.38L1482.34 1678.68C1483.07 1678.12 1483.79 1677.56 1484.52 1677L1334.11 1482.15C1333.58 1482.56 1333.04 1482.97 1332.51 1483.38ZM1354.49 1465.77L1512.45 1654.56C1513.16 1653.97 1513.86 1653.38 1514.56 1652.79L1356.03 1464.48C1355.52 1464.91 1355.01 1465.34 1354.49 1465.77ZM1375.71 1447.25L1541.49 1629.2C1542.17 1628.58 1542.85 1627.96 1543.53 1627.34L1377.19 1445.89C1376.7 1446.34 1376.2 1446.8 1375.71 1447.25ZM1396.12 1427.85L1569.42 1602.65C1570.07 1602.01 1570.72 1601.36 1571.37 1600.71L1397.54 1426.43C1397.07 1426.9 1396.59 1427.37 1396.12 1427.85ZM1415.69 1407.6L1596.19 1574.97C1596.81 1574.29 1597.44 1573.62 1598.06 1572.95L1417.06 1406.12C1416.6 1406.62 1416.15 1407.11 1415.69 1407.6ZM1434.4 1386.55L1621.76 1546.19C1622.35 1545.49 1622.95 1544.79 1623.54 1544.09L1435.7 1385.01C1435.27 1385.52 1434.83 1386.04 1434.4 1386.55ZM1452.2 1364.72L1646.09 1516.36C1646.66 1515.64 1647.22 1514.92 1647.78 1514.2L1453.44 1363.14C1453.03 1363.67 1452.62 1364.2 1452.2 1364.72ZM1469.08 1342.17L1669.15 1485.55C1669.68 1484.8 1670.21 1484.06 1670.75 1483.31L1470.25 1340.53C1469.86 1341.08 1469.47 1341.62 1469.08 1342.17ZM1484.99 1318.93L1690.89 1453.8C1691.39 1453.03 1691.89 1452.26 1692.39 1451.49L1486.09 1317.24C1485.72 1317.81 1485.35 1318.37 1484.99 1318.93ZM1499.91 1295.05L1711.27 1421.16C1711.74 1420.38 1712.21 1419.59 1712.67 1418.8L1500.93 1293.31C1500.59 1293.89 1500.25 1294.47 1499.91 1295.05ZM1513.81 1270.56L1730.26 1387.7C1730.7 1386.9 1731.13 1386.09 1731.57 1385.28L1514.76 1268.78C1514.45 1269.37 1514.13 1269.96 1513.81 1270.56ZM1526.67 1245.5L1747.84 1353.47C1748 1353.15 1748.15 1352.82 1748.31 1352.5C1748.55 1352 1748.8 1351.5 1749.04 1351L1527.55 1243.69C1527.26 1244.29 1526.96 1244.9 1526.67 1245.5ZM1538.47 1219.92L1763.96 1318.53C1764.33 1317.69 1764.69 1316.85 1765.06 1316.01L1539.27 1218.08C1539.01 1218.7 1538.74 1219.31 1538.47 1219.92ZM1549.19 1193.87L1778.6 1282.93C1778.94 1282.08 1779.26 1281.23 1779.59 1280.37L1549.91 1192C1549.67 1192.62 1549.43 1193.25 1549.19 1193.87ZM1558.81 1167.39L1791.74 1246.76C1792.04 1245.89 1792.33 1245.03 1792.62 1244.16L1559.45 1165.48C1559.24 1166.12 1559.02 1166.75 1558.81 1167.39ZM1567.31 1140.52L1803.35 1210.07C1803.46 1209.69 1803.57 1209.31 1803.68 1208.93C1803.83 1208.43 1803.97 1207.93 1804.12 1207.44L1567.87 1138.59C1567.69 1139.23 1567.5 1139.88 1567.31 1140.52ZM1574.67 1113.34L1813.4 1172.98C1813.62 1172.09 1813.84 1171.2 1814.06 1170.31L1575.16 1111.38C1575 1112.04 1574.83 1112.69 1574.67 1113.34ZM1580.9 1085.87L1821.88 1135.53C1822.07 1134.63 1822.25 1133.74 1822.43 1132.84L1581.3 1083.9C1581.16 1084.56 1581.03 1085.22 1580.9 1085.87ZM1585.97 1058.17L1828.8 1097.79C1828.95 1096.89 1829.09 1095.99 1829.23 1095.08L1586.29 1056.18C1586.19 1056.84 1586.08 1057.51 1585.97 1058.17ZM1589.9 1030.26L1834.14 1059.83C1834.25 1058.93 1834.36 1058.02 1834.46 1057.12L1590.14 1028.27C1590.06 1028.93 1589.98 1029.6 1589.9 1030.26ZM1592.68 1002.21L1837.92 1021.73C1837.95 1021.32 1837.98 1020.9 1838.01 1020.48C1838.05 1019.99 1838.09 1019.51 1838.12 1019.02L1592.83 1000.21C1592.78 1000.88 1592.73 1001.54 1592.68 1002.21ZM1594.31 974.056L1840.12 983.581C1840.13 983.311 1840.14 983.042 1840.15 982.773L1840.17 982.211C1840.19 981.754 1840.21 981.298 1840.22 980.842L1594.38 972.032M885.459 1615.94L866.45 1861.19C865.533 1861.12 864.617 1861.05 863.7 1860.97L883.46 1615.78C884.126 1615.84 884.792 1615.89 885.459 1615.94ZM857.408 1613.12L827.837 1857.31C826.92 1857.2 826.004 1857.09 825.088 1856.97L855.414 1612.88C856.078 1612.96 856.743 1613.04 857.408 1613.12ZM829.514 1609.09L789.377 1851.76C788.464 1851.61 787.551 1851.45 786.638 1851.3L827.529 1608.76C828.19 1608.87 828.852 1608.98 829.514 1609.09ZM801.826 1603.86L751.158 1844.53C750.25 1844.34 749.343 1844.14 748.436 1843.95L799.855 1603.44C800.512 1603.58 801.169 1603.72 801.826 1603.86ZM774.395 1597.42L713.265 1835.64C712.366 1835.41 711.466 1835.17 710.567 1834.94L772.442 1596.91C773.093 1597.08 773.743 1597.25 774.395 1597.42ZM747.27 1589.79C746.626 1589.59 745.983 1589.4 745.34 1589.2L673.118 1824.28C674.006 1824.55 674.895 1824.82 675.785 1825.1L747.27 1589.79ZM720.49 1580.98C719.859 1580.76 719.228 1580.53 718.597 1580.31L636.167 1811.99C637.038 1812.3 637.91 1812.61 638.782 1812.92L720.49 1580.98ZM694.116 1571L602.35 1799.14C601.492 1798.8 600.634 1798.45 599.777 1798.1L692.252 1570.25C692.873 1570.5 693.494 1570.75 694.116 1571ZM668.204 1559.89L566.579 1783.8C565.736 1783.42 564.894 1783.03 564.053 1782.64L666.374 1559.05C666.983 1559.33 667.593 1559.61 668.204 1559.89ZM642.802 1547.66L531.537 1766.93C530.712 1766.51 529.888 1766.09 529.064 1765.67L641.008 1546.75C641.606 1547.05 642.203 1547.36 642.802 1547.66ZM617.954 1534.34L497.291 1748.57C496.486 1748.12 495.681 1747.66 494.877 1747.2L616.201 1533.35C616.785 1533.68 617.369 1534.01 617.954 1534.34ZM593.704 1519.96L463.903 1728.77C463.533 1728.54 463.163 1728.31 462.794 1728.08C462.379 1727.82 461.965 1727.56 461.552 1727.3L591.996 1518.89C592.565 1519.25 593.134 1519.61 593.704 1519.96ZM570.095 1504.55L431.43 1707.58C430.668 1707.06 429.907 1706.53 429.146 1706.01L568.434 1503.41C568.987 1503.79 569.541 1504.17 570.095 1504.55ZM547.167 1488.14L399.928 1685.03C399.189 1684.48 398.452 1683.93 397.715 1683.37L545.556 1486.93C546.092 1487.34 546.629 1487.74 547.167 1488.14ZM524.958 1470.77L369.444 1661.18C368.731 1660.6 368.019 1660.02 367.308 1659.43L523.401 1469.49C523.919 1469.92 524.439 1470.34 524.958 1470.77ZM503.509 1452.46L340.03 1636.08C339.343 1635.47 338.657 1634.86 337.972 1634.24L502.007 1451.12C502.507 1451.57 503.007 1452.02 503.509 1452.46ZM482.855 1433.27L311.733 1609.78C311.072 1609.14 310.413 1608.5 309.755 1607.86L481.411 1431.86C481.891 1432.33 482.373 1432.8 482.855 1433.27ZM463.031 1413.21L284.593 1582.33C283.961 1581.66 283.329 1580.99 282.699 1580.32L461.648 1411.75C462.108 1412.24 462.569 1412.73 463.031 1413.21ZM444.071 1392.34L258.651 1553.77C258.048 1553.08 257.446 1552.39 256.845 1551.69L442.75 1390.82C443.19 1391.33 443.63 1391.84 444.071 1392.34ZM426.005 1370.69L233.946 1524.17C233.373 1523.45 232.801 1522.73 232.23 1522.01L424.75 1369.12C425.167 1369.64 425.586 1370.17 426.005 1370.69ZM408.864 1348.3L210.515 1493.56C209.973 1492.82 209.432 1492.08 208.892 1491.34L407.676 1346.68C408.071 1347.22 408.467 1347.76 408.864 1348.3ZM392.677 1325.21L188.394 1462C188.107 1461.58 187.82 1461.15 187.534 1460.72C187.311 1460.39 187.088 1460.05 186.866 1459.72L391.559 1323.54C391.931 1324.1 392.303 1324.66 392.677 1325.21ZM377.471 1301.46L167.617 1429.55C167.139 1428.77 166.663 1427.99 166.187 1427.21L376.425 1299.74C376.773 1300.32 377.121 1300.89 377.471 1301.46ZM363.278 1277.1L148.225 1396.27C147.779 1395.47 147.335 1394.66 146.891 1393.86L362.302 1275.34C362.626 1275.92 362.951 1276.51 363.278 1277.1ZM350.118 1252.17L130.246 1362.21C129.835 1361.39 129.424 1360.56 129.015 1359.74L349.217 1250.37C349.517 1250.97 349.817 1251.57 350.118 1252.17ZM338.016 1226.71L113.71 1327.42C113.482 1326.91 113.254 1326.4 113.027 1325.9C112.879 1325.57 112.732 1325.24 112.584 1324.91L337.191 1224.87C337.465 1225.48 337.74 1226.1 338.016 1226.71ZM326.99 1200.76L98.6464 1291.97C98.3054 1291.12 97.9657 1290.27 97.6271 1289.41L326.244 1198.89C326.492 1199.52 326.741 1200.14 326.99 1200.76ZM317.062 1174.38L85.081 1255.92C84.8702 1255.32 84.6601 1254.72 84.4505 1254.12L84.1704 1253.32L316.395 1172.48C316.616 1173.11 316.838 1173.74 317.062 1174.38ZM308.247 1147.6L73.0383 1219.33C72.7704 1218.46 72.5036 1217.58 72.2382 1216.7L307.661 1145.67C307.855 1146.31 308.051 1146.95 308.247 1147.6ZM300.561 1120.46L62.5398 1182.27C62.3091 1181.39 62.0796 1180.5 61.8513 1179.62L300.057 1118.52C300.224 1119.17 300.392 1119.82 300.561 1120.46ZM294.017 1093.04L53.6054 1144.82C53.4886 1144.28 53.3722 1143.74 53.2563 1143.2C53.1798 1142.85 53.1036 1142.49 53.0277 1142.13L293.594 1091.07C293.734 1091.72 293.875 1092.38 294.017 1093.04ZM288.63 1065.38L46.2537 1107.08C46.0971 1106.18 45.9417 1105.27 45.7878 1104.37L288.289 1063.39C288.402 1064.06 288.515 1064.72 288.63 1065.38ZM284.4 1037.53L40.4853 1069.1C40.3665 1068.19 40.2493 1067.28 40.1332 1066.37L284.142 1035.53C284.227 1036.19 284.313 1036.86 284.4 1037.53ZM281.33 1009.52L36.3031 1030.94C36.2224 1030.03 36.1431 1029.12 36.065 1028.21L281.155 1007.51C281.212 1008.18 281.271 1008.85 281.33 1009.52ZM279.42 981.394L33.7055 992.691C33.6744 992.03 33.6439 991.369 33.6141 990.708L33.5807 989.961L279.329 979.386C279.358 980.055 279.389 980.725 279.42 981.394ZM278.669 953.207L32.6853 954.413C32.6796 953.506 32.6754 952.599 32.6724 951.692L278.66 951.201C278.662 951.87 278.665 952.539 278.669 953.207ZM279.071 925.008L33.2289 916.199C33.2447 915.742 33.2608 915.286 33.2772 914.83C33.2937 914.373 33.3105 913.916 33.3276 913.46L279.144 922.985C279.131 923.322 279.119 923.659 279.106 923.997C279.094 924.334 279.082 924.671 279.071 925.008ZM280.619 896.832L35.3271 878.02C35.3954 877.116 35.465 876.211 35.5358 875.307L280.773 894.832C280.721 895.498 280.669 896.165 280.619 896.832ZM283.314 868.772L38.9873 839.921C39.0227 839.619 39.0581 839.316 39.0938 839.014C39.1647 838.412 39.2361 837.81 39.3082 837.209L283.551 866.776C283.471 867.441 283.392 868.107 283.314 868.772ZM287.16 840.861C287.265 840.198 287.371 839.535 287.479 838.873L44.6519 799.252C44.506 800.153 44.3613 801.055 44.2179 801.958L287.16 840.861ZM292.155 813.141L51.0217 764.202C51.1272 763.68 51.233 763.157 51.3392 762.635C51.4156 762.26 51.4922 761.885 51.569 761.51L292.557 811.166C292.422 811.824 292.288 812.482 292.155 813.141ZM298.296 785.659L59.3957 726.73C59.6145 725.838 59.8344 724.948 60.0557 724.058L298.78 783.7C298.618 784.352 298.457 785.005 298.296 785.659ZM305.579 758.453L69.3341 689.605C69.5894 688.725 69.846 687.846 70.1038 686.967L306.143 756.521C305.954 757.165 305.766 757.809 305.579 758.453ZM314 731.556L80.8319 652.881C81.1232 652.014 81.4158 651.148 81.7096 650.283L314.643 729.654C314.428 730.288 314.214 730.922 314 731.556ZM323.538 705.044L93.8598 616.668C94.1877 615.813 94.5167 614.959 94.8471 614.106L324.261 703.169C324.019 703.793 323.778 704.418 323.538 705.044ZM334.178 678.961L108.396 581.034C108.759 580.193 109.124 579.353 109.491 578.513L334.98 677.116C334.712 677.73 334.445 678.345 334.178 678.961ZM345.902 653.351L124.414 546.043C124.813 545.218 125.213 544.394 125.614 543.57L346.781 651.54C346.487 652.143 346.194 652.747 345.902 653.351ZM358.69 628.258L141.885 511.759C142.319 510.951 142.753 510.144 143.189 509.337L359.644 626.485C359.325 627.076 359.007 627.667 358.69 628.258ZM372.518 603.726L160.779 478.242C161.246 477.453 161.715 476.664 162.184 475.876L373.547 601.995C373.203 602.571 372.86 603.149 372.518 603.726ZM387.364 579.797L181.063 445.549C181.563 444.78 182.064 444.012 182.566 443.244L388.465 578.11C388.097 578.672 387.73 579.234 387.364 579.797ZM403.206 556.507L202.707 413.729C203.237 412.983 203.769 412.238 204.302 411.494L404.374 554.871C403.984 555.416 403.595 555.961 403.206 556.507ZM420.012 533.903L225.67 382.843C226.231 382.12 226.794 381.398 227.358 380.676L421.248 532.317C420.835 532.845 420.423 533.374 420.012 533.903ZM437.752 512.027L249.912 352.948C250.504 352.249 251.097 351.55 251.691 350.853L439.053 510.494C438.619 511.004 438.185 511.515 437.752 512.027ZM456.394 490.918L275.395 324.093C276.017 323.419 276.639 322.746 277.262 322.074L457.76 489.441C457.304 489.932 456.849 490.425 456.394 490.918ZM475.909 470.613L302.08 296.327C302.73 295.68 303.38 295.033 304.031 294.387L477.335 469.194C476.859 469.666 476.383 470.139 475.909 470.613ZM496.262 451.149L329.926 269.698C330.602 269.078 331.28 268.459 331.958 267.841L497.747 449.792C497.251 450.244 496.756 450.696 496.262 451.149ZM517.419 432.563L358.891 244.254C359.593 243.662 360.297 243.072 361.001 242.483L518.96 431.27C518.446 431.7 517.932 432.131 517.419 432.563ZM539.346 414.889L388.931 220.041C389.658 219.479 390.387 218.919 391.116 218.36L540.94 413.663C540.408 414.071 539.876 414.48 539.346 414.889ZM562.005 398.163L420.001 197.105C420.752 196.575 421.504 196.045 422.258 195.517L563.65 397.005C563.101 397.39 562.553 397.776 562.005 398.163ZM585.355 382.418L452.049 175.496C452.824 174.997 453.599 174.5 454.376 174.003L587.049 381.331C586.484 381.693 585.92 382.055 585.355 382.418ZM609.358 367.687L485.026 155.257C485.822 154.792 486.619 154.328 487.417 153.865L611.097 366.674C610.517 367.011 609.937 367.348 609.358 367.687ZM633.971 354L518.877 136.434C519.299 136.211 519.721 135.988 520.144 135.766C520.538 135.559 520.933 135.351 521.328 135.144L635.752 353.063C635.158 353.375 634.564 353.687 633.971 354ZM659.152 341.387L553.545 119.069C554.38 118.673 555.215 118.279 556.051 117.885L660.972 340.528C660.365 340.813 659.758 341.1 659.152 341.387ZM684.857 329.875L588.969 103.204C589.821 102.844 590.673 102.486 591.526 102.129L686.711 329.095C686.093 329.354 685.475 329.614 684.857 329.875ZM711.04 319.488L625.086 88.8766C625.953 88.5544 626.82 88.2335 627.688 87.9139L712.926 318.791C712.297 319.022 711.668 319.255 711.04 319.488ZM737.655 310.25L661.826 76.1246C662.706 75.8405 663.587 75.5577 664.468 75.2763L739.568 309.636C738.93 309.84 738.292 310.045 737.655 310.25ZM764.653 302.182L699.118 64.98C700.01 64.7348 700.901 64.4909 701.794 64.2484L766.59 301.652C765.944 301.828 765.298 302.005 764.653 302.182ZM791.964 295.306L736.855 55.4785C737.761 55.2715 738.667 55.0658 739.573 54.8615L793.932 294.859C793.275 295.007 792.62 295.156 791.964 295.306ZM819.549 289.631L774.971 47.6368C775.884 47.4696 776.798 47.3039 777.712 47.1395L821.533 289.271C820.871 289.39 820.21 289.51 819.549 289.631ZM847.358 285.166L813.386 41.4699C814.305 41.343 815.224 41.2174 816.143 41.0933L849.354 284.894C848.688 284.984 848.023 285.074 847.358 285.166ZM875.34 281.919L852.015 36.9875C852.936 36.9009 853.858 36.8157 854.78 36.7319L877.344 281.734C876.676 281.795 876.008 281.857 875.34 281.919ZM903.446 279.892L890.771 34.192C891.692 34.1456 892.614 34.1006 893.536 34.057L905.453 279.794C904.784 279.826 904.115 279.858 903.446 279.892ZM931.626 279.083L929.567 33.0784C930 33.0753 930.434 33.0725 930.867 33.07C931.353 33.0673 931.839 33.0649 932.325 33.0629L933.632 279.072C932.963 279.075 932.295 279.079 931.626 279.083ZM959.821 279.488C960.158 279.5 960.495 279.512 960.832 279.525C961.17 279.537 961.507 279.55 961.844 279.563L971.079 33.7372C970.617 33.7192 970.154 33.7016 969.691 33.6843C969.228 33.6671 968.766 33.6502 968.303 33.6336L959.821 279.488ZM987.993 281.099L1007 35.8478C1007.92 35.92 1008.84 35.9936 1009.75 36.0686L989.992 281.26C989.326 281.205 988.66 281.152 987.993 281.099ZM1016.04 283.918L1045.62 39.7283C1046.19 39.7982 1046.76 39.8686 1047.33 39.9396C1047.67 39.9825 1048.02 40.0256 1048.36 40.0689L1018.04 284.165C1017.37 284.082 1016.71 284 1016.04 283.918ZM1043.94 287.947L1084.07 45.2827C1084.99 45.4349 1085.9 45.5885 1086.81 45.7435L1045.92 288.281C1045.26 288.168 1044.6 288.057 1043.94 287.947ZM1071.63 293.182L1122.29 52.5102C1123.2 52.7024 1124.11 52.896 1125.02 53.091L1073.6 293.603C1072.94 293.462 1072.28 293.322 1071.63 293.182ZM1099.06 299.62L1160.19 61.4025C1161.09 61.6345 1161.99 61.8679 1162.88 62.1026L1101.01 300.127C1100.36 299.957 1099.71 299.788 1099.06 299.62ZM1126.18 307.249L1197.67 71.9445C1198.56 72.2158 1199.45 72.4884 1200.33 72.7623L1128.11 307.841C1127.47 307.643 1126.83 307.445 1126.18 307.249ZM1152.96 316.061L1234.67 84.1201C1235.54 84.4284 1236.41 84.738 1237.29 85.049L1154.85 316.733C1154.22 316.508 1153.59 316.284 1152.96 316.061ZM1179.34 326.036C1179.96 326.287 1180.58 326.538 1181.2 326.791L1273.68 98.9413C1272.82 98.5924 1271.96 98.2448 1271.1 97.8985L1179.34 326.036ZM1205.25 337.15L1306.87 113.242C1307.72 113.625 1308.56 114.01 1309.4 114.396L1207.08 337.986C1206.47 337.706 1205.86 337.428 1205.25 337.15ZM1230.65 349.38L1341.91 130.112C1342.74 130.531 1343.56 130.952 1344.39 131.374L1232.44 350.295C1231.85 349.989 1231.25 349.684 1230.65 349.38ZM1255.5 362.699L1376.16 148.468C1376.97 148.923 1377.77 149.379 1378.58 149.836L1257.25 363.691C1256.67 363.359 1256.08 363.028 1255.5 362.699ZM1279.75 377.078L1409.55 168.267C1410.33 168.756 1411.12 169.245 1411.9 169.736L1281.46 378.146C1280.89 377.789 1280.32 377.433 1279.75 377.078ZM1303.36 392.489L1442.02 189.463C1442.78 189.984 1443.55 190.507 1444.31 191.03L1305.02 393.629C1304.47 393.248 1303.91 392.868 1303.36 392.489ZM1326.29 408.898L1473.52 212.009C1474.26 212.561 1475 213.115 1475.74 213.67L1327.9 410.108C1327.36 409.704 1326.82 409.301 1326.29 408.898ZM1348.49 426.273L1504.01 235.857C1504.72 236.44 1505.43 237.024 1506.14 237.609L1350.05 427.55C1349.53 427.123 1349.01 426.698 1348.49 426.273ZM1369.94 444.577L1533.42 260.957C1534.11 261.569 1534.79 262.182 1535.48 262.797L1371.45 445.919C1370.95 445.471 1370.44 445.024 1369.94 444.577ZM1390.6 463.774L1561.72 287.259C1562.38 287.899 1563.04 288.54 1563.7 289.182L1392.04 465.179C1391.56 464.71 1391.08 464.242 1390.6 463.774ZM1410.42 483.827L1588.86 314.712C1589.49 315.379 1590.12 316.047 1590.75 316.716L1411.8 485.291C1411.34 484.802 1410.88 484.314 1410.42 483.827ZM1429.38 504.697L1614.8 343.267C1615.4 343.959 1616.01 344.653 1616.61 345.347L1430.7 506.218C1430.26 505.71 1429.82 505.203 1429.38 504.697ZM1447.45 526.347L1639.51 372.873C1640.08 373.59 1640.65 374.308 1641.22 375.026L1448.7 527.922C1448.28 527.396 1447.87 526.871 1447.45 526.347ZM1464.59 548.737L1662.94 403.48C1663.48 404.22 1664.02 404.96 1664.56 405.702L1465.78 550.363C1465.38 549.821 1464.98 549.279 1464.59 548.737ZM1480.78 571.828L1685.06 435.036C1685.57 435.797 1686.08 436.559 1686.59 437.323L1481.89 573.502C1481.52 572.943 1481.15 572.385 1480.78 571.828ZM1495.98 595.579L1705.83 467.488C1706.31 468.27 1706.79 469.052 1707.26 469.835L1497.03 597.297C1496.68 596.724 1496.33 596.151 1495.98 595.579ZM1510.17 619.94L1725.23 500.772C1725.67 501.575 1726.12 502.378 1726.56 503.183L1511.15 621.705C1510.83 621.116 1510.5 620.528 1510.17 619.94ZM1523.33 644.872L1743.21 534.834C1743.62 535.655 1744.03 536.477 1744.44 537.299L1524.23 646.675C1523.93 646.074 1523.63 645.472 1523.33 644.872ZM1535.44 670.332L1759.74 569.621C1760.12 570.458 1760.49 571.295 1760.87 572.134L1536.26 672.172C1535.99 671.558 1535.71 670.945 1535.44 670.332ZM1594.79 945.839C1594.79 945.171 1594.79 944.502 1594.78 943.833L1840.77 942.627C1840.77 943.534 1840.78 944.441 1840.78 945.349L1594.79 945.839ZM1594.12 917.655L1839.87 907.079C1839.83 906.169 1839.79 905.259 1839.75 904.35L1594.03 915.646C1594.06 916.316 1594.09 916.985 1594.12 917.655ZM1592.3 889.532L1837.39 868.828C1837.31 867.917 1837.23 867.007 1837.15 866.097L1592.12 887.525C1592.18 888.194 1592.24 888.863 1592.3 889.532ZM1589.31 861.514L1833.32 830.667C1833.26 830.235 1833.21 829.804 1833.15 829.372C1833.09 828.895 1833.03 828.418 1832.97 827.941L1589.05 859.514C1589.14 860.181 1589.23 860.847 1589.31 861.514ZM1585.16 833.648L1827.66 792.671C1827.51 791.766 1827.35 790.861 1827.2 789.957L1584.82 831.658C1584.94 832.321 1585.05 832.984 1585.16 833.648ZM1579.86 805.973L1820.42 754.906C1820.23 754.009 1820.04 753.113 1819.85 752.218L1579.43 804.004C1579.58 804.66 1579.72 805.316 1579.86 805.973ZM1573.4 778.521L1811.6 717.424C1811.37 716.538 1811.14 715.652 1810.91 714.767L1572.89 776.576C1573.06 777.224 1573.23 777.872 1573.4 778.521ZM1565.79 751.369L1801.21 680.338C1800.95 679.461 1800.68 678.585 1800.41 677.709L1565.21 749.445C1565.4 750.086 1565.6 750.728 1565.79 751.369ZM1557.06 724.564L1789.28 643.717C1788.98 642.851 1788.68 641.986 1788.37 641.121L1556.39 722.664C1556.61 723.297 1556.84 723.93 1557.06 724.564ZM1547.21 698.149L1775.82 607.627C1775.49 606.774 1775.15 605.922 1774.81 605.07L1546.46 696.278C1546.71 696.901 1546.96 697.525 1547.21 698.149Z" fill="url(#paint1_radial_1084_3599)"/>
<defs>
<radialGradient id="paint0_radial_1084_3599" cx="0" cy="0" r="1" gradientUnits="userSpaceOnUse" gradientTransform="translate(435.382 682.999) rotate(-23.782) scale(1197.74 1211.78)">
<stop offset="0.0014603" stop-color="#33ABC3"/>
<stop offset="0.163092" stop-color="#035CEA"/>
<stop offset="0.846347" stop-color="#035CEA"/>
<stop offset="1" stop-color="#171B22"/>
</radialGradient>
<radialGradient id="paint1_radial_1084_3599" cx="0" cy="0" r="1" gradientUnits="userSpaceOnUse" gradientTransform="translate(357.232 583.501) rotate(-15.2821) scale(1224.44 1242.7)">
<stop offset="0.182252" stop-color="#035CEA"/>
<stop offset="0.353541" stop-color="#3378C3"/>
<stop offset="0.477473" stop-color="#5160D3"/>
<stop offset="1" stop-color="#161C22"/>
</radialGradient>
</defs>
</svg>
