<svg width="228" height="228" viewBox="0 0 228 228" fill="none" xmlns="http://www.w3.org/2000/svg">
	<g id="24">
		<g id="Group" filter="url(#filter0_dd_455_1628)">
			<path id="Vector" d="M127.409 134.674L113.62 148.462L99.832 134.674L113.62 120.885C117.439 117.067 117.439 110.915 113.62 107.097L127.409 93.3086C138.793 104.763 138.793 123.219 127.409 134.674Z" fill="white" />
			<path id="Vector_2" d="M113.621 79.5912L127.409 93.3795L113.621 107.168L99.8325 93.3795C96.0142 89.5612 89.8625 89.5612 86.0442 93.3795L72.2559 79.5912C83.7108 68.1363 102.237 68.1363 113.621 79.5912Z" fill="white" />
			<path id="Vector_3" d="M58.5381 93.3801L72.3265 79.5918L86.1148 93.3801L72.3265 107.168C68.5082 110.987 68.5082 117.138 72.3265 120.957L58.5381 134.745C47.154 123.219 47.154 104.764 58.5381 93.3801Z" fill="white" />
			<path id="Vector_4" d="M72.3264 148.463L58.5381 134.675L72.3264 120.887L86.1147 134.675C89.933 138.493 96.0847 138.493 99.903 134.675L113.691 148.463C102.236 159.848 83.7106 159.848 72.3264 148.463Z" fill="white" />
			<path id="Vector_5" d="M113.62 148.463L99.832 134.675L113.62 120.887L127.409 134.675C131.227 138.493 137.379 138.493 141.197 134.675L154.985 148.463C143.53 159.848 125.005 159.848 113.62 148.463Z" fill="white" />
			<path id="Vector_6" d="M168.704 134.674L154.915 148.462L141.127 134.674L154.915 120.885C158.734 117.067 158.734 110.915 154.915 107.097L168.704 93.3086C180.088 104.763 180.088 123.219 168.704 134.674Z" fill="white" />
			<path id="Vector_7" d="M154.915 79.5912L168.703 93.3795L154.915 107.168L141.126 93.3795C137.308 89.5612 131.156 89.5612 127.338 93.3795L113.55 79.5912C125.005 68.1363 143.531 68.1363 154.915 79.5912Z" fill="white" />
			<path id="Vector_8" d="M99.8321 93.3801L113.62 79.5918L127.409 93.3801L113.62 107.168C109.802 110.987 109.802 117.138 113.62 120.957L99.8321 134.745C88.4479 123.219 88.4479 104.764 99.8321 93.3801Z" fill="white" />
		</g>
	</g>
</svg>
