<svg width="228" height="228" viewBox="0 0 228 228" fill="none" xmlns="http://www.w3.org/2000/svg">
	<g id="16">
		<g id="Group" filter="url(#filter0_dd_455_1501)">
			<path id="Vector" d="M65.6667 134.002H79.3334C86.85 134.002 93 127.852 93 120.335V106.669C93 99.152 86.85 93.002 79.3334 93.002H65.6667C58.15 93.002 52 99.152 52 106.669V120.335C52 127.852 58.15 134.002 65.6667 134.002Z" fill="white" />
			<path id="Vector_2" d="M106.667 93H120.333C127.85 93 134 86.85 134 79.3334V65.6667C134 58.15 127.85 52 120.333 52H106.667C99.15 52 93 58.15 93 65.6667V79.3334C93 86.85 99.15 93 106.667 93Z" fill="white" />
			<path id="Vector_3" d="M161.334 134.002H147.667C140.15 134.002 134 127.852 134 120.335V106.669C134 99.152 140.15 93.002 147.667 93.002H161.334C168.851 93.002 175.001 99.152 175.001 106.669V120.335C175.001 127.852 168.851 134.002 161.334 134.002Z" fill="white" />
			<path id="Vector_4" d="M120.333 134H106.667C99.15 134 93 140.15 93 147.667V161.333C93 168.85 99.15 175 106.667 175H120.333C127.85 175 134 168.85 134 161.333V147.667C134 140.15 127.85 134 120.333 134Z" fill="white" />
			<path id="Vector_5" d="M79.3335 93.0007C86.8502 93.0007 93.0002 86.8507 93.0002 79.334C93.0002 86.8507 99.1502 93.0007 106.667 93.0007C99.1502 93.0007 93.0002 99.1507 93.0002 106.667C93.0002 99.1507 86.8502 93.0007 79.3335 93.0007Z" fill="white" />
			<path id="Vector_6" d="M120.333 93.0007C127.849 93.0007 133.999 86.8507 133.999 79.334C133.999 86.8507 140.149 93.0007 147.666 93.0007C140.149 93.0007 133.999 99.1507 133.999 106.667C133.999 99.1507 127.849 93.0007 120.333 93.0007Z" fill="white" />
			<path id="Vector_7" d="M79.3335 134.003C86.8502 134.003 93.0002 127.853 93.0002 120.336C93.0002 127.853 99.1502 134.003 106.667 134.003C99.1502 134.003 93.0002 140.153 93.0002 147.669C93.0002 140.153 86.8502 134.003 79.3335 134.003Z" fill="white" />
			<path id="Vector_8" d="M120.333 134.003C127.849 134.003 133.999 127.853 133.999 120.336C133.999 127.853 140.149 134.003 147.666 134.003C140.149 134.003 133.999 140.153 133.999 147.669C133.999 140.153 127.849 134.003 120.333 134.003Z" fill="white" />
		</g>
	</g>
</svg>
