<svg width="228" height="237" viewBox="0 0 228 237" fill="none" xmlns="http://www.w3.org/2000/svg">
	<g id="27">
		<g id="Group" filter="url(#filter0_dd_455_1636)">
			<path id="Vector" d="M96.9434 77.8085C96.9434 70.3939 98.5653 63.0567 101.809 57.4185C105.053 51.7804 109.301 49 113.549 49C117.797 49 122.045 51.7804 125.289 57.4185C128.532 63.0567 130.154 70.3939 130.154 77.8085C130.154 85.223 128.532 92.5606 125.289 98.1988C122.045 103.837 117.797 106.617 113.549 106.617C109.301 106.617 105.053 103.837 101.809 98.1988C98.5653 92.5606 96.9434 85.1458 96.9434 77.8085Z" fill="white" />
			<path id="Vector_2" d="M69.9881 112.565C63.5777 108.858 58.0166 103.761 54.7727 98.1997C51.5289 92.5616 51.2201 87.5412 53.3827 83.834C55.5452 80.1267 60.1021 77.8867 66.5126 77.8867C73.0003 77.8867 80.1832 80.2039 86.5937 83.834C93.0041 87.5412 98.565 92.6388 101.809 98.1997C105.053 103.838 105.362 108.858 103.199 112.565C101.037 116.272 96.4797 118.512 90.0692 118.512C83.5815 118.512 76.3214 116.272 69.9881 112.565Z" fill="white" />
			<path id="Vector_3" d="M86.5937 153.266C80.1832 156.974 73.0003 159.214 66.5126 159.214C60.0249 159.214 55.468 156.896 53.3827 153.266C51.2201 149.559 51.5289 144.461 54.7727 138.901C58.0166 133.262 63.5777 128.242 69.9881 124.535C76.3986 120.827 83.5815 118.588 90.0692 118.588C96.5569 118.588 101.114 120.905 103.199 124.535C105.362 128.242 105.053 133.34 101.809 138.901C98.565 144.461 93.0041 149.559 86.5937 153.266Z" fill="white" />
			<path id="Vector_4" d="M130.154 159.291C130.154 166.705 128.532 174.043 125.289 179.681C122.045 185.319 117.797 188.1 113.549 188.1C109.301 188.1 105.053 185.319 101.809 179.681C98.5653 174.043 96.9434 166.705 96.9434 159.291C96.9434 151.876 98.5653 144.539 101.809 138.901C105.053 133.263 109.301 130.482 113.549 130.482C117.797 130.482 122.045 133.263 125.289 138.901C128.532 144.462 130.154 151.876 130.154 159.291Z" fill="white" />
			<path id="Vector_5" d="M157.109 124.535C163.519 128.242 169.08 133.34 172.324 138.9C175.568 144.539 175.877 149.559 173.714 153.266C171.552 156.973 166.995 159.213 160.584 159.213C154.097 159.213 146.914 156.896 140.503 153.266C134.093 149.559 128.532 144.461 125.288 138.9C122.044 133.262 121.735 128.242 123.898 124.535C126.06 120.827 130.617 118.588 137.028 118.588C143.515 118.511 150.775 120.827 157.109 124.535Z" fill="white" />
			<path id="Vector_6" d="M140.503 83.7558C146.914 80.0486 154.097 77.8086 160.584 77.8086C167.072 77.8086 171.629 80.1258 173.714 83.7558C175.877 87.4631 175.568 92.5607 172.324 98.1216C169.08 103.76 163.519 108.78 157.109 112.487C150.698 116.195 143.515 118.434 137.028 118.434C130.54 118.434 125.983 116.117 123.898 112.487C121.735 108.78 122.044 103.683 125.288 98.1216C128.532 92.5607 134.093 87.4631 140.503 83.7558Z" fill="white" />
		</g>
	</g>
</svg>
