<svg width="242" height="241" viewBox="0 0 242 241" fill="none" xmlns="http://www.w3.org/2000/svg">
	<g id="22">
		<g id="Group" filter="url(#filter0_dd_455_1572)">
			<path id="Vector" d="M105.159 192C113.963 192 121.101 184.862 121.101 176.057C121.101 167.253 113.963 160.115 105.159 160.115C96.354 160.115 89.2163 167.253 89.2163 176.057C89.2163 184.862 96.354 192 105.159 192Z" fill="white" />
			<path id="Vector_2" d="M137.043 192C145.848 192 152.986 184.862 152.986 176.057C152.986 167.253 145.848 160.115 137.043 160.115C128.239 160.115 121.101 167.253 121.101 176.057C121.101 184.862 128.239 192 137.043 192Z" fill="white" />
			<path id="Vector_3" d="M163.961 174.695C172.766 174.695 179.904 167.557 179.904 158.753C179.904 149.948 172.766 142.811 163.961 142.811C155.157 142.811 148.019 149.948 148.019 158.753C148.019 167.557 155.157 174.695 163.961 174.695Z" fill="white" />
			<path id="Vector_4" d="M177.26 145.617C186.065 145.617 193.202 138.479 193.202 129.675C193.202 120.87 186.065 113.732 177.26 113.732C168.455 113.732 161.317 120.87 161.317 129.675C161.317 138.479 168.455 145.617 177.26 145.617Z" fill="white" />
			<path id="Vector_5" d="M172.693 114.05C181.498 114.05 188.636 106.913 188.636 98.1083C188.636 89.3036 181.498 82.166 172.693 82.166C163.889 82.166 156.751 89.3036 156.751 98.1083C156.751 106.913 163.889 114.05 172.693 114.05Z" fill="white" />
			<path id="Vector_6" d="M151.784 89.8571C160.588 89.8571 167.726 82.7196 167.726 73.9149C167.726 65.1102 160.588 57.9727 151.784 57.9727C142.979 57.9727 135.841 65.1102 135.841 73.9149C135.841 82.7196 142.979 89.8571 151.784 89.8571Z" fill="white" />
			<path id="Vector_7" d="M121.101 80.8849C129.906 80.8849 137.043 73.7473 137.043 64.9426C137.043 56.1379 129.906 49 121.101 49C112.296 49 105.159 56.1379 105.159 64.9426C105.159 73.7473 112.296 80.8849 121.101 80.8849Z" fill="white" />
			<path id="Vector_8" d="M90.4173 89.8571C99.222 89.8571 106.36 82.7196 106.36 73.9149C106.36 65.1102 99.222 57.9727 90.4173 57.9727C81.6126 57.9727 74.4751 65.1102 74.4751 73.9149C74.4751 82.7196 81.6126 89.8571 90.4173 89.8571Z" fill="white" />
			<path id="Vector_9" d="M69.5088 114.05C78.3135 114.05 85.4511 106.913 85.4511 98.1083C85.4511 89.3036 78.3135 82.166 69.5088 82.166C60.7041 82.166 53.5664 89.3036 53.5664 98.1083C53.5664 106.913 60.7041 114.05 69.5088 114.05Z" fill="white" />
			<path id="Vector_10" d="M64.9422 145.617C73.7469 145.617 80.8847 138.479 80.8847 129.675C80.8847 120.87 73.7469 113.732 64.9422 113.732C56.1375 113.732 49 120.87 49 129.675C49 138.479 56.1375 145.617 64.9422 145.617Z" fill="white" />
			<path id="Vector_11" d="M78.2406 174.695C87.0453 174.695 94.1828 167.557 94.1828 158.753C94.1828 149.948 87.0453 142.811 78.2406 142.811C69.4359 142.811 62.2983 149.948 62.2983 158.753C62.2983 167.557 69.4359 174.695 78.2406 174.695Z" fill="white" />
		</g>
	</g>
</svg>
