<svg width="228" height="228" viewBox="0 0 228 228" fill="none" xmlns="http://www.w3.org/2000/svg">
	<g id="2">
		<g id="Vector" filter="url(#filter0_dd_455_903)">
			<path fill-rule="evenodd" clip-rule="evenodd" d="M141.044 65.3696C155.433 75.5998 162.998 91.8217 162.807 112.036C162.747 118.403 160.126 129.874 158.469 131.019C157.918 131.399 156.735 134.25 155.838 137.351C153.451 145.613 140.767 160.83 137.089 159.844C136.357 159.648 134.709 157.359 133.427 154.756L131.095 150.024L129.108 153.096C128.015 154.785 127.018 156.804 126.892 157.583C126.767 158.362 126.08 160.959 125.366 163.352C124.155 167.419 123.674 167.781 118.006 168.89C114.672 169.542 108.473 169.507 104.231 168.811L96.5198 167.545L99.6339 155.923C101.555 148.752 102.398 143.866 101.833 143.168C101.316 142.528 96.4257 145.109 90.5844 149.106C81.5621 155.279 80.034 155.94 78.5417 154.317C76.0301 151.589 70.7671 140.881 68.8052 134.511L67.0981 128.965L77.4491 121.603C83.142 117.554 87.6557 113.598 87.4777 112.812C87.2927 111.991 82.9661 110.261 77.2848 108.738L67.4133 106.093L70.1891 98.0656C71.7154 93.6502 74.802 87.1686 77.0473 83.6618C80.9689 77.5365 81.2804 77.3212 84.9534 78.1663C87.0565 78.6506 89.8159 79.4367 91.0869 79.9124C92.3578 80.3881 94.2703 80.286 95.337 79.6869C97.0106 78.7464 96.93 77.84 94.7451 73.0851L92.213 67.5745L95.9355 65.2028C102.487 61.0281 113.592 58.2997 119.052 59.5224C121.803 60.1386 124.461 60.3612 124.961 60.0169C126.447 58.9885 137.017 62.5068 141.044 65.3696ZM148.708 76.2286C148.549 77.0801 148.106 78.6529 147.722 79.7233C146.578 82.9132 154.073 96.8311 157.417 97.7271C160.573 98.5728 160.595 100.504 157.475 102.894C156.347 103.758 154.331 107.736 152.961 111.8C150.906 117.9 150.697 119.769 151.733 122.823C153.301 127.44 151.738 129.988 147.961 128.975C144.106 127.942 132.62 135.796 131.416 140.287C130.223 144.74 128.983 145.083 127.134 141.473C124.622 136.567 114.495 133.657 109.092 136.29C104.625 138.466 103.573 137.28 105.034 131.711C106.108 127.621 100.706 116.321 97.2165 115.359C92.6338 114.095 92.2209 112.299 95.7946 109.165C98.4897 106.801 99.316 105.044 100.895 98.3129C102.304 92.3095 102.441 89.5085 101.441 87.2161C99.6178 83.0415 100.017 82.3468 103.681 83.3286C108.141 84.5236 119.655 77.0844 120.976 72.1528C122.222 67.505 124.683 67.3018 127.582 71.6076C129.546 74.5205 130.937 75.2778 135.822 76.0879C139.228 76.6535 142.728 76.4271 144.142 75.5495C147.032 73.7567 149.11 74.0651 148.708 76.2286Z" fill="white" />
		</g>
	</g>
</svg>
