<svg width="228" height="228" viewBox="0 0 228 228" fill="none" xmlns="http://www.w3.org/2000/svg">
	<g id="11">
		<g id="Group" filter="url(#filter0_dd_455_1448)">
			<path id="Vector" d="M66.5 171H76C81.2567 171 85.5 166.757 85.5 161.5V152C85.5 146.743 81.2567 142.5 76 142.5H66.5C61.2433 142.5 57 146.743 57 152V161.5C57 166.757 61.2433 171 66.5 171Z" fill="white" />
			<path id="Vector_2" d="M95 142.5H104.5C109.757 142.5 114 138.257 114 133V123.5C114 118.243 109.757 114 104.5 114H95C89.7433 114 85.5 118.243 85.5 123.5V133C85.5 138.257 89.7433 142.5 95 142.5Z" fill="white" />
			<path id="Vector_3" d="M152 85.5H161.5C166.757 85.5 171 81.2567 171 76V66.5C171 61.2433 166.757 57 161.5 57H152C146.743 57 142.5 61.2433 142.5 66.5V76C142.5 81.2567 146.743 85.5 152 85.5Z" fill="white" />
			<path id="Vector_4" d="M66.5 114H76C81.2567 114 85.5 109.757 85.5 104.5V95C85.5 89.7433 81.2567 85.5 76 85.5H66.5C61.2433 85.5 57 89.7433 57 95V104.5C57 109.757 61.2433 114 66.5 114Z" fill="white" />
			<path id="Vector_5" d="M95 85.5H104.5C109.757 85.5 114 81.2567 114 76V66.5C114 61.2433 109.757 57 104.5 57H95C89.7433 57 85.5 61.2433 85.5 66.5V76C85.5 81.2567 89.7433 85.5 95 85.5Z" fill="white" />
			<path id="Vector_6" d="M123.5 171H133C138.257 171 142.5 166.757 142.5 161.5V152C142.5 146.743 138.257 142.5 133 142.5H123.5C118.243 142.5 114 146.743 114 152V161.5C114 166.757 118.243 171 123.5 171Z" fill="white" />
			<path id="Vector_7" d="M123.5 114H133C138.257 114 142.5 109.757 142.5 104.5V95C142.5 89.7433 138.257 85.5 133 85.5H123.5C118.243 85.5 114 89.7433 114 95V104.5C114 109.757 118.243 114 123.5 114Z" fill="white" />
			<path id="Vector_8" d="M152 142.5H161.5C166.757 142.5 171 138.257 171 133V123.5C171 118.243 166.757 114 161.5 114H152C146.743 114 142.5 118.243 142.5 123.5V133C142.5 138.257 146.743 142.5 152 142.5Z" fill="white" />
			<path id="Vector_9" d="M142.5 123.5C142.5 118.243 138.257 114 133 114C138.257 114 142.5 109.757 142.5 104.5C142.5 109.757 146.743 114 152 114C146.743 114 142.5 118.243 142.5 123.5Z" fill="white" />
			<path id="Vector_10" d="M114 95C114 89.7433 109.757 85.5 104.5 85.5C109.757 85.5 114 81.2567 114 76C114 81.2567 118.243 85.5 123.5 85.5C118.243 85.5 114 89.7433 114 95Z" fill="white" />
			<path id="Vector_11" d="M114 152C114 146.743 109.757 142.5 104.5 142.5C109.757 142.5 114 138.257 114 133C114 138.257 118.243 142.5 123.5 142.5C118.243 142.5 114 146.743 114 152Z" fill="white" />
			<path id="Vector_12" d="M85.5 123.5C85.5 118.243 81.2567 114 76 114C81.2567 114 85.5 109.757 85.5 104.5C85.5 109.757 89.7433 114 95 114C89.7433 114 85.5 118.243 85.5 123.5Z" fill="white" />
			<path id="Vector_13" d="M85.5 152C85.5 146.743 81.2567 142.5 76 142.5C81.2567 142.5 85.5 138.257 85.5 133C85.5 138.257 89.7433 142.5 95 142.5C89.7433 142.5 85.5 146.743 85.5 152Z" fill="white" />
			<path id="Vector_14" d="M142.5 95C142.5 89.7433 138.257 85.5 133 85.5C138.257 85.5 142.5 81.2567 142.5 76C142.5 81.2567 146.743 85.5 152 85.5C146.743 85.5 142.5 89.7433 142.5 95Z" fill="white" />
			<path id="Vector_15" d="M85.5 95C85.5 89.7433 81.2567 85.5 76 85.5C81.2567 85.5 85.5 81.2567 85.5 76C85.5 81.2567 89.7433 85.5 95 85.5C89.7433 85.5 85.5 89.7433 85.5 95Z" fill="white" />
			<path id="Vector_16" d="M142.5 152C142.5 146.743 138.257 142.5 133 142.5C138.257 142.5 142.5 138.257 142.5 133C142.5 138.257 146.743 142.5 152 142.5C146.743 142.5 142.5 146.743 142.5 152Z" fill="white" />
		</g>
	</g>
</svg>
