<svg width="240" height="240" viewBox="0 0 240 240" fill="none" xmlns="http://www.w3.org/2000/svg">
	<g id="26">
		<g id="Group" filter="url(#filter0_dd_455_1635)">
			<path id="Vector" d="M77.3999 148.4V120H105.8V148.4C105.8 156.21 112.19 162.6 120 162.6V191C96.491 191 77.3999 171.909 77.3999 148.4Z" fill="white" />
			<path id="Vector_2" d="M148.4 162.6H120V134.2H148.4C156.21 134.2 162.6 127.81 162.6 120H191C191 143.509 171.909 162.6 148.4 162.6Z" fill="white" />
			<path id="Vector_3" d="M162.6 91.6V120H134.2V91.6C134.2 83.79 127.81 77.4 120 77.4V49C143.509 49 162.6 68.0122 162.6 91.6Z" fill="white" />
			<path id="Vector_4" d="M91.6 77.4004H120V105.8H91.6C83.79 105.8 77.4 112.19 77.4 120H49C49 96.4126 68.0911 77.4004 91.6 77.4004Z" fill="white" />
		</g>
	</g>
</svg>
