<svg width="234" height="228" viewBox="0 0 234 228" fill="none" xmlns="http://www.w3.org/2000/svg">
	<g id="12">
		<g id="Group" filter="url(#filter0_dd_455_1457)">
			<path id="Vector" d="M64.1667 159H79.3333C87.675 159 94.5 152.175 94.5 143.833V128.667C94.5 120.325 87.675 113.5 79.3333 113.5H64.1667C55.825 113.5 49 120.325 49 128.667V143.833C49 152.175 55.825 159 64.1667 159Z" fill="white" />
			<path id="Vector_2" d="M109.667 113.5H124.833C133.175 113.5 140 106.675 140 98.3333V83.1667C140 74.825 133.175 68 124.833 68H109.667C101.325 68 94.5 74.825 94.5 83.1667V98.3333C94.5 106.675 101.325 113.5 109.667 113.5Z" fill="white" />
			<path id="Vector_3" d="M170.333 159H155.167C146.825 159 140 152.175 140 143.833V128.667C140 120.325 146.825 113.5 155.167 113.5H170.333C178.675 113.5 185.5 120.325 185.5 128.667V143.833C185.5 152.175 178.675 159 170.333 159Z" fill="white" />
			<path id="Vector_4" d="M79.3335 113.501C87.6752 113.501 94.5002 106.676 94.5002 98.334C94.5002 106.676 101.325 113.501 109.667 113.501C101.325 113.501 94.5002 120.326 94.5002 128.667C94.5002 120.326 87.6752 113.501 79.3335 113.501Z" fill="white" />
			<path id="Vector_5" d="M124.833 113.501C133.175 113.501 140 106.676 140 98.334C140 106.676 146.825 113.501 155.167 113.501C146.825 113.501 140 120.326 140 128.667C140 120.326 133.175 113.501 124.833 113.501Z" fill="white" />
		</g>
	</g>
</svg>
