<svg width="28" height="29" viewBox="0 0 28 29" fill="none" xmlns="http://www.w3.org/2000/svg">
<g id="Frame 6012627">
<g clip-path="url(#clip0_1258_932)">
<path id="Vector" fill-rule="evenodd" clip-rule="evenodd" d="M4.24658 0.417017C2.24625 0.846723 0.655561 2.37331 0.120657 4.37665L0 4.82848V14.3306V23.8328L0.127124 24.2983C0.651398 26.2178 2.10449 27.6699 4.0274 28.1962L4.49315 28.3237H14H23.5068L23.9726 28.1967C24.9236 27.9371 25.7508 27.4583 26.4425 26.767C27.1342 26.0757 27.6132 25.2489 27.8729 24.2983L28 23.8328V14.3306V4.82848L27.8729 4.36296C27.3534 2.46089 25.9125 1.00998 24 0.463077L23.5616 0.337714L14.137 0.327308C5.19392 0.317505 4.68855 0.32205 4.24658 0.417017ZM13.4235 5.39648C13.1517 5.51987 12.8839 5.78182 12.7239 6.0808L12.6027 6.3072V10.4695C12.6027 13.8456 12.6169 14.6733 12.6776 14.8509C12.7376 15.0264 13.3533 15.672 15.7721 18.0957C17.9893 20.3173 18.8576 21.1529 19.0397 21.2403C19.4213 21.4235 19.9163 21.4086 20.2942 21.2028C20.7802 20.938 21.0316 20.5068 21.0291 19.9421C21.0281 19.7125 20.9904 19.5365 20.906 19.3671C20.8215 19.1972 19.9683 18.3051 18.1059 16.4392L15.4272 13.7556L15.4123 10.0314L15.3973 6.3072L15.2761 6.0808C15.1161 5.78182 14.8483 5.51987 14.5765 5.39648C14.2821 5.26279 13.7179 5.26279 13.4235 5.39648Z" fill="white" fill-opacity="0.8"/>
</g>
</g>
<defs>
<clipPath id="clip0_1258_932">
<rect y="0.32373" width="28" height="28" rx="14" fill="white"/>
</clipPath>
</defs>
</svg>
