<svg width="42" height="24" viewBox="0 0 42 24" fill="none" xmlns="http://www.w3.org/2000/svg">
<g id="Frame 6012626">
<path id="Vector" fill-rule="evenodd" clip-rule="evenodd" d="M19.3662 0.844238C16.3876 1.11256 13.7785 1.82449 11.1896 3.07535C10.8632 3.23302 9.89618 3.77993 9.33715 4.12293C8.02635 4.9272 7.0971 5.67783 5.07726 7.56396C4.41385 8.18346 3.75059 8.80311 3.08742 9.42286C1.41024 10.9902 1.39581 13.6429 3.07614 15.2069C3.88461 15.9594 4.69524 16.7096 5.50452 17.461C6.21101 18.117 7.05724 18.8672 7.38496 19.1282C10.9353 21.9554 15.2634 23.5653 19.9392 23.798C22.0278 23.9019 24.4093 23.6874 26.2708 23.2275C29.5371 22.4206 32.3188 21.06 34.833 19.0392C35.1021 18.8229 35.9338 18.0781 36.6811 17.3841C37.7452 16.3959 38.7807 15.4294 39.651 14.6152C41.0243 13.3304 41.0772 11.4439 39.7236 10.1382C39.0489 9.48732 38.1748 8.65164 37.0424 7.57914C34.8683 5.54776 34.0899 4.92837 32.4902 3.95712C30.564 2.7877 28.7866 2.05197 26.3941 1.43369C25.6847 1.25037 24.808 1.09323 23.5799 0.929329C22.9963 0.851442 19.9657 0.790204 19.3662 0.844238ZM20.1882 4.7042C19.2249 4.79801 18.3418 5.02918 17.4346 5.42509C15.1701 6.41333 13.5811 8.17006 12.9021 10.4361C12.649 11.2808 12.6255 13.1977 12.858 14.0291C13.1784 15.1746 13.6182 16.0092 14.3972 16.9499C15.6261 18.4342 17.3989 19.4441 19.4484 19.8271C19.8309 19.8986 20.1908 19.9193 21.0513 19.9193C21.9118 19.9193 22.2717 19.8986 22.6541 19.8271C25.4922 19.2967 27.8131 17.5337 28.8698 15.1057C29.3575 13.9848 29.5586 12.3823 29.3592 11.2034C28.9321 8.6773 27.2209 6.55075 24.722 5.44077C24.038 5.13696 23.5551 4.98859 22.7326 4.82955C22.0367 4.69505 20.8719 4.63766 20.1882 4.7042ZM20.4645 8.49835C19.0078 8.68002 17.6849 9.65307 17.0969 10.9753C16.8557 11.5179 16.7953 12.6573 16.9754 13.2698C17.3511 14.5468 18.4082 15.5706 19.771 15.9771C20.2173 16.1102 20.3271 16.1222 21.0861 16.1204C21.8641 16.1185 21.9443 16.1088 22.4076 15.9587C23.5411 15.5916 24.516 14.7455 24.9678 13.7371C25.1604 13.307 25.1867 13.1539 25.194 12.4227C25.1986 11.9676 25.1714 11.5087 25.1339 11.403L25.0654 11.2109L24.8307 11.5004C24.139 12.353 22.9654 12.534 21.9867 11.9391C21.5057 11.6467 21.2619 11.317 21.1161 10.7615C20.9458 10.1131 21.2675 9.33695 21.876 8.92751C22.0553 8.80688 22.2021 8.68854 22.2021 8.66454C22.2021 8.53958 21.0315 8.42762 20.4645 8.49835Z" fill="white" fill-opacity="0.8"/>
</g>
</svg>
