<svg width="46" height="29" viewBox="0 0 46 29" fill="none" xmlns="http://www.w3.org/2000/svg">
<g id="Frame 6012625">
<path id="Vector" fill-rule="evenodd" clip-rule="evenodd" d="M10.0898 0.360428C8.78876 0.480927 7.53943 1.08409 6.60639 2.04216C5.84624 2.82264 5.33969 3.78078 5.10113 4.8892C5.00575 5.33223 5 5.82147 5 13.4568C5 21.0921 5.00575 21.5814 5.10113 22.0244C5.33969 23.1328 5.84624 24.091 6.60639 24.8714C7.59393 25.8855 8.79993 26.4402 10.2815 26.562C10.7306 26.5989 22.6659 26.6117 27.6454 26.5984C36.069 26.576 35.5945 26.5944 36.498 26.2546L36.8368 26.1272L39.2119 27.2244C40.5183 27.8279 41.6506 28.3226 41.7281 28.3237C41.9076 28.3263 42.0025 28.2314 41.9999 28.0521C41.9988 27.9746 41.5037 26.8433 40.8997 25.5382L39.8015 23.1652L39.9305 22.8228C40.0014 22.6345 40.1044 22.2721 40.1594 22.0175C40.2531 21.583 40.2593 21.0567 40.2593 13.4568C40.2593 4.42948 40.2831 5.0212 39.8771 3.94019C39.3408 2.51211 38.0729 1.24554 36.6449 0.711257C35.5713 0.309575 36.2174 0.336715 27.4518 0.324942C23.1157 0.319082 10.3637 0.335057 10.0898 0.360428Z" fill="white" fill-opacity="0.8"/>
</g>
</svg>
