<svg width="547" height="337" viewBox="0 0 547 337" fill="none" xmlns="http://www.w3.org/2000/svg">
<path d="M304.527 232.888L303.487 231.52C294.585 220 286.911 210.059 280.396 201.174C259.612 174.861 244.238 159.668 222.574 154.819C200.909 149.971 172.756 155.423 128.425 167.175C122.521 168.864 115.774 170.736 107.847 172.917C98.5453 175.476 88.5025 178.206 77.7513 181.114L75.6793 181.684L75.2156 181.074L77.3102 180.498C87.9996 177.509 97.9786 174.731 107.28 172.172C115.208 169.992 121.962 168.166 127.961 166.565C171.758 154.076 197.026 144.832 205.09 131.806C213.154 118.78 204.097 101.866 184.541 75.1987C177.589 66.3848 170.065 56.353 161.347 44.717L160.4 43.4713L161.413 43.1925L162.454 44.5602C171.355 56.08 179.029 66.0216 185.544 74.9063C206.329 101.22 221.702 116.413 243.367 121.261C265.031 126.109 293.185 120.658 337.515 108.906C343.42 107.216 350.166 105.344 358.094 103.163C367.395 100.605 377.438 97.8747 388.189 94.9665L390.261 94.3965L390.725 95.0059L388.63 95.582C377.941 98.5716 367.984 101.343 358.683 103.902C350.755 106.082 344.001 107.908 338.001 109.509C294.205 121.998 268.937 131.242 260.873 144.268C252.809 157.294 261.866 174.208 281.422 200.875C288.373 209.689 295.898 219.721 304.615 231.357L305.563 232.603L304.55 232.882L304.527 232.888Z" fill="url(#paint0_linear_195_795)"/>
<path d="M198.03 392.81L196.99 391.442C188.088 379.922 180.414 369.981 173.899 361.096C153.114 334.782 137.741 319.59 116.077 314.741C94.4118 309.893 66.2586 315.344 21.928 327.097C16.0235 328.786 9.27729 330.658 1.34966 332.839C-7.95179 335.398 -17.9946 338.127 -28.7458 341.036L-30.8178 341.606L-31.2814 340.996L-29.1869 340.42C-18.4975 337.431 -8.51851 334.653 0.782947 332.094C8.71058 329.914 15.4652 328.088 21.4643 326.487C65.261 313.998 90.5292 304.754 98.5931 291.728C106.657 278.702 97.6002 261.788 78.044 235.121C71.0924 226.307 63.568 216.275 54.8504 204.639L53.9025 203.393L54.9159 203.114L55.9566 204.482C64.8583 216.002 72.5318 225.943 79.0471 234.828C99.8317 261.142 115.205 276.334 136.87 281.183C158.534 286.031 186.688 280.58 231.018 268.827C236.923 267.138 243.669 265.266 251.597 263.085C260.898 260.526 270.941 257.797 281.692 254.888L283.764 254.318L284.228 254.928L282.133 255.504C271.444 258.493 261.487 261.265 252.186 263.824C244.258 266.004 237.504 267.83 231.504 269.431C187.708 281.92 162.439 291.164 154.376 304.19C146.312 317.216 155.369 334.13 174.925 360.797C181.876 369.611 189.401 379.643 198.118 391.279L199.066 392.525L198.053 392.804L198.03 392.81Z" fill="url(#paint1_linear_195_795)"/>
<path d="M388.734 341.224L387.694 339.856C378.792 328.336 371.118 318.395 364.603 309.51C343.819 283.196 328.445 268.004 306.781 263.155C285.116 258.307 256.963 263.758 212.632 275.511C206.728 277.2 199.981 279.072 192.054 281.253C182.752 283.812 172.71 286.541 161.958 289.45L159.886 290.02L159.423 289.41L161.517 288.834C172.207 285.845 182.186 283.067 191.487 280.508C199.415 278.328 206.169 276.502 212.168 274.901C255.965 262.412 281.233 253.168 289.297 240.142C297.361 227.116 288.304 210.202 268.748 183.535C261.796 174.721 254.272 164.689 245.554 153.053L244.607 151.807L245.62 151.528L246.661 152.896C255.562 164.416 263.236 174.358 269.751 183.242C290.536 209.556 305.909 224.748 327.574 229.597C349.239 234.445 377.392 228.994 421.722 217.242C427.627 215.552 434.373 213.68 442.301 211.499C451.602 208.94 461.645 206.211 472.396 203.302L474.468 202.732L474.932 203.342L472.837 203.918C462.148 206.908 452.191 209.679 442.89 212.238C434.962 214.418 428.208 216.244 422.208 217.845C378.412 230.334 353.144 239.578 345.08 252.604C337.016 265.63 346.073 282.544 365.629 309.211C372.58 318.025 380.105 328.057 388.822 339.693L389.77 340.939L388.757 341.218L388.734 341.224Z" fill="url(#paint2_linear_195_795)"/>
<defs>
<linearGradient id="paint0_linear_195_795" x1="135.235" y1="25.9176" x2="253.703" y2="188.808" gradientUnits="userSpaceOnUse">
<stop offset="0.347596" stop-color="#61B5FF"/>
<stop offset="1" stop-color="#035CEA"/>
</linearGradient>
<linearGradient id="paint1_linear_195_795" x1="-103" y1="16.5" x2="-144.511" y2="317.6" gradientUnits="userSpaceOnUse">
<stop offset="0.695191" stop-color="#3F94F7"/>
<stop offset="1" stop-color="#035CEA"/>
</linearGradient>
<linearGradient id="paint2_linear_195_795" x1="18" y1="-120" x2="-28.1955" y2="272.944" gradientUnits="userSpaceOnUse">
<stop stop-color="#FF9E91"/>
<stop offset="0.309436" stop-color="#B2BAFF"/>
<stop offset="0.693277" stop-color="#035CEA"/>
</linearGradient>
</defs>
</svg>
