<svg viewBox="0 0 146 30" fill="none" xmlns="http://www.w3.org/2000/svg">
	<path d="M5.66667 27.3242C5.66667 28.797 4.47276 29.9909 3 29.9909C1.52724 29.9909 0.333328 28.797 0.333328 27.3242C0.333328 25.8515 1.52724 24.6576 3 24.6576C4.47276 24.6576 5.66667 25.8515 5.66667 27.3242ZM145.667 3.32422C145.667 4.79698 144.473 5.99089 143 5.99089C141.527 5.99089 140.333 4.79698 140.333 3.32422C140.333 1.85146 141.527 0.657552 143 0.657552C144.473 0.657552 145.667 1.85146 145.667 3.32422ZM143.5 3.32422V5.32422H142.5V3.32422H143.5ZM143.5 9.32422V13.3242H142.5V9.32422H143.5ZM143.5 17.3242V19.3242H142.5V17.3242H143.5ZM143.5 19.3242C143.5 20.4758 143.271 21.5751 142.855 22.578L141.931 22.195C142.298 21.3114 142.5 20.3421 142.5 19.3242H143.5ZM138.254 27.179C137.251 27.5949 136.152 27.8242 135 27.8242V26.8242C136.018 26.8242 136.987 26.6217 137.871 26.2553L138.254 27.179ZM135 27.8242H132.462V26.8242H135V27.8242ZM127.385 27.8242H122.308V26.8242H127.385V27.8242ZM117.231 27.8242H112.154V26.8242H117.231V27.8242ZM107.077 27.8242H102V26.8242H107.077V27.8242ZM96.9231 27.8242H91.8462V26.8242H96.9231V27.8242ZM86.7692 27.8242H81.6923V26.8242H86.7692V27.8242ZM76.6154 27.8242H71.5385V26.8242H76.6154V27.8242ZM66.4615 27.8242H61.3846V26.8242H66.4615V27.8242ZM56.3077 27.8242H51.2308V26.8242H56.3077V27.8242ZM46.1539 27.8242H41.0769V26.8242H46.1539V27.8242ZM36 27.8242H30.9231V26.8242H36V27.8242ZM25.8462 27.8242H20.7693V26.8242H25.8462V27.8242ZM15.6923 27.8242H10.6154V26.8242H15.6923V27.8242ZM5.5385 27.8242H3V26.8242H5.5385V27.8242Z" fill="white" />
</svg>
