<svg width="228" height="228" viewBox="0 0 228 228" fill="none" xmlns="http://www.w3.org/2000/svg">
	<g id="21">
		<g id="Group">
			<path id="Vector" d="M56.8319 127.199H65.6638C70.5213 127.199 74.4956 123.239 74.4956 118.399V109.599C74.4956 104.759 70.5213 100.799 65.6638 100.799H56.8319C51.9743 100.799 48 104.759 48 109.599V118.399C48 123.239 51.9743 127.199 56.8319 127.199Z" fill="white" />
			<path id="Vector_2" d="M83.3304 100.8H92.1623C97.0198 100.8 100.994 96.8402 100.994 92.0003V83.2003C100.994 78.3604 97.0198 74.4004 92.1623 74.4004H83.3304C78.4729 74.4004 74.4985 78.3604 74.4985 83.2003V92.0003C74.4985 96.8402 78.4729 100.8 83.3304 100.8Z" fill="white" />
			<path id="Vector_3" d="M56.8319 179.999H65.6638C70.5213 179.999 74.4956 176.039 74.4956 171.199V162.4C74.4956 157.56 70.5213 153.6 65.6638 153.6H56.8319C51.9743 153.6 48 157.56 48 162.4V171.199C48 176.039 51.9743 179.999 56.8319 179.999Z" fill="white" />
			<path id="Vector_4" d="M83.3304 153.599H92.1623C97.0198 153.599 100.994 149.639 100.994 144.799V135.999C100.994 131.159 97.0198 127.199 92.1623 127.199H83.3304C78.4729 127.199 74.4985 131.159 74.4985 135.999V144.799C74.4985 149.639 78.4729 153.599 83.3304 153.599Z" fill="white" />
			<path id="Vector_5" d="M136.323 100.8H145.155C150.012 100.8 153.987 96.8402 153.987 92.0003V83.2003C153.987 78.3604 150.012 74.4004 145.155 74.4004H136.323C131.466 74.4004 127.491 78.3604 127.491 83.2003V92.0003C127.491 96.8402 131.466 100.8 136.323 100.8Z" fill="white" />
			<path id="Vector_6" d="M162.822 74.3998H171.653C176.511 74.3998 180.485 70.4398 180.485 65.5999V56.7999C180.485 51.96 176.511 48 171.653 48H162.822C157.964 48 153.99 51.96 153.99 56.7999V65.5999C153.99 70.4398 157.964 74.3998 162.822 74.3998Z" fill="white" />
			<path id="Vector_7" d="M65.6638 74.3998H56.8319C51.9743 74.3998 48 70.4398 48 65.5999V56.7999C48 51.96 51.9743 48 56.8319 48H65.6638C70.5213 48 74.4956 51.96 74.4956 56.7999V65.5999C74.4956 70.4398 70.5213 74.3998 65.6638 74.3998Z" fill="white" />
			<path id="Vector_8" d="M109.827 74.3998H118.659C123.516 74.3998 127.491 70.4398 127.491 65.5999V56.7999C127.491 51.96 123.516 48 118.659 48H109.827C104.969 48 100.995 51.96 100.995 56.7999V65.5999C100.995 70.4398 104.969 74.3998 109.827 74.3998Z" fill="white" />
			<path id="Vector_9" d="M171.653 100.799H162.822C157.964 100.799 153.99 104.759 153.99 109.599V118.399C153.99 123.239 157.964 127.199 162.822 127.199H171.653C176.511 127.199 180.485 123.239 180.485 118.399V109.599C180.485 104.759 176.511 100.799 171.653 100.799Z" fill="white" />
			<path id="Vector_10" d="M145.155 127.199H136.323C131.466 127.199 127.491 131.159 127.491 135.999V144.799C127.491 149.639 131.466 153.599 136.323 153.599H145.155C150.012 153.599 153.987 149.639 153.987 144.799V135.999C153.987 131.159 150.012 127.199 145.155 127.199Z" fill="white" />
			<path id="Vector_11" d="M162.822 153.6H171.653C176.511 153.6 180.485 157.56 180.485 162.4V171.199C180.485 176.039 176.511 179.999 171.653 179.999H162.822C157.964 179.999 153.99 176.039 153.99 171.199V162.4C153.99 157.56 157.964 153.6 162.822 153.6Z" fill="white" />
			<path id="Vector_12" d="M118.659 153.6H109.827C104.969 153.6 100.995 157.56 100.995 162.4V171.199C100.995 176.039 104.969 179.999 109.827 179.999H118.659C123.516 179.999 127.491 176.039 127.491 171.199V162.4C127.491 157.56 123.516 153.6 118.659 153.6Z" fill="white" />
			<path id="Vector_13" d="M83.3229 153.597C78.4654 153.597 74.4911 157.557 74.4911 162.397C74.4911 157.557 70.5167 153.597 65.6592 153.597C70.5167 153.597 74.4911 149.637 74.4911 144.797C74.4911 149.637 78.4654 153.597 83.3229 153.597Z" fill="white" />
			<path id="Vector_14" d="M109.82 153.597C104.963 153.597 100.989 157.557 100.989 162.397C100.989 157.557 97.0143 153.597 92.1567 153.597C97.0143 153.597 100.989 149.637 100.989 144.797C100.989 149.637 104.963 153.597 109.82 153.597Z" fill="white" />
			<path id="Vector_15" d="M136.318 153.597C131.461 153.597 127.486 157.557 127.486 162.397C127.486 157.557 123.512 153.597 118.654 153.597C123.512 153.597 127.486 149.637 127.486 144.797C127.486 149.637 131.461 153.597 136.318 153.597Z" fill="white" />
			<path id="Vector_16" d="M162.817 153.597C157.959 153.597 153.985 157.557 153.985 162.397C153.985 157.557 150.01 153.597 145.153 153.597C150.01 153.597 153.985 149.637 153.985 144.797C153.985 149.637 157.959 153.597 162.817 153.597Z" fill="white" />
			<path id="Vector_17" d="M83.3229 74.4015C78.4654 74.4015 74.4911 78.3615 74.4911 83.2014C74.4911 78.3615 70.5167 74.4015 65.6592 74.4015C70.5167 74.4015 74.4911 70.4415 74.4911 65.6016C74.4911 70.4415 78.4654 74.4015 83.3229 74.4015Z" fill="white" />
			<path id="Vector_18" d="M109.82 74.4015C104.963 74.4015 100.989 78.3615 100.989 83.2014C100.989 78.3615 97.0143 74.4015 92.1567 74.4015C97.0143 74.4015 100.989 70.4415 100.989 65.6016C100.989 70.4415 104.963 74.4015 109.82 74.4015Z" fill="white" />
			<path id="Vector_19" d="M136.318 74.4015C131.461 74.4015 127.486 78.3615 127.486 83.2014C127.486 78.3615 123.512 74.4015 118.654 74.4015C123.512 74.4015 127.486 70.4415 127.486 65.6016C127.486 70.4415 131.461 74.4015 136.318 74.4015Z" fill="white" />
			<path id="Vector_20" d="M162.817 74.4015C157.959 74.4015 153.985 78.3615 153.985 83.2014C153.985 78.3615 150.01 74.4015 145.153 74.4015C150.01 74.4015 153.985 70.4415 153.985 65.6016C153.985 70.4415 157.959 74.4015 162.817 74.4015Z" fill="white" />
			<path id="Vector_21" d="M83.3229 100.8C78.4654 100.8 74.4911 104.76 74.4911 109.6C74.4911 104.76 70.5167 100.8 65.6592 100.8C70.5167 100.8 74.4911 96.84 74.4911 92C74.4911 96.84 78.4654 100.8 83.3229 100.8Z" fill="white" />
			<path id="Vector_22" d="M83.3229 127.2C78.4654 127.2 74.4911 131.16 74.4911 136C74.4911 131.16 70.5167 127.2 65.6592 127.2C70.5167 127.2 74.4911 123.24 74.4911 118.4C74.4911 123.24 78.4654 127.2 83.3229 127.2Z" fill="white" />
			<path id="Vector_23" d="M162.817 100.8C157.959 100.8 153.985 104.76 153.985 109.6C153.985 104.76 150.01 100.8 145.153 100.8C150.01 100.8 153.985 96.84 153.985 92C153.985 96.84 157.959 100.8 162.817 100.8Z" fill="white" />
			<path id="Vector_24" d="M162.817 127.2C157.959 127.2 153.985 131.16 153.985 136C153.985 131.16 150.01 127.2 145.153 127.2C150.01 127.2 153.985 123.24 153.985 118.4C153.985 123.24 157.959 127.2 162.817 127.2Z" fill="white" />
		</g>
	</g>
</svg>
