<svg width="228" height="228" viewBox="0 0 228 228" fill="none" xmlns="http://www.w3.org/2000/svg">
	<g id="14">
		<g id="Group">
			<path id="Vector" d="M154.375 59C161.884 59 168 65.1161 168 72.625C168 80.1339 161.884 86.25 154.375 86.25C146.866 86.25 140.75 92.3661 140.75 99.875C140.75 107.384 134.634 113.5 127.125 113.5C119.616 113.5 113.5 107.384 113.5 99.875C113.5 92.3661 119.616 86.25 127.125 86.25C134.634 86.25 140.75 80.1339 140.75 72.625C140.75 65.0556 146.866 59 154.375 59Z" fill="white" />
			<path id="Vector_2" d="M154.375 113.5C161.884 113.5 168 119.616 168 127.125C168 134.634 161.884 140.75 154.375 140.75C146.866 140.75 140.75 146.866 140.75 154.375C140.75 161.884 134.634 168 127.125 168C119.616 168 113.5 161.884 113.5 154.375C113.5 146.866 119.616 140.75 127.125 140.75C134.634 140.75 140.75 134.634 140.75 127.125C140.75 119.556 146.866 113.5 154.375 113.5Z" fill="white" />
			<path id="Vector_3" d="M99.875 59C107.384 59 113.5 65.1161 113.5 72.625C113.5 80.1339 107.384 86.25 99.875 86.25C92.3661 86.25 86.25 92.3661 86.25 99.875C86.25 107.384 80.1339 113.5 72.625 113.5C65.1161 113.5 59 107.384 59 99.875C59 92.3661 65.1161 86.25 72.625 86.25C80.1339 86.25 86.25 80.1339 86.25 72.625C86.25 65.0556 92.3661 59 99.875 59Z" fill="white" />
			<path id="Vector_4" d="M99.875 113.5C107.384 113.5 113.5 119.616 113.5 127.125C113.5 134.634 107.384 140.75 99.875 140.75C92.3661 140.75 86.25 146.866 86.25 154.375C86.25 161.884 80.1339 168 72.625 168C65.1161 168 59 161.884 59 154.375C59 146.866 65.1161 140.75 72.625 140.75C80.1339 140.75 86.25 134.634 86.25 127.125C86.25 119.556 92.3661 113.5 99.875 113.5Z" fill="white" />
		</g>
	</g>
</svg>
