<svg width="228" height="228" viewBox="0 0 228 228" fill="none" xmlns="http://www.w3.org/2000/svg">
	<g id="8">
		<g id="Group">
			<path id="Vector" d="M155.337 178.999L175.776 167.227L155.337 155.383L134.826 167.227L155.337 178.999Z" fill="white" />
			<path id="Vector_2" d="M155.337 108.073V131.761L175.776 119.917V96.3008L155.337 108.073Z" fill="white" />
			<path id="Vector_3" d="M134.826 143.543V167.232L155.337 155.388V131.771L134.826 143.543Z" fill="white" />
			<path id="Vector_4" d="M155.337 108.073V131.761L134.826 119.917V96.3008L155.337 108.073Z" fill="white" />
			<path id="Vector_5" d="M53 119.927V143.543L73.4386 131.771V108.082L53 119.927Z" fill="white" />
			<path id="Vector_6" d="M114.388 155.383L93.9492 143.539V167.228L114.388 179V155.383Z" fill="white" />
			<path id="Vector_7" d="M93.9492 119.927L73.4385 108.082V131.771L93.9492 143.543V119.927Z" fill="white" />
			<path id="Vector_8" d="M114.388 155.388L93.9492 143.543L114.388 131.771L134.826 143.543L114.388 155.388Z" fill="white" />
			<path id="Vector_9" d="M155.337 60.8442L134.826 49V72.6884L155.337 84.4606V60.8442Z" fill="white" />
			<path id="Vector_10" d="M93.9492 96.3059L114.388 84.4617L93.9492 72.6895L73.4385 84.4617L93.9492 96.3059Z" fill="white" />
			<path id="Vector_11" d="M134.826 96.3059L155.337 84.4617L134.826 72.6895L114.388 84.4617L134.826 96.3059Z" fill="white" />
			<path id="Vector_12" d="M93.9492 96.2993L114.388 84.4551V108.071L93.9492 119.916V96.2993Z" fill="white" />
		</g>
	</g>
</svg>
