<svg width="228" height="228" viewBox="0 0 228 228" fill="none" xmlns="http://www.w3.org/2000/svg">
	<g id="20">
		<g id="Group">
			<path id="Vector" d="M123.646 180.999C134.219 180.999 142.8 172.427 142.8 161.865V123.598C142.8 134.159 134.219 142.731 123.646 142.731" fill="white" />
			<path id="Vector_2" d="M123.644 142.73H85.3359V180.998H123.644V142.73Z" fill="white" />
			<path id="Vector_3" d="M104.49 47.0625C93.9169 47.0625 85.3359 55.6344 85.3359 66.1962V104.464C85.3359 93.9019 93.9169 85.33 104.49 85.33" fill="white" />
			<path id="Vector_4" d="M104.493 85.2676H142.801V47.0001L104.493 47.0001V85.2676Z" fill="white" />
			<path id="Vector_5" d="M47.0239 123.598C47.0239 134.159 55.6049 142.731 66.1779 142.731H104.486C93.9129 142.731 85.332 134.159 85.332 123.598" fill="white" />
			<path id="Vector_6" d="M85.3081 123.564V85.2969H47.0001L47.0001 123.564H85.3081Z" fill="white" />
			<path id="Vector_7" d="M181.108 104.464C181.108 93.902 172.527 85.3301 161.954 85.3301H123.646C134.219 85.3301 142.8 93.902 142.8 104.464" fill="white" />
			<path id="Vector_8" d="M142.831 104.434V142.701H181.139V104.434H142.831Z" fill="white" />
		</g>
	</g>
</svg>
