<svg width="228" height="228" viewBox="0 0 228 228" fill="none" xmlns="http://www.w3.org/2000/svg">
	<g id="13">
		<g id="Group">
			<path id="Vector" d="M120 134.002H107C99.85 134.002 94 128.152 94 121.002V108.002C94 100.852 99.85 95.002 107 95.002H120C127.15 95.002 133 100.852 133 108.002V121.002C133 128.152 127.15 134.002 120 134.002Z" fill="white" />
			<path id="Vector_2" d="M159.001 95.0002H146.001C138.851 95.0002 133.001 89.1502 133.001 82.0001V69.0001C133.001 61.85 138.851 56 146.001 56H159.001C166.151 56 172.001 61.85 172.001 69.0001V82.0001C172.001 89.1502 166.151 95.0002 159.001 95.0002Z" fill="white" />
			<path id="Vector_3" d="M81.0001 134H68.0001C60.85 134 55 139.85 55 147V160C55 167.15 60.85 173 68.0001 173H81.0001C88.1502 173 94.0002 167.15 94.0002 160V147C94.0002 139.85 88.1502 134 81.0001 134Z" fill="white" />
			<path id="Vector_4" d="M133.001 160V147C133.001 139.85 138.851 134 146.001 134H159.001C166.151 134 172.001 139.85 172.001 147V160C172.001 167.15 166.151 173 159.001 173H146.001C138.851 173 133.001 167.15 133.001 160Z" fill="white" />
			<path id="Vector_5" d="M94.0002 82.0001V69.0001C94.0002 61.85 88.1502 56 81.0001 56H68.0001C60.85 56 55 61.85 55 69.0001V82.0001C55 89.1502 60.85 95.0002 68.0001 95.0002H81.0001C88.1502 95.0002 94.0002 89.1502 94.0002 82.0001Z" fill="white" />
			<path id="Vector_6" d="M81 95.0001C88.15 95.0001 94.0001 89.15 94.0001 82C94.0001 89.15 99.8501 95.0001 107 95.0001C99.8501 95.0001 94.0001 100.85 94.0001 108C94.0001 100.85 88.15 95.0001 81 95.0001Z" fill="white" />
			<path id="Vector_7" d="M120.001 95.0001C127.151 95.0001 133.001 89.15 133.001 82C133.001 89.15 138.851 95.0001 146.001 95.0001C138.851 95.0001 133.001 100.85 133.001 108C133.001 100.85 127.151 95.0001 120.001 95.0001Z" fill="white" />
			<path id="Vector_8" d="M81 134C88.15 134 94.0001 128.15 94.0001 121C94.0001 128.15 99.8501 134 107 134C99.8501 134 94.0001 139.85 94.0001 147C94.0001 139.85 88.15 134 81 134Z" fill="white" />
			<path id="Vector_9" d="M120.001 134C127.151 134 133.001 128.15 133.001 121C133.001 128.15 138.851 134 146.001 134C138.851 134 133.001 139.85 133.001 147C133.001 139.85 127.151 134 120.001 134Z" fill="white" />
		</g>
	</g>
</svg>
