<svg width="228" height="228" viewBox="0 0 228 228" fill="none" xmlns="http://www.w3.org/2000/svg">
	<g id="34">
		<g id="Group">
			<path id="Vector" d="M114.01 87.6186L160.021 114.203C159.919 108.374 159.05 101.984 157.311 95.4917C151.33 73.0999 137.374 57.354 126.178 60.3702C118.203 62.4663 113.755 73.4576 114.01 87.6186Z" stroke="white" stroke-width="3" stroke-miterlimit="10" />
			<path id="Vector_2" d="M114.01 140.736L160.021 114.152C159.919 119.98 159.05 126.371 157.311 132.863C151.33 155.255 137.374 171.001 126.178 167.985C118.203 165.889 113.755 154.948 114.01 140.736Z" stroke="white" stroke-width="3" stroke-miterlimit="10" />
			<path id="Vector_3" d="M114.011 87.6186L68 114.203C68.1022 108.374 68.9714 101.984 70.7095 95.4917C76.6909 73.0999 90.6474 57.354 101.843 60.3702C109.818 62.4663 114.266 73.4576 114.011 87.6186Z" stroke="white" stroke-width="3" stroke-miterlimit="10" />
			<path id="Vector_4" d="M114.011 140.736L68 114.152C68.1022 119.98 68.9714 126.371 70.7095 132.863C76.6909 155.255 90.6474 171.001 101.843 167.985C109.818 165.889 114.266 154.948 114.011 140.736Z" stroke="white" stroke-width="3" stroke-miterlimit="10" />
		</g>
	</g>
</svg>
