<svg width="228" height="228" viewBox="0 0 228 228" fill="none" xmlns="http://www.w3.org/2000/svg">
	<g id="28">
		<g id="Group">
			<path id="Vector" d="M58 136.4V114H80.4V136.4C80.4 142.56 85.44 147.6 91.6 147.6V170C73.0578 170 58 154.942 58 136.4Z" fill="white" />
			<path id="Vector_2" d="M170 91.6V114H147.6V91.6C147.6 85.44 142.56 80.4 136.4 80.4V58C154.943 58 170 72.9956 170 91.6Z" fill="white" />
			<path id="Vector_3" d="M136.4 170H114V147.6H136.4C142.56 147.6 147.6 142.56 147.6 136.4H170C170 154.943 154.942 170 136.4 170Z" fill="white" />
			<path id="Vector_4" d="M125.2 114H147.6V136.4H125.2C119.04 136.4 114 141.44 114 147.6H91.5996C91.5996 128.996 106.657 114 125.2 114Z" fill="white" />
			<path id="Vector_5" d="M102.8 114H80.4004V91.6004H102.8C108.96 91.6004 114 86.5604 114 80.4004H136.4C136.4 98.9426 121.343 114 102.8 114Z" fill="white" />
			<path id="Vector_6" d="M91.6 58H114V80.4H91.6C85.44 80.4 80.4 85.44 80.4 91.6H58C58 72.9956 73.0578 58 91.6 58Z" fill="white" />
		</g>
	</g>
</svg>
