<svg width="60" height="60" viewBox="0 0 60 60" fill="currentColor" xmlns="http://www.w3.org/2000/svg">
	<g>
		<path d="M16.8106 53.9721H6.72226V21.9922H16.8106V53.9721ZM11.7594 17.5605C10.6151 17.5541 9.4983 17.2095 8.55 16.5702C7.6017 15.931 6.8644 15.0257 6.43115 13.9687C5.9979 12.9116 5.88811 11.7502 6.11565 10.631C6.34318 9.51175 6.89784 8.48486 7.70963 7.67991C8.52141 6.87496 9.55393 6.32803 10.6769 6.10815C11.7998 5.88827 12.9629 6.00529 14.0193 6.44443C15.0757 6.88358 15.978 7.62518 16.6125 8.57564C17.2469 9.52609 17.585 10.6428 17.5841 11.7848C17.5949 12.5494 17.4513 13.3084 17.162 14.0164C16.8726 14.7245 16.4434 15.3671 15.8998 15.9061C15.3563 16.4451 14.7096 16.8693 13.9982 17.1535C13.2869 17.4378 12.5255 17.5762 11.7594 17.5605ZM53.9953 54H43.9117V36.5289C43.9117 31.3764 41.7169 29.786 38.8838 29.786C35.8922 29.786 32.9566 32.0368 32.9566 36.6591V54H22.8683V22.0154H32.5698V26.4472H32.7003C33.6742 24.4801 37.0851 21.1179 42.2901 21.1179C47.919 21.1179 54 24.4522 54 34.2178L53.9953 54Z" fill="white" />
	</g>
</svg>
