<svg width="60" height="60" viewBox="0 0 60 60" fill="currentColor" xmlns="http://www.w3.org/2000/svg">
	<g>
		<g>
			<g>
				<path id="Telegram_3" fill-rule="evenodd" clip-rule="evenodd" d="M4.9872 28.5247C20.5564 21.4685 30.9383 16.8167 36.133 14.5691C50.9647 8.15194 54.0466 7.0372 56.0553 7.00039C56.4971 6.9923 57.4849 7.10619 58.1248 7.6463C58.6651 8.10236 58.8138 8.71842 58.8849 9.15081C58.9561 9.5832 59.0446 10.5682 58.9742 11.3379C58.1705 20.1225 54.6927 41.4405 52.9235 51.2795C52.1748 55.4427 50.7007 56.8386 49.2736 56.9752C46.1721 57.2721 43.817 54.8431 40.8131 52.7948C36.1126 49.5896 33.4571 47.5944 28.8945 44.4667C23.6215 40.8521 27.0398 38.8654 30.0448 35.6187C30.8312 34.769 44.4963 21.8396 44.7608 20.6667C44.7938 20.52 44.8245 19.9732 44.5123 19.6845C44.2 19.3958 43.7391 19.4945 43.4065 19.573C42.935 19.6843 35.4259 24.8473 20.8791 35.0618C18.7477 36.5843 16.8171 37.3261 15.0873 37.2872C13.1804 37.2444 9.5123 36.1657 6.78543 35.2436C3.44081 34.1127 0.782578 33.5147 1.01405 31.594C1.13462 30.5936 2.459 29.5705 4.9872 28.5247Z" fill="white" />
			</g>
		</g>
	</g>
</svg>
