<svg width="283" height="119" viewBox="0 0 283 119" fill="none" xmlns="http://www.w3.org/2000/svg">
<path d="M48.7612 85.6831C48.6069 89.4929 46.3437 90.7285 44.6978 90.4711C44.6978 90.4711 43.5662 89.5444 43.8234 88.3088C43.8234 88.3088 42.0231 89.2355 42.3317 90.9859C42.3317 90.9859 39.4513 92.0156 38.114 90.0077C37.8054 89.5444 37.3939 89.081 36.9824 88.6691C40.8915 86.6613 44.8007 85.7346 48.7612 85.6831Z" fill="white"/>
<path d="M42.7937 51.4455C42.5879 52.0633 42.4336 52.6296 42.2793 53.196C42.3307 52.5782 42.2793 52.0118 42.2793 51.394C42.485 51.4455 42.6393 51.4455 42.7937 51.4455Z" fill="white"/>
<path d="M42.9469 65.9645C41.661 66.0675 40.3751 66.1705 39.1406 66.2734C40.2208 64.0082 41.0438 61.6399 41.5581 59.2202C41.661 61.537 42.1239 63.7508 42.9469 65.9645Z" fill="white"/>
<path d="M52.772 57.0061C52.772 58.911 51.2289 60.404 49.3772 60.404C47.4741 60.404 45.9824 58.8595 45.9824 57.0061C45.9824 55.1012 47.5255 53.6082 49.3772 53.6082C51.2289 53.5567 52.772 55.1012 52.772 57.0061Z" fill="white"/>
<path d="M56.4258 51.2417C56.3744 51.911 56.3744 52.5803 56.3744 53.1981C56.2715 52.5803 56.0658 51.911 55.8086 51.2417C56.0143 51.2932 56.2201 51.2417 56.4258 51.2417Z" fill="white"/>
<path d="M59.6624 66.5829C58.4279 66.4284 57.142 66.274 55.8561 66.171C55.8047 66.1195 55.7533 66.0681 55.6504 66.0681C56.5248 63.8543 56.9877 61.589 57.0392 59.3237C57.6564 61.7949 58.5308 64.2661 59.6624 66.5829Z" fill="white"/>
<path d="M62.2869 32.5512C58.4807 38.8321 56.629 45.2161 56.4233 51.2396C56.2175 51.2396 56.0118 51.2911 55.806 51.2911C54.5716 47.7903 52.4113 44.1864 49.3251 40.4796C46.1875 44.2379 44.0272 47.8417 42.7928 51.4456C42.6385 51.4456 42.4841 51.3941 42.2784 51.3941C42.1241 45.2676 40.221 38.8321 36.3633 32.5512C39.0379 30.9552 41.6097 29.4622 43.77 28.2266C47.2162 26.2702 51.434 26.2702 54.8802 28.2266C57.0405 29.4622 59.6123 30.9552 62.2869 32.5512Z" fill="white"/>
<path d="M79.1585 44.3947C73.7063 47.9985 65.4251 50.3668 56.4238 51.2935C56.6296 45.2184 58.4813 38.8345 62.2875 32.605C68.717 36.4148 75.8151 41.0483 79.1585 44.3947Z" fill="white"/>
<path d="M81.1645 47.483V71.6803C81.1645 72.6584 81.113 73.5337 81.0102 74.4089C76.3295 70.5476 68.5113 67.8705 59.7157 66.6349C58.5841 64.3181 57.7097 61.8469 57.1439 59.3242C57.2468 57.3164 57.0411 55.3085 56.4238 53.2492C56.4238 52.5799 56.4238 51.9106 56.4753 51.2928C65.4765 50.3661 73.8091 48.0494 79.2099 44.394C80.3929 45.6296 81.1645 46.7108 81.1645 47.483Z" fill="white"/>
<path d="M73.9123 81.4621C70.6718 81.3077 67.277 83.47 65.9911 87.1768C64.6538 86.4045 62.905 87.3312 61.5676 88.7213C57.6585 86.8679 53.7494 85.8382 49.8917 85.7352C49.8403 85.5293 49.8403 85.3234 49.8403 85.1174C49.8403 80.7928 50.9719 75.3356 50.9719 75.3356C49.8403 75.0267 48.7087 75.0267 47.5771 75.3356C47.5771 75.3356 48.7087 80.7928 48.7087 85.1174C48.7087 85.3234 48.7087 85.4778 48.6573 85.6838C44.6967 85.7352 40.7876 86.6619 36.8784 88.6698C35.5411 87.3312 33.8437 86.456 32.5578 87.1768C31.2719 83.47 27.9286 81.3077 24.6367 81.4621C31.1691 77.7038 36.1069 72.4525 39.0388 66.326C40.2732 66.223 41.5591 66.0686 42.845 66.0171C42.845 66.0686 42.8964 66.0686 42.8964 66.1201C38.473 68.4368 38.0615 73.3792 40.7361 80.381C41.9192 76.5197 43.5137 73.4307 45.9312 72.0407C46.1883 73.2763 47.2685 74.203 49.2745 74.203C51.229 74.203 52.3092 73.2763 52.6178 72.0407C55.0353 73.3792 56.6298 76.4682 57.8128 80.381C60.3846 73.4822 60.0246 68.5913 55.8583 66.2745C57.1442 66.3775 58.4301 66.5319 59.6645 66.6864C62.5964 72.607 67.4313 77.7553 73.9123 81.4621Z" fill="white"/>
<path d="M39.1922 66.2729C36.2604 72.3995 31.3226 77.7023 24.7902 81.4091C23.4529 81.4606 22.1155 81.9239 20.9325 82.7476C20.9325 82.7476 18.155 80.2764 17.6406 73.738C22.7842 69.7223 30.6539 67.2511 39.1922 66.2729Z" fill="white"/>
<path d="M42.3292 51.4463C42.3292 52.0641 42.3806 52.6304 42.3292 53.2482C41.7634 55.256 41.5576 57.2639 41.6091 59.2717C41.0947 61.6915 40.2717 64.0597 39.1916 66.325C30.6532 67.2517 22.835 69.7229 17.64 73.8415C17.5885 73.1723 17.5371 72.4515 17.5371 71.6792V47.482C17.5371 46.7613 18.1029 45.8346 19.1316 44.7534C24.9953 48.6147 33.4308 50.8285 42.3292 51.4463Z" fill="white"/>
<path d="M61.6193 88.7206C61.2592 89.081 60.8992 89.5444 60.5906 89.9562C59.2532 91.9641 56.3728 90.9344 56.3728 90.9344C56.6815 89.184 54.8812 88.2573 54.8812 88.2573C55.1384 89.4929 54.0068 90.4196 54.0068 90.4196C52.3094 90.677 50.1491 89.4929 49.9434 85.6831C53.801 85.8376 57.7102 86.8672 61.6193 88.7206Z" fill="white"/>
<path d="M42.3317 51.4467C33.4333 50.8289 24.9978 48.6666 19.1855 44.7538C22.3746 41.3559 29.7813 36.6194 36.4166 32.5522C40.2742 38.8847 42.1259 45.2687 42.3317 51.4467Z" fill="white"/>
<path d="M81.0099 74.3555C80.3927 80.4306 77.7695 82.7988 77.7695 82.7988C76.6379 81.9236 75.352 81.4603 73.9632 81.4603C73.9118 81.4603 73.9118 81.4603 73.9118 81.4603C67.4309 77.7535 62.5959 72.6051 59.6641 66.5815C68.4596 67.8171 76.2778 70.4943 81.0099 74.3555Z" fill="white"/>
<path d="M87.8516 64.3695C87.8516 61.8468 88.3145 59.4271 89.2918 57.1618C90.269 54.8965 91.5549 52.9402 93.2523 51.2412C94.9497 49.5423 96.9043 48.2552 99.116 47.277C101.328 46.2988 103.745 45.8354 106.266 45.8354C108.735 45.8354 111.152 46.2988 113.364 47.277C115.627 48.2552 117.581 49.5423 119.279 51.1897C120.976 52.8372 122.262 54.7936 123.291 57.0073C124.268 59.2211 124.782 61.6409 124.782 64.1635V81.5135C124.782 82.3372 124.371 82.7491 123.548 82.7491C122.725 82.7491 122.314 82.3372 122.314 81.5135V73.1217C120.668 75.9018 118.456 78.2185 115.627 80.0204C112.798 81.8224 109.66 82.7491 106.214 82.7491C103.694 82.7491 101.276 82.2857 99.0646 81.3075C96.8528 80.3293 94.8983 79.0423 93.2009 77.3433C91.5035 75.6444 90.2176 73.688 89.2403 71.4742C88.3659 69.3119 87.8516 66.8922 87.8516 64.3695ZM90.3205 64.3695C90.3205 66.5318 90.732 68.6426 91.5549 70.599C92.3779 72.5553 93.5095 74.2543 95.0011 75.6958C96.4413 77.1374 98.1387 78.27 100.093 79.1452C102.048 79.969 104.105 80.3808 106.317 80.3808C108.477 80.3808 110.586 79.969 112.541 79.1452C114.495 78.3215 116.193 77.1889 117.633 75.6958C119.073 74.2543 120.256 72.5553 121.079 70.599C121.954 68.6426 122.365 66.5833 122.365 64.3695C122.365 62.2072 121.954 60.0964 121.079 58.14C120.205 56.1836 119.073 54.4847 117.633 53.0431C116.193 51.6016 114.495 50.4175 112.541 49.5937C110.586 48.7185 108.529 48.3067 106.317 48.3067C104.157 48.3067 102.048 48.7185 100.093 49.5937C98.1387 50.469 96.4413 51.6016 95.0011 53.0431C93.5609 54.4847 92.4294 56.1836 91.5549 58.14C90.732 60.0964 90.3205 62.2072 90.3205 64.3695Z" fill="white"/>
<path d="M133.733 43.8789C133.733 42.5918 133.991 41.4077 134.454 40.2235C134.916 39.0394 135.585 38.0098 136.408 37.1345C137.231 36.2593 138.26 35.5386 139.391 35.0237C140.523 34.5089 141.757 34.2515 143.095 34.2515C143.455 34.2515 143.763 34.4059 143.969 34.6118C144.175 34.8693 144.329 35.1267 144.329 35.4356C144.329 36.2593 143.918 36.6712 143.095 36.6712C141.089 36.6712 139.391 37.3405 138.106 38.7305C136.82 40.1206 136.151 41.8195 136.151 43.8274V45.7838H142.94C143.763 45.7838 144.175 46.1956 144.175 47.0194C144.175 47.3282 144.072 47.5857 143.815 47.8431C143.609 48.1005 143.301 48.2035 142.94 48.2035H136.151V81.5132C136.151 82.337 135.739 82.7488 134.916 82.7488C134.094 82.7488 133.682 82.337 133.682 81.5132V48.3064H129.207C128.847 48.3064 128.538 48.2035 128.333 47.9461C128.127 47.6886 127.973 47.4312 127.973 47.1223C127.973 46.2986 128.384 45.8867 129.207 45.8867H133.682V43.8789H133.733Z" fill="white"/>
<path d="M152.608 43.8791C152.608 42.592 152.866 41.4079 153.329 40.2238C153.791 39.0397 154.46 38.01 155.283 37.1348C156.106 36.2596 157.135 35.5388 158.266 35.024C159.398 34.5091 160.632 34.2517 161.97 34.2517C162.33 34.2517 162.638 34.4062 162.844 34.6121C163.05 34.8695 163.204 35.1269 163.204 35.4358C163.204 36.2596 162.793 36.6714 161.97 36.6714C159.964 36.6714 158.266 37.3407 156.981 38.7308C155.695 40.1208 155.026 41.8198 155.026 43.8276V45.784H161.815C162.638 45.784 163.05 46.1959 163.05 47.0196C163.05 47.3285 162.947 47.5859 162.69 47.8433C162.484 48.1007 162.176 48.2037 161.815 48.2037H155.026V81.5135C155.026 82.3372 154.614 82.7491 153.791 82.7491C152.969 82.7491 152.557 82.3372 152.557 81.5135V48.3067H148.082C147.722 48.3067 147.413 48.2037 147.208 47.9463C147.002 47.6889 146.848 47.4315 146.848 47.1226C146.848 46.2988 147.259 45.887 148.082 45.887H152.557V43.8791H152.608Z" fill="white"/>
<path d="M165.676 36.4654C165.676 35.7961 165.882 35.2298 166.344 34.7665C166.807 34.3031 167.373 34.0972 168.042 34.0972C168.71 34.0972 169.276 34.3031 169.739 34.7665C170.202 35.2298 170.408 35.7961 170.408 36.4654V78.064H189.748C190.416 78.064 190.982 78.2699 191.445 78.7333C191.908 79.1966 192.114 79.763 192.114 80.4323C192.114 81.1015 191.908 81.6678 191.445 82.1312C190.982 82.5946 190.416 82.8005 189.748 82.8005H168.042C167.373 82.8005 166.807 82.5946 166.344 82.1312C165.882 81.6678 165.676 81.1015 165.676 80.4323V36.4654Z" fill="white"/>
<path d="M194.068 36.4654C194.068 35.7961 194.274 35.2298 194.737 34.7665C195.2 34.3031 195.766 34.0972 196.434 34.0972C197.103 34.0972 197.669 34.3031 198.132 34.7665C198.595 35.2298 198.8 35.7961 198.8 36.4654V80.4323C198.8 81.1015 198.595 81.6678 198.132 82.1312C197.669 82.5946 197.103 82.8005 196.434 82.8005C195.766 82.8005 195.2 82.5946 194.737 82.1312C194.274 81.6678 194.068 81.1015 194.068 80.4323V36.4654Z" fill="white"/>
<path d="M203.479 36.4654C203.479 35.7961 203.685 35.2298 204.148 34.7665C204.611 34.3031 205.177 34.0972 205.845 34.0972H229.043C229.711 34.0972 230.277 34.3031 230.74 34.7665C231.203 35.2298 231.409 35.7961 231.409 36.4654C231.409 37.1347 231.203 37.701 230.74 38.1644C230.277 38.6277 229.711 38.8336 229.043 38.8336H208.16V55.8232H221.327C221.996 55.8232 222.562 56.0291 223.025 56.4925C223.488 56.9558 223.693 57.5221 223.693 58.1914C223.693 58.8607 223.488 59.427 223.025 59.8904C222.562 60.3537 221.996 60.5596 221.327 60.5596H208.16V80.4323C208.16 81.1015 207.954 81.6678 207.491 82.1312C207.028 82.5946 206.462 82.8005 205.794 82.8005C205.125 82.8005 204.559 82.5946 204.096 82.1312C203.633 81.6678 203.428 81.1015 203.428 80.4323V36.4654H203.479Z" fill="white"/>
<path d="M236.655 38.8336C235.986 38.8336 235.421 38.6277 234.958 38.1644C234.495 37.701 234.289 37.1347 234.289 36.4654C234.289 35.7961 234.495 35.2298 234.958 34.7665C235.421 34.3031 235.986 34.0972 236.655 34.0972H263.093C263.762 34.0972 264.328 34.3031 264.791 34.7665C265.253 35.2298 265.459 35.7961 265.459 36.4654C265.459 37.1347 265.253 37.701 264.791 38.1644C264.328 38.6277 263.762 38.8336 263.093 38.8336H252.292V80.4323C252.292 81.1015 252.086 81.6678 251.623 82.1312C251.16 82.5946 250.594 82.8005 249.926 82.8005C249.257 82.8005 248.691 82.5946 248.228 82.1312C247.765 81.6678 247.56 81.1015 247.56 80.4323V38.8336H236.655Z" fill="white"/>
</svg>
