<svg width="235" height="77" viewBox="0 0 235 77" fill="none" xmlns="http://www.w3.org/2000/svg">
<path fill-rule="evenodd" clip-rule="evenodd" d="M146.156 0.439482C146.103 0.539901 145.488 2.40658 144.789 4.5874L143.518 8.55286L142.185 8.67975C141.452 8.7494 139.567 8.76037 137.997 8.70384C134.642 8.58339 134.281 8.65661 134.893 9.33331C135.128 9.59282 135.456 9.80534 135.621 9.80534C135.787 9.80534 135.958 9.89026 136.002 9.99425C136.046 10.098 136.779 10.6616 137.632 11.2465C138.485 11.8314 139.236 12.369 139.302 12.4413C139.367 12.5138 139.931 12.9345 140.554 13.3763C141.177 13.818 141.687 14.2309 141.687 14.2936C141.687 14.4239 140.781 17.0777 140.491 17.7959C140.006 18.999 139.025 22.4886 139.14 22.6033C139.271 22.7347 139.831 22.3624 143.357 19.8004C146.727 17.351 146.228 17.4677 147.943 18.7266C148.766 19.3308 149.546 19.9082 149.678 20.0101C149.809 20.1119 150.453 20.5678 151.109 21.0231C151.765 21.4782 152.337 21.9312 152.381 22.0297C152.425 22.1282 152.612 22.2086 152.798 22.2086C152.984 22.2086 153.136 22.3159 153.136 22.4471C153.136 22.5783 153.244 22.6856 153.375 22.6856C153.782 22.6856 153.651 22.0955 152.421 18.3688C151.765 16.3826 151.232 14.5825 151.236 14.3685C151.24 14.1524 152.275 13.2537 153.562 12.3475C157.608 9.49836 157.971 9.21404 157.878 8.97051C157.823 8.8243 156.201 8.73199 153.686 8.73199C151.262 8.73199 149.492 8.63443 149.358 8.49347C149.233 8.36228 148.57 6.50919 147.885 4.37512C146.716 0.736921 146.39 -0.00584096 146.156 0.439482ZM41.6318 1.51665C41.0617 3.28769 40.1737 5.88593 39.3696 8.13568C38.8303 9.64434 37.9745 12.1131 37.4673 13.6217C36.9605 15.1304 35.8904 18.2431 35.0894 20.5389C34.2884 22.8347 33.633 24.8724 33.633 25.0673C33.6327 25.2621 34.9745 24.0829 36.6144 22.4471L39.596 19.4727V37.2988V55.1248H36.2566H32.9171V45.2879V35.4509L28.0848 40.2789C25.4271 42.9344 23.0859 45.1068 22.8822 45.1068C22.6785 45.1068 22.2813 44.8922 21.9996 44.6298C21.7182 44.3674 21.4348 44.1527 21.3704 44.1527C21.2053 44.1527 19.0278 42.6825 18.6533 42.318C18.4827 42.1522 18.1607 41.9118 17.9377 41.7837C17.5956 41.5874 18.4503 40.6302 23.374 35.6961L29.2163 29.8413H30.6945H32.1727L32.7986 27.7893C33.1428 26.6606 33.3897 25.7025 33.3472 25.66C33.3048 25.6175 32.3325 26.4872 31.1864 27.5928L29.1028 29.6028H14.5513C6.54813 29.6028 0 29.6641 0 29.739C0 29.9883 0.575573 30.4326 2.98163 32.0407C4.29354 32.9176 7.56736 35.1451 10.2568 36.9906C12.9462 38.8363 15.4909 40.5226 15.9114 40.7383C16.3319 40.9539 16.7319 41.2759 16.8004 41.4538C16.8755 41.6501 15.2347 43.4756 12.6366 46.0862L8.34855 50.3947V55.3528V60.311L15.7287 52.9161C22.3605 46.2708 23.1458 45.5581 23.4745 45.8868C23.6758 46.0881 24.2189 46.4867 24.6814 46.7727C25.1442 47.0584 25.5227 47.4856 25.5227 47.7218C25.5227 47.9577 25.2472 48.8826 24.9104 49.7774C24.5738 50.6718 23.937 52.4824 23.4957 53.801C23.0542 55.1193 21.9226 58.3985 20.9811 61.0879C20.0399 63.7772 18.8556 67.212 18.3494 68.7206C17.8435 70.2293 17.203 72.054 16.9261 72.7756C15.9798 75.2424 15.8329 75.8764 16.2079 75.8764C16.4633 75.8764 21.5581 72.4648 22.3178 71.785C22.5888 71.5426 22.8834 71.3444 22.9728 71.3444C23.2068 71.3444 30.8741 66.038 30.9691 65.8104C31.013 65.7055 31.1473 65.6198 31.2677 65.6198C31.454 65.6198 36.3889 62.3886 36.7336 62.0408C37.1036 61.6675 41.7561 58.7027 41.972 58.7027C42.2 58.7027 44.0546 59.8108 44.3666 60.1333C44.6888 60.4668 49.6486 63.7117 49.8358 63.7117C49.9544 63.7117 50.0872 63.7949 50.1311 63.8965C50.3038 64.2984 67.3597 75.8764 67.779 75.8764C68.076 75.8764 68.2711 76.4836 64.368 65.2621C62.5428 60.0145 61.026 55.6138 60.9969 55.4826C60.9645 55.3349 62.035 55.2348 63.8068 55.2195L66.6691 55.1947L66.7324 48.3619C66.7672 44.6038 66.7209 41.529 66.6295 41.529C66.4483 41.529 62.45 44.1599 62.2563 44.4065C62.1006 44.605 60.1561 45.8224 59.9951 45.8224C59.8166 45.8224 59.8417 32.2681 60.0227 30.9481L60.1744 29.8413H63.4934H66.812L66.6501 31.2725L66.4883 32.7036H70.9319H75.3755V34.0489C75.3755 35.574 75.6195 35.2975 72.215 37.6303C70.9357 38.5066 69.8893 39.3131 69.8893 39.4223C69.8893 39.5313 71.1774 39.6208 72.7517 39.6208H75.614V37.6957C75.614 36.4706 75.7225 35.6639 75.9122 35.4776C76.0763 35.3166 77.9547 34.021 80.0864 32.5982C82.2184 31.1754 83.9626 29.9193 83.9626 29.807C83.9626 29.6946 80.1988 29.6028 75.5987 29.6028H67.2349L67.7869 28.5896C69.0256 26.3157 71.9936 24.2658 74.4667 23.9758L75.7333 23.8274L75.661 20.3598L75.5887 16.8924L73.7528 17.0359C71.2914 17.2284 67.5057 18.5725 66.5499 19.5929C66.4843 19.663 65.9109 20.1401 65.2754 20.6534C63.215 22.3181 61.4048 25.005 60.4674 27.7903L59.8973 29.4835L55.9837 29.5489L52.0701 29.614L51.5604 28.2821L51.0507 26.9499L51.9425 26.1244C53.1111 25.0427 55.1746 24.0681 56.5912 23.9288L57.7243 23.8176V20.3579V16.8983L55.9949 17.0159C54.0686 17.1466 51.0571 18.0776 49.6145 18.9883C49.0947 19.3165 48.6248 19.5848 48.5702 19.5848C48.5156 19.5848 48.1435 18.5918 47.7432 17.3785C47.0887 15.3939 45.8977 12.0355 44.9307 9.44756C44.7346 8.92281 44.4358 8.01045 44.2664 7.42011C43.6892 5.40578 42.101 1.21922 41.9143 1.21874C41.8117 1.21874 41.6846 1.35279 41.6318 1.51665ZM47.3019 21.0756C45.1666 22.9196 43.6684 25.1779 42.7773 27.8966L42.1005 29.9606V42.4831V55.0055H45.3207H48.5409L48.6038 47.1939L48.6666 39.3823H53.0717C58.2571 39.3823 57.7806 39.7775 57.6742 35.5659L57.605 32.8229L53.1326 32.758L48.6601 32.6931V31.906C48.6601 30.8288 49.3096 28.9709 50.1051 27.7726L50.7659 26.7775L49.6577 23.5388C49.048 21.7578 48.4707 20.3004 48.3746 20.3004C48.2782 20.3004 47.7957 20.6491 47.3019 21.0756ZM97.5185 23.8675C94.0426 24.5051 91.5939 25.7931 89.0945 28.299C86.5258 30.8744 85.2516 33.3271 84.6925 36.7723C84.5527 37.6341 84.4425 42.0566 84.4415 46.8426L84.4396 55.376L87.9109 55.3101L91.3823 55.2441L91.3637 47.1968C91.3434 38.3681 91.4999 36.946 92.7021 35.0304C94.7658 31.7416 98.7159 29.9749 102.127 30.815C104.607 31.4258 107.079 33.443 108.243 35.8044L108.889 37.1163L109.008 46.1802L109.127 55.2441H112.586H116.045L116.164 46.1802L116.283 37.1163L116.979 35.7443C118.4 32.939 121.162 30.9879 124.167 30.6661C127.632 30.295 131.081 32.3525 132.933 35.8955L133.696 37.3548L133.773 46.3591L133.851 55.3633H137.309H140.767L140.681 45.882L140.595 36.4007L139.951 34.4739C138.318 29.5906 134.079 25.5205 129.261 24.2107C126.887 23.5655 122.512 23.6216 120.219 24.3264C117.382 25.1985 115.767 26.1869 113.749 28.2878L112.6 29.4835L111.698 28.5099C110.702 27.4332 108.711 25.7864 108.406 25.7864C108.299 25.7864 108.041 25.6426 107.834 25.467C107.627 25.2912 106.555 24.855 105.451 24.4972C103.247 23.7831 99.5696 23.4911 97.5185 23.8675ZM164.484 23.8925C159.921 24.6565 155.257 28.1688 153.241 32.3604C151.833 35.2875 151.721 36.301 151.701 46.2994L151.682 55.2441L155.142 55.3099L158.601 55.376L158.672 46.246C158.741 37.3822 158.759 37.0846 159.272 36.0253C160.5 33.4888 163.01 31.4757 165.713 30.8593C167.076 30.5485 167.562 30.5383 168.877 30.7926C172.01 31.3991 174.833 33.8108 175.778 36.6886C176.258 38.152 176.284 38.6829 176.267 46.7388L176.25 55.2441H179.732H183.214L183.197 46.3631C183.182 38.109 183.082 36.3719 182.517 34.4925C181.436 30.8949 178.125 27.0723 174.604 25.3578C171.475 23.8341 167.913 23.3184 164.484 23.8925ZM198.016 23.9154C195.168 24.3231 192.556 25.6817 190.117 28.0242C186.697 31.3099 185.345 34.5278 185.345 39.3823C185.345 44.2345 186.6 47.3504 189.861 50.5929C192.103 52.8216 193.779 53.8447 196.429 54.6005C198.665 55.2383 200.829 55.4137 203.026 55.1353C206.917 54.642 209.917 53.1169 212.62 50.2592C214.172 48.6184 216.065 45.3811 215.69 45.0071C215.614 44.9308 213.879 44.8712 211.834 44.8747L208.117 44.8809L207.101 45.8126C206.542 46.3252 205.469 47.0458 204.716 47.4141C203.495 48.0111 203.089 48.0838 200.962 48.086C198.92 48.0881 198.41 48.0058 197.424 47.5162C196.241 46.9294 193.686 44.765 193.686 44.3502C193.686 44.2229 193.525 43.9576 193.329 43.7608C193.132 43.5641 192.971 43.3014 192.971 43.1774C192.971 43.0381 197.479 42.9568 204.718 42.9649L216.466 42.9785L216.66 41.9554C216.953 40.4089 216.674 36.614 216.126 34.6886C214.639 29.4628 209.626 24.9459 204.25 23.9875C202.168 23.6163 200.259 23.5942 198.016 23.9154ZM231.732 23.9131C230.183 24.199 227.6 25.0441 226.842 25.5135C223.79 27.4022 220.934 30.7019 219.872 33.5659C218.843 36.3432 218.7 38.0988 218.779 47.015L218.851 55.2441L222.235 55.3101L225.618 55.3762L225.697 46.604C225.772 38.2784 225.803 37.7677 226.289 36.5725C227.498 33.6038 230.164 31.345 233.103 30.8009L234.714 30.503V27.0713V23.6397L233.819 23.6664C233.327 23.681 232.388 23.7921 231.732 23.9131ZM145.98 25.9644L142.522 26.0369L142.585 40.7001L142.648 55.3633H146.103H149.558V40.5749C149.558 32.4412 149.532 25.8103 149.499 25.8391C149.466 25.8682 147.883 25.9245 145.98 25.9644ZM199.245 30.8071C198.354 30.9829 197.307 31.4709 195.617 32.4973C195.052 32.8403 192.971 35.4602 192.971 35.828C192.971 35.9513 196.386 36.0429 200.978 36.0429H208.984L208.816 35.512C208.542 34.648 206.773 32.7375 205.538 31.9711C203.585 30.7587 201.47 30.3675 199.245 30.8071ZM66.5499 40.3223C66.5499 40.8394 66.6489 41.3234 66.7698 41.3983C67.0033 41.5426 69.6262 39.8648 69.6417 39.5612C69.6467 39.4626 68.9531 39.3823 68.1003 39.3823H66.5499V40.3223ZM58.9765 47.0016C58.3034 47.5631 58.3068 47.7516 59.0274 49.7766L59.6146 51.4277L59.6237 48.9828C59.6284 47.638 59.6055 46.5415 59.5729 46.5458C59.5402 46.5504 59.2718 46.7553 58.9765 47.0016ZM59.8794 54.2163C59.8749 54.5693 59.971 54.9199 60.0931 54.9953C60.486 55.2381 60.5544 54.7785 60.2164 54.1676L59.888 53.5744L59.8794 54.2163ZM116.159 65.2463C116.156 65.3205 116.151 67.7697 116.148 70.6885L116.141 75.9956L116.749 76.071C117.351 76.1459 117.357 76.1306 117.357 74.4259V72.7054L118.94 74.4102C120.377 75.9563 120.61 76.1149 121.445 76.1149C121.951 76.1149 122.366 76.0478 122.366 75.966C122.366 75.8842 121.546 75.0208 120.543 74.0471L118.72 72.277L120.424 70.5804C121.361 69.6471 122.127 68.8471 122.127 68.8022C122.127 68.7574 121.732 68.7206 121.249 68.7206C120.473 68.7206 120.193 68.9088 118.854 70.3307L117.338 71.9407L117.375 68.6014L117.411 65.2621L116.788 65.1867C116.445 65.1452 116.162 65.1719 116.159 65.2463ZM190.338 65.2308C190.277 65.2912 190.258 67.7649 190.296 70.7278L190.364 76.1149H191.076H191.787L191.723 70.6885L191.659 65.2621L191.054 65.1915C190.721 65.1526 190.399 65.1705 190.338 65.2308ZM207.29 65.7312C206.915 66.13 206.7 66.707 206.622 67.5202C206.519 68.5921 206.446 68.7206 205.94 68.7206C205.496 68.7206 205.374 68.8485 205.374 69.317C205.374 69.794 205.494 69.9133 205.971 69.9133H206.567V73.0141V76.1149H207.283H207.998V73.0141V69.9133H208.833C209.559 69.9133 209.668 69.8372 209.668 69.332C209.668 68.8506 209.535 68.7381 208.893 68.676C208.189 68.6083 208.111 68.521 208.045 67.7296C207.963 66.7457 208.625 66.0559 209.445 66.2703C209.814 66.3669 209.906 66.2667 209.906 65.767C209.906 65.19 209.828 65.1428 208.875 65.1428C208.086 65.1428 207.712 65.2816 207.29 65.7312ZM150.133 65.7093C149.847 66.4542 150.137 66.9317 150.874 66.9317C151.506 66.9317 151.586 66.8516 151.586 66.2162C151.586 65.6124 151.483 65.4887 150.928 65.425C150.509 65.3768 150.221 65.4796 150.133 65.7093ZM68.6966 71.0193V76.3121L69.3149 76.1468L69.9334 75.9813L69.9012 71.9932C69.8836 69.7997 69.9153 68.0051 69.9718 68.0051C70.0999 68.0051 74.8746 75.2984 75.0559 75.7707C75.1398 75.9889 75.5274 76.1149 76.1166 76.1149H77.0452V70.9866V65.8584H76.3296H75.614L75.6033 69.8536C75.5937 73.467 75.5584 73.8033 75.2331 73.3719C74.9027 72.9334 73.4069 70.5885 71.3205 67.2387C70.5789 66.0482 70.3857 65.8887 69.5911 65.8123L68.6966 65.7265V71.0193ZM127.474 65.8386C127.42 65.8932 127.375 68.2276 127.375 71.0265V76.1149H128.091H128.806V73.9682C128.806 71.8484 128.814 71.8215 129.391 71.8215C130.498 71.8215 131.127 72.3486 132.264 74.2296C133.325 75.9846 133.459 76.1149 134.206 76.1149C134.647 76.1149 135.008 76.0483 135.008 75.9672C135.008 75.6555 132.311 71.5829 132.105 71.5829C131.985 71.5829 132.321 71.1703 132.851 70.6658C133.659 69.8978 133.815 69.5972 133.812 68.8173C133.804 66.5024 133.199 66.0442 129.919 65.8662C128.629 65.7964 127.528 65.7839 127.474 65.8386ZM182.237 70.9866V76.1149H182.953H183.668V74.2394V72.3639L185.206 72.2403C187.602 72.048 188.677 70.9704 188.677 68.7624C188.677 66.6145 187.53 65.8584 184.272 65.8584H182.237V70.9866ZM202.214 66.6324C201.647 66.8222 201.558 66.9797 201.558 67.7864C201.558 68.6238 201.496 68.7206 200.962 68.7206C200.484 68.7206 200.365 68.8399 200.365 69.317C200.365 69.794 200.484 69.9133 200.962 69.9133H201.558V72.4838C201.558 75.4167 201.797 76.004 203.09 76.2465C204.048 76.4262 204.959 76.0102 204.848 75.443C204.793 75.1625 204.578 75.0639 204.134 75.1162C203.223 75.223 202.989 74.6029 202.989 72.0757V69.9133H203.943C204.802 69.9133 204.897 69.8536 204.897 69.317C204.897 68.7817 204.801 68.7206 203.956 68.7206H203.014L202.942 67.5664C202.87 66.4225 202.864 66.4144 202.214 66.6324ZM87.6001 66.7318C87.4329 66.7993 87.302 67.2623 87.302 67.7864C87.302 68.6238 87.2402 68.7206 86.7057 68.7206C86.2286 68.7206 86.1093 68.8399 86.1093 69.317C86.1093 69.794 86.2286 69.9133 86.7057 69.9133C87.297 69.9133 87.302 69.9312 87.302 72.0302C87.302 73.1944 87.37 74.4872 87.4532 74.9027C87.6467 75.8709 88.6914 76.4591 89.8354 76.2444C90.493 76.1211 90.6414 75.9846 90.6414 75.5033C90.6414 74.9898 90.5625 74.933 90.0329 75.0658C89.037 75.3158 88.7494 74.6599 88.7408 72.1196L88.7332 69.9133H89.703C90.6168 69.9133 90.6686 69.8758 90.5975 69.2683C90.5319 68.7073 90.4136 68.6219 89.6873 68.6124C88.8777 68.6016 88.8503 68.5709 88.7792 67.5877C88.7057 66.573 88.4515 66.3884 87.6001 66.7318ZM128.915 67.6034C128.839 67.9073 128.81 68.6856 128.851 69.3327C128.923 70.4657 128.954 70.5124 129.694 70.5837C130.646 70.6758 132.079 70.0227 132.274 69.4078C132.354 69.1552 132.351 68.6369 132.268 68.2562C132.099 67.4872 131.223 67.051 129.849 67.051C129.216 67.051 129.025 67.164 128.915 67.6034ZM183.668 69.0784V71.1059H184.515C186.087 71.1059 187.256 70.1656 187.238 68.9153C187.223 67.8018 186.176 67.051 184.638 67.051H183.668V69.0784ZM81.1002 68.6505C80.544 68.854 79.6581 69.7279 79.2886 70.438C78.7731 71.4288 78.8564 73.9252 79.4367 74.8769C80.064 75.9062 81.3526 76.4464 82.7773 76.2778C84.452 76.0793 85.1023 75.7068 84.9711 75.0201C84.8408 74.3398 84.941 74.3598 83.88 74.803C83.4092 74.9998 82.7601 75.1608 82.4381 75.1608C81.6274 75.1608 80.3846 74.0655 80.3846 73.3506C80.3846 72.7801 80.4035 72.7756 82.8493 72.7756C84.2051 72.7756 85.3694 72.7202 85.4372 72.6527C85.5047 72.5852 85.4758 71.9972 85.3727 71.3463C85.1657 70.0368 84.6064 69.1249 83.7725 68.7369C83.2024 68.4719 81.7201 68.4239 81.1002 68.6505ZM94.8009 71.4491L93.9014 74.326L93.1722 71.5233L92.4428 68.7206H91.68H90.9169L91.4949 70.5692C91.8128 71.586 92.3059 73.255 92.5907 74.2785C93.1009 76.1132 93.1183 76.138 93.8348 76.0674C94.539 75.9978 94.5869 75.9138 95.3762 73.3719L96.1908 70.7481L96.7139 72.537C97.0018 73.5209 97.3398 74.7016 97.465 75.1608C97.6582 75.8685 97.81 76.0071 98.4609 76.0703C98.8831 76.1115 99.2285 76.0872 99.2285 76.0166C99.2285 75.9458 99.7115 74.3322 100.302 72.4306C100.892 70.5291 101.375 68.9165 101.375 68.8471C101.375 68.7774 101.074 68.7206 100.705 68.7206C100.059 68.7206 100.013 68.8046 99.364 71.1655C98.9947 72.5103 98.6121 73.6986 98.5141 73.8062C98.4161 73.914 98.0296 72.8225 97.6551 71.3807C97.0195 68.9317 96.9329 68.7528 96.3377 68.6655C95.7166 68.5744 95.678 68.6441 94.8009 71.4491ZM104.022 68.7936C101.345 69.7315 101.245 74.8149 103.88 75.931C104.988 76.4002 106.981 76.2954 107.755 75.7275C108.721 75.0198 109.246 73.811 109.246 72.2985C109.246 71.5269 109.074 70.6429 108.829 70.1518C108.094 68.6808 106.018 68.0943 104.022 68.7936ZM112.933 69.0677C112.393 69.608 112.348 69.617 112.348 69.187C112.348 68.827 112.183 68.7206 111.626 68.7206H110.904L110.97 72.3581L111.036 75.9956H111.726H112.416L112.368 73.8C112.339 72.4896 112.433 71.3838 112.6 71.057C113.033 70.2124 113.829 69.6809 114.435 69.8317C114.905 69.9483 114.971 69.8729 114.971 69.2234C114.971 68.5563 114.899 68.4821 114.245 68.4821C113.792 68.4821 113.298 68.7023 112.933 69.0677ZM137.261 68.7109C136.351 69.0791 135.318 70.5158 135.148 71.6471C134.947 72.9878 135.367 74.7283 136.045 75.365C136.328 75.63 137.062 75.9813 137.678 76.1461C138.613 76.3959 138.988 76.3866 139.944 76.0908C140.905 75.7936 141.103 75.6316 141.166 75.0907C141.252 74.3555 140.853 74.2427 140.122 74.7954C139.34 75.3874 138.046 75.2524 137.339 74.5048C136.997 74.144 136.682 73.6342 136.638 73.3719C136.563 72.9227 136.709 72.8908 139.123 72.8271L141.687 72.7593V71.925C141.687 69.9493 140.413 68.4714 138.733 68.4971C138.193 68.5055 137.53 68.6016 137.261 68.7109ZM150.811 68.6653C150.281 68.7526 150.274 68.8037 150.274 72.4066V76.0593L150.865 76.1721C151.19 76.2344 151.512 76.2289 151.58 76.1602C151.777 75.9629 151.726 68.7586 151.526 68.6629C151.428 68.6157 151.106 68.6167 150.811 68.6653ZM155.115 68.7686C154.825 68.9084 154.296 69.4443 153.939 69.9595C153.411 70.7219 153.287 71.171 153.273 72.3727C153.242 75.074 154.684 76.5103 157.157 76.243C158.8 76.0653 159.338 75.7666 159.338 75.0332C159.338 74.3415 159.334 74.3407 158.228 74.803C157.127 75.2629 156.588 75.2541 155.758 74.7636C155.139 74.398 154.567 73.5529 154.567 73.0029C154.567 72.8726 155.687 72.7756 157.191 72.7756H159.815L159.814 71.7618C159.813 70.5346 159.147 69.3582 158.168 68.8516C157.356 68.4316 155.894 68.392 155.115 68.7686ZM160.419 68.7087C160.369 68.7896 160.547 69.5498 160.815 70.3982C162.725 76.45 162.519 75.9887 163.349 76.0703C163.808 76.1156 164.109 76.0359 164.109 75.8692C164.109 75.7173 164.449 74.5029 164.864 73.1705C165.498 71.1369 165.649 70.8438 165.801 71.3444C165.9 71.6724 166.238 72.8531 166.551 73.9682C167.1 75.9217 167.148 75.9982 167.865 76.0693C168.528 76.1347 168.636 76.0555 168.838 75.3538C169.678 72.4469 170.6 69.341 170.709 69.0567C170.803 68.8137 170.641 68.7206 170.124 68.7206C169.434 68.7206 169.391 68.7853 168.91 70.5692C168.637 71.586 168.343 72.7665 168.258 73.193C168.173 73.6194 168.029 73.9682 167.938 73.9682C167.846 73.9682 167.457 72.8144 167.073 71.404C166.391 68.9015 166.358 68.8399 165.69 68.8399C165.026 68.8399 164.98 68.921 164.211 71.4319C163.774 72.8574 163.379 74.0614 163.333 74.1075C163.287 74.1535 162.937 72.9692 162.556 71.4758C161.892 68.8769 161.834 68.756 161.186 68.661C160.814 68.6064 160.469 68.6279 160.419 68.7087ZM172.999 68.6498C171.861 68.8695 171.092 70.8015 171.736 71.8207C171.86 72.017 172.637 72.5001 173.462 72.8941C175.06 73.6571 175.463 74.2916 174.704 74.8469C174.138 75.2603 173.216 75.2424 172.37 74.8016C171.476 74.335 171.503 74.3207 171.503 75.2529C171.503 76.0233 171.551 76.0679 172.541 76.2162C173.941 76.4261 175.553 76.034 176.084 75.3545C176.368 74.9902 176.494 74.4815 176.454 73.8565C176.395 72.9435 176.334 72.8791 174.723 72.0435C173.576 71.4479 173.03 71.0217 172.979 70.6806C172.845 69.7809 174.238 69.4345 175.618 70.0244C175.962 70.1716 176.035 70.0778 176.035 69.4873C176.035 69.0548 175.886 68.7144 175.658 68.6269C175.252 68.4712 173.862 68.4831 172.999 68.6498ZM194.7 68.8244C194.107 69.0925 193.925 69.3241 193.925 69.8102C193.925 70.4922 194.006 70.4967 195.493 69.8973C196.527 69.4803 197.403 69.7616 197.697 70.6047C197.964 71.3714 198.131 71.2903 195.442 71.7029C194.045 71.9173 193.368 72.7073 193.368 74.1227C193.368 75.417 193.895 75.998 195.307 76.263C195.963 76.3861 196.399 76.3047 197.079 75.9326C197.724 75.5789 197.98 75.5269 197.98 75.7492C197.98 75.9198 198.248 76.1106 198.576 76.1733L199.173 76.2873V73.1135C199.173 70.1337 199.139 69.9004 198.617 69.2936C198.165 68.7688 197.818 68.631 196.768 68.5608C195.967 68.5072 195.181 68.6074 194.7 68.8244ZM212.294 68.7965C210.876 69.4689 210.299 70.5275 210.296 72.4569C210.294 73.6245 210.414 74.1037 210.876 74.783C212.352 76.9559 215.987 76.7563 217.186 74.4359C217.673 73.4947 217.638 71.186 217.121 70.1518C216.883 69.6743 216.347 69.1385 215.87 68.9C214.923 68.427 213.179 68.3767 212.294 68.7965ZM219.334 68.6753C219.265 68.744 219.209 70.4459 219.209 72.4576V76.1149H219.925H220.64V73.8332C220.64 72.5783 220.762 71.3172 220.911 71.0305C221.406 70.0788 222.02 69.6528 222.664 69.8143C223.209 69.9512 223.264 69.8966 223.264 69.2234C223.264 68.5666 223.186 68.4821 222.581 68.4821C222.205 68.4821 221.614 68.7047 221.269 68.9766C220.786 69.3563 220.64 69.3904 220.64 69.1235C220.64 68.7862 219.585 68.4242 219.334 68.6753ZM226.305 68.9532C225.769 69.3763 225.649 69.4024 225.649 69.0958C225.649 68.838 225.426 68.7206 224.934 68.7206H224.218V72.4178V76.1149H224.934H225.649V73.7771C225.649 71.2783 225.914 70.3479 226.754 69.8973C228.201 69.1211 228.989 70.5177 228.989 73.857V76.1466L229.619 76.071L230.25 75.9956L230.203 73.7244C230.161 71.6955 230.215 71.3647 230.713 70.6236C231.341 69.6893 232.177 69.4701 232.925 70.0437C233.346 70.3669 233.411 70.745 233.481 73.2624L233.561 76.1149H234.28H235L234.911 73.0737C234.816 69.841 234.624 69.2122 233.582 68.7376C232.461 68.2269 230.181 68.7271 230.181 69.4839C230.181 69.6347 229.92 69.5121 229.6 69.2115C228.747 68.4108 227.151 68.2856 226.305 68.9532ZM142.164 68.8549C142.164 68.9289 142.585 70.0292 143.099 71.2998C143.613 72.5707 144.229 74.1738 144.467 74.8626C144.861 76.0044 144.963 76.1142 145.619 76.107C146.323 76.0991 146.368 76.0228 147.713 72.5888C148.469 70.6579 149.086 68.9981 149.084 68.8995C149.083 68.801 148.774 68.7206 148.398 68.7206C147.811 68.7206 147.663 68.8638 147.345 69.7344C147.141 70.2918 146.678 71.567 146.315 72.5678L145.655 74.3873L144.755 71.7864C144.26 70.356 143.79 69.0811 143.711 68.9532C143.56 68.7099 142.164 68.6214 142.164 68.8549ZM81.0382 70.2806C79.9166 71.3205 80.1454 71.5829 82.1736 71.5829C84.1861 71.5829 84.4308 71.3139 83.377 70.2603C82.6275 69.5106 81.8616 69.5173 81.0382 70.2806ZM104.559 69.9553C103.716 70.3636 103.191 71.5991 103.351 72.8013C103.514 74.0287 104.641 75.1608 105.701 75.1608C106.666 75.1608 107.746 74.1337 107.93 73.0403C108.104 72.0125 107.61 70.5298 106.918 70.0049C106.427 69.6316 105.278 69.6075 104.559 69.9553ZM137.263 70.2603C136.209 71.3139 136.454 71.5829 138.467 71.5829C139.921 71.5829 140.256 71.514 140.256 71.2144C140.256 70.6305 139.145 69.6747 138.467 69.6747C138.127 69.6747 137.585 69.9383 137.263 70.2603ZM155.65 70.1437C155.261 70.4001 154.862 70.8287 154.763 71.0964C154.591 71.5605 154.67 71.5829 156.483 71.5829C158.614 71.5829 158.867 71.3287 157.798 70.2603C157.093 69.5543 156.586 69.5269 155.65 70.1437ZM212.886 69.94C211.736 70.4998 211.254 72.4147 211.932 73.727C212.733 75.2746 214.129 75.5732 215.373 74.4631C216.04 73.8675 216.159 73.5937 216.191 72.5919C216.211 71.9467 216.081 71.1455 215.903 70.8115C215.364 69.8028 213.986 69.4047 212.886 69.94ZM195.672 72.703C194.924 72.8485 194.563 73.3876 194.74 74.0924C194.956 74.9528 195.891 75.3378 196.707 74.9017C197.274 74.5988 197.98 73.4239 197.98 72.7832C197.98 72.5435 196.717 72.4996 195.672 72.703Z" fill="white"/>
</svg>
