<svg width="44" height="30" viewBox="0 0 44 29" fill="none" xmlns="http://www.w3.org/2000/svg">
<g id="heart-solid-rounded">
<path id="Vector" fill-rule="evenodd" clip-rule="evenodd" d="M14.1137 0.365993C10.5383 0.815865 7.53805 3.27379 6.41266 6.67499C5.9082 8.19976 5.86823 9.59498 6.28189 11.2455C7.44616 15.8907 12.4227 21.6918 20.3811 27.6808C21.5666 28.5729 21.4369 28.5865 22.9951 27.4063C25.1663 25.7618 27.0747 24.154 28.8855 22.4438C33.4848 18.0999 36.1374 14.2026 36.8597 10.7273C37.0156 9.97755 37.0483 8.51423 36.9238 7.86183C36.7154 6.77022 36.1479 5.37561 35.5468 4.47818C34.1446 2.38453 32.1049 1.01827 29.5752 0.478171C28.7325 0.298259 27.0426 0.281128 26.2088 0.444091C24.5323 0.771786 23.189 1.412 21.727 2.58024L21.5081 2.75509L21.2892 2.58024C19.8304 1.41462 18.5574 0.795563 16.9751 0.482317C16.2276 0.334351 14.8202 0.277104 14.1137 0.365993Z" fill="none"
      stroke="white"
      stroke-width="1"
      stroke-linejoin="round"/>
</g>
</svg>
